SplineFontDB: 3.0
FontName: Menlo-Italic
FullName: Menlo Italic
FamilyName: Menlo
Weight: Book
Copyright: Copyright (c) 2009 Apple Inc. Copyright (c)  2006 by Tavmjong Bah. Copyright (c) 2003 by Bitstream, Inc. All Rights Reserved.
Version: 12.0d1e2
ItalicAngle: -11
UnderlinePosition: -175
UnderlineWidth: 90
Ascent: 1556
Descent: 492
InvalidEm: 0
sfntRevision: 0x0002072b
LayerCount: 2
Layer: 0 1 "Back" 1
Layer: 1 1 "Fore" 0
XUID: [1021 624 289821778 11060552]
StyleMap: 0x0001
FSType: 0
OS2Version: 3
OS2_WeightWidthSlopeOnly: 0
OS2_UseTypoMetrics: 0
CreationTime: 1229875377
ModificationTime: 1534759663
PfmFamily: 17
TTFWeight: 400
TTFWidth: 5
LineGap: 0
VLineGap: 0
Panose: 2 11 6 9 3 3 4 11 2 4
OS2TypoAscent: 1556
OS2TypoAOffset: 0
OS2TypoDescent: -492
OS2TypoDOffset: 0
OS2TypoLinegap: 410
OS2WinAscent: 1901
OS2WinAOffset: 0
OS2WinDescent: 483
OS2WinDOffset: 0
HheadAscent: 1901
HheadAOffset: 0
HheadDescent: -483
HheadDOffset: 0
OS2SubXSize: 1331
OS2SubYSize: 1433
OS2SubXOff: 54
OS2SubYOff: 286
OS2SupXSize: 1331
OS2SupYSize: 1433
OS2SupXOff: -187
OS2SupYOff: 983
OS2StrikeYSize: 102
OS2StrikeYPos: 530
OS2CapHeight: 1493
OS2XHeight: 1120
OS2Vendor: 'PfEd'
OS2CodePages: 6000019f.dfd70000
OS2UnicodeRanges: e60002ff.500079fb.00000020.00000000
Lookup: 4 0 0 "<27,0> Canonical Decomposition lookup 0" { "<27,0> Canonical Decomposition lookup 0 subtable"  } [<27,0> ('grek' <'dflt' > 'latn' <'dflt' > ) ]
Lookup: 4 0 0 "<27,0> Canonical Decomposition lookup 1" { "<27,0> Canonical Decomposition lookup 1 subtable"  } [<27,0> ('DFLT' <'dflt' > 'cyrl' <'dflt' > 'grek' <'dflt' > 'latn' <'dflt' > ) ]
Lookup: 4 0 0 "<27,0> Canonical Decomposition lookup 2" { "<27,0> Canonical Decomposition lookup 2 subtable"  } [<27,0> ('grek' <'dflt' > 'latn' <'dflt' > ) ]
Lookup: 4 0 1 "<1,2> Common Ligatures in Latin lookup 3" { "<1,2> Common Ligatures in Latin lookup 3 subtable"  } [<1,2> ('latn' <'dflt' > ) 'liga' ('latn' <'dflt' > ) ]
DEI: 91125
MacFeat: 1 0 0
MacName: 0 0 9 "Ligatures"

StartChar: .notdef
Encoding: 65536 -1 0
Width: 1233
Flags: W
LayerCount: 2
Fore
SplineSet
104 -362 m 1,0,-1
 104 1444 l 1,1,-1
 1128 1444 l 1,2,-1
 1128 -362 l 1,3,-1
 104 -362 l 1,0,-1
219 -248 m 1,4,-1
 1014 -248 l 1,5,-1
 1014 1329 l 1,6,-1
 219 1329 l 1,7,-1
 219 -248 l 1,4,-1
EndSplineSet
EndChar

StartChar: exclam
Encoding: 33 33 2
Width: 1233
Flags: W
LayerCount: 2
Fore
SplineSet
684 1493 m 1,0,-1
 887 1493 l 1,1,-1
 747 838 l 1,2,-1
 661 531 l 1,3,-1
 500 531 l 1,4,-1
 544 838 l 1,5,-1
 684 1493 l 1,0,-1
390 254 m 1,6,-1
 653 254 l 1,7,-1
 599 0 l 1,8,-1
 336 0 l 1,9,-1
 390 254 l 1,6,-1
EndSplineSet
EndChar

StartChar: quotedbl
Encoding: 34 34 3
Width: 1233
Flags: W
LayerCount: 2
Fore
SplineSet
905 1547 m 1,0,-1
 905 935 l 1,1,-1
 681 935 l 1,2,-1
 681 1547 l 1,3,-1
 905 1547 l 1,0,-1
412 1547 m 1,4,-1
 412 935 l 1,5,-1
 188 935 l 1,6,-1
 188 1547 l 1,7,-1
 412 1547 l 1,4,-1
EndSplineSet
EndChar

StartChar: numbersign
Encoding: 35 35 4
Width: 1233
Flags: W
LayerCount: 2
Fore
SplineSet
684 1465 m 1,0,-1
 594 1111 l 1,1,-1
 839 1111 l 1,2,-1
 930 1465 l 1,3,-1
 1090 1465 l 1,4,-1
 999 1111 l 1,5,-1
 1243 1111 l 1,6,-1
 1243 958 l 1,7,-1
 962 958 l 1,8,-1
 864 565 l 1,9,-1
 1114 565 l 1,10,-1
 1114 412 l 1,11,-1
 825 412 l 1,12,-1
 721 0 l 1,13,-1
 561 0 l 1,14,-1
 666 412 l 1,15,-1
 420 412 l 1,16,-1
 315 0 l 1,17,-1
 156 0 l 1,18,-1
 260 412 l 1,19,-1
 2 412 l 1,20,-1
 2 565 l 1,21,-1
 299 565 l 1,22,-1
 397 958 l 1,23,-1
 131 958 l 1,24,-1
 131 1111 l 1,25,-1
 434 1111 l 1,26,-1
 524 1465 l 1,27,-1
 684 1465 l 1,0,-1
802 958 m 1,28,-1
 557 958 l 1,29,-1
 459 565 l 1,30,-1
 705 565 l 1,31,-1
 802 958 l 1,28,-1
EndSplineSet
EndChar

StartChar: dollar
Encoding: 36 36 5
Width: 1233
Flags: W
LayerCount: 2
Fore
SplineSet
629 588 m 1,0,-1
 543 145 l 1,1,2
 672 145 672 145 751.5 217.5 c 128,-1,3
 831 290 831 290 831 406 c 0,4,5
 831 484 831 484 784 526.5 c 128,-1,6
 737 569 737 569 629 588 c 1,0,-1
563 774 m 1,7,-1
 643 1184 l 1,8,9
 524 1176 524 1176 448.5 1107.5 c 128,-1,10
 373 1039 373 1039 373 940 c 0,11,12
 373 871 373 871 415 834 c 128,-1,13
 457 797 457 797 563 774 c 1,7,-1
455 -301 m 1,14,-1
 354 -301 l 1,15,-1
 413 0 l 1,16,17
 318 3 318 3 222 26 c 128,-1,18
 126 49 126 49 31 92 c 1,19,-1
 66 272 l 1,20,21
 147 212 147 212 241.5 179 c 128,-1,22
 336 146 336 146 440 141 c 1,23,-1
 530 606 l 1,24,25
 354 641 354 641 274.5 713.5 c 128,-1,26
 195 786 195 786 195 911 c 0,27,28
 195 1084 195 1084 327.5 1199 c 128,-1,29
 460 1314 460 1314 669 1321 c 1,30,-1
 717 1556 l 1,31,-1
 817 1556 l 1,32,-1
 770 1321 l 1,33,34
 855 1315 855 1315 933 1299.5 c 128,-1,35
 1011 1284 1011 1284 1083 1260 c 1,36,-1
 1051 1087 l 1,37,38
 986 1127 986 1127 909 1150.5 c 128,-1,39
 832 1174 832 1174 743 1182 c 1,40,-1
 662 756 l 1,41,42
 836 722 836 722 925 639 c 128,-1,43
 1014 556 1014 556 1014 426 c 0,44,45
 1014 242 1014 242 877 122 c 128,-1,46
 740 2 740 2 524 2 c 2,47,-1
 514 2 l 1,48,-1
 455 -301 l 1,14,-1
EndSplineSet
EndChar

StartChar: percent
Encoding: 37 37 6
Width: 1233
Flags: W
LayerCount: 2
Fore
SplineSet
696 319 m 0,0,1
 696 241 696 241 748.5 188 c 128,-1,2
 801 135 801 135 879 135 c 0,3,4
 956 135 956 135 1009.5 188.5 c 128,-1,5
 1063 242 1063 242 1063 319 c 256,6,7
 1063 396 1063 396 1009 450 c 128,-1,8
 955 504 955 504 879 504 c 0,9,10
 801 504 801 504 748.5 451 c 128,-1,11
 696 398 696 398 696 319 c 0,0,1
561 319 m 0,12,13
 561 454 561 454 653 546.5 c 128,-1,14
 745 639 745 639 879 639 c 0,15,16
 943 639 943 639 1000.5 615 c 128,-1,17
 1058 591 1058 591 1104 545 c 0,18,19
 1150 498 1150 498 1175 440 c 128,-1,20
 1200 382 1200 382 1200 319 c 0,21,22
 1200 186 1200 186 1107 93 c 128,-1,23
 1014 0 1014 0 879 0 c 0,24,25
 743 0 743 0 652 91.5 c 128,-1,26
 561 183 561 183 561 319 c 0,12,13
83 440 m 1,27,-1
 39 553 l 1,28,-1
 1154 999 l 1,29,-1
 1204 886 l 1,30,-1
 83 440 l 1,27,-1
168 1112 m 0,31,32
 168 1033 168 1033 220.5 980.5 c 128,-1,33
 273 928 273 928 352 928 c 0,34,35
 429 928 429 928 483 981.5 c 128,-1,36
 537 1035 537 1035 537 1112 c 256,37,38
 537 1189 537 1189 483 1242.5 c 128,-1,39
 429 1296 429 1296 352 1296 c 256,40,41
 275 1296 275 1296 221.5 1243 c 128,-1,42
 168 1190 168 1190 168 1112 c 0,31,32
33 1112 m 256,43,44
 33 1247 33 1247 125 1339.5 c 128,-1,45
 217 1432 217 1432 352 1432 c 0,46,47
 416 1432 416 1432 474.5 1408 c 128,-1,48
 533 1384 533 1384 578 1339 c 256,49,50
 623 1294 623 1294 647.5 1235.5 c 128,-1,51
 672 1177 672 1177 672 1112 c 0,52,53
 672 978 672 978 579 885.5 c 128,-1,54
 486 793 486 793 352 793 c 0,55,56
 217 793 217 793 125 885 c 128,-1,57
 33 977 33 977 33 1112 c 256,43,44
EndSplineSet
EndChar

StartChar: ampersand
Encoding: 38 38 7
Width: 1233
Flags: W
LayerCount: 2
Fore
SplineSet
567 907 m 2,0,-1
 874 350 l 1,1,2
 936 416 936 416 973 518.5 c 128,-1,3
 1010 621 1010 621 1022 760 c 1,4,-1
 1190 760 l 1,5,6
 1173 592 1173 592 1112 457.5 c 128,-1,7
 1051 323 1051 323 944 221 c 1,8,-1
 1067 0 l 1,9,-1
 868 0 l 1,10,-1
 809 113 l 1,11,12
 714 42 714 42 614 6.5 c 128,-1,13
 514 -29 514 -29 410 -29 c 0,14,15
 215 -29 215 -29 97.5 78 c 128,-1,16
 -20 185 -20 185 -20 360 c 0,17,18
 -20 528 -20 528 79.5 672.5 c 128,-1,19
 179 817 179 817 367 920 c 1,20,21
 338 972 338 972 323.5 1026 c 128,-1,22
 309 1080 309 1080 309 1135 c 0,23,24
 309 1309 309 1309 432 1414.5 c 128,-1,25
 555 1520 555 1520 762 1520 c 0,26,27
 827 1520 827 1520 889 1508 c 128,-1,28
 951 1496 951 1496 1008 1473 c 1,29,-1
 973 1290 l 1,30,31
 931 1328 931 1328 870 1347 c 128,-1,32
 809 1366 809 1366 733 1366 c 0,33,34
 620 1366 620 1366 551.5 1308.5 c 128,-1,35
 483 1251 483 1251 483 1157 c 0,36,37
 483 1110 483 1110 505 1044.5 c 128,-1,38
 527 979 527 979 567 907 c 2,0,-1
432 795 m 1,39,40
 297 722 297 722 227.5 623.5 c 128,-1,41
 158 525 158 525 158 408 c 0,42,43
 158 289 158 289 244 209 c 128,-1,44
 330 129 330 129 459 129 c 0,45,46
 524 129 524 129 597 157.5 c 128,-1,47
 670 186 670 186 741 240 c 1,48,-1
 432 795 l 1,39,40
EndSplineSet
EndChar

StartChar: quotesingle
Encoding: 39 39 8
Width: 1233
Flags: W
LayerCount: 2
Fore
SplineSet
712 1558 m 1,0,-1
 712 935 l 1,1,-1
 488 935 l 1,2,-1
 488 1558 l 1,3,-1
 712 1558 l 1,0,-1
EndSplineSet
EndChar

StartChar: parenleft
Encoding: 40 40 9
Width: 1233
Flags: W
LayerCount: 2
Fore
SplineSet
1042 1554 m 1,0,1
 806 1253 806 1253 686.5 947.5 c 128,-1,2
 567 642 567 642 567 340 c 0,3,4
 567 194 567 194 596.5 43 c 128,-1,5
 626 -108 626 -108 686 -270 c 1,6,-1
 526 -270 l 1,7,8
 447 -81 447 -81 410 76 c 128,-1,9
 373 233 373 233 373 375 c 0,10,11
 373 678 373 678 502 977.5 c 128,-1,12
 631 1277 631 1277 883 1554 c 1,13,-1
 1042 1554 l 1,0,1
EndSplineSet
EndChar

StartChar: parenright
Encoding: 41 41 10
Width: 1233
Flags: W
LayerCount: 2
Fore
SplineSet
150 -270 m 1,0,1
 386 30 386 30 505.5 335.5 c 128,-1,2
 625 641 625 641 625 944 c 0,3,4
 625 1090 625 1090 595.5 1241 c 128,-1,5
 566 1392 566 1392 506 1554 c 1,6,-1
 666 1554 l 1,7,8
 744 1366 744 1366 781.5 1208.5 c 128,-1,9
 819 1051 819 1051 819 909 c 0,10,11
 819 606 819 606 690 306.5 c 128,-1,12
 561 7 561 7 309 -270 c 1,13,-1
 150 -270 l 1,0,1
EndSplineSet
EndChar

StartChar: asterisk
Encoding: 42 42 11
Width: 1233
Flags: W
LayerCount: 2
Fore
SplineSet
1179 871 m 1,0,-1
 735 631 l 1,1,-1
 1179 390 l 1,2,-1
 1109 268 l 1,3,-1
 691 519 l 1,4,-1
 691 53 l 1,5,-1
 548 53 l 1,6,-1
 548 519 l 1,7,-1
 130 268 l 1,8,-1
 60 390 l 1,9,-1
 505 631 l 1,10,-1
 60 871 l 1,11,-1
 130 994 l 1,12,-1
 548 743 l 1,13,-1
 548 1209 l 1,14,-1
 691 1209 l 1,15,-1
 691 743 l 1,16,-1
 1109 994 l 1,17,-1
 1179 871 l 1,0,-1
EndSplineSet
EndChar

StartChar: plus
Encoding: 43 43 12
Width: 1233
Flags: W
LayerCount: 2
Fore
SplineSet
806 1158 m 1,0,-1
 720 715 l 1,1,-1
 1165 715 l 1,2,-1
 1132 546 l 1,3,-1
 687 546 l 1,4,-1
 601 103 l 1,5,-1
 433 103 l 1,6,-1
 519 546 l 1,7,-1
 75 546 l 1,8,-1
 108 715 l 1,9,-1
 552 715 l 1,10,-1
 638 1158 l 1,11,-1
 806 1158 l 1,0,-1
EndSplineSet
EndChar

StartChar: comma
Encoding: 44 44 13
Width: 1233
Flags: W
LayerCount: 2
Fore
SplineSet
431 361 m 1,0,-1
 743 361 l 1,1,-1
 691 96 l 1,2,-1
 385 -335 l 1,3,-1
 185 -336 l 1,4,-1
 379 96 l 1,5,-1
 431 361 l 1,0,-1
EndSplineSet
EndChar

StartChar: hyphen
Encoding: 45 45 14
Width: 1233
Flags: W
LayerCount: 2
Fore
SplineSet
135 724 m 1,0,-1
 1195 724 l 1,1,-1
 1159 555 l 1,2,-1
 99 555 l 1,3,-1
 135 724 l 1,0,-1
EndSplineSet
EndChar

StartChar: period
Encoding: 46 46 15
Width: 1233
Flags: W
LayerCount: 2
Fore
SplineSet
428 404 m 1,0,-1
 780 404 l 1,1,-1
 701 0 l 1,2,-1
 349 0 l 1,3,-1
 428 404 l 1,0,-1
EndSplineSet
EndChar

StartChar: slash
Encoding: 47 47 16
Width: 1233
Flags: W
LayerCount: 2
Fore
SplineSet
16 -190 m 1,0,-1
 868 1493 l 1,1,-1
 1059 1493 l 1,2,-1
 205 -190 l 1,3,-1
 16 -190 l 1,0,-1
EndSplineSet
EndChar

StartChar: zero
Encoding: 48 48 17
Width: 1233
Flags: W
LayerCount: 2
Fore
SplineSet
754 1520 m 0,0,1
 993 1528 993 1528 1079.5 1335 c 128,-1,2
 1166 1142 1166 1142 1097 758 c 0,3,4
 1028 373 1028 373 870 173 c 128,-1,5
 712 -27 712 -27 473 -34 c 256,6,7
 234 -41 234 -41 148 151.5 c 128,-1,8
 62 344 62 344 130 728 c 0,9,10
 200 1113 200 1113 357.5 1313 c 128,-1,11
 515 1513 515 1513 754 1520 c 0,0,1
502 128 m 0,12,13
 644 132 644 132 741 286 c 128,-1,14
 838 440 838 440 894 752 c 0,15,16
 925 918 925 918 929 1051 c 1,17,-1
 317 286 l 1,18,19
 362 123 362 123 502 128 c 0,12,13
725 1358 m 0,20,21
 584 1354 584 1354 487 1200 c 128,-1,22
 390 1046 390 1046 333 734 c 0,23,24
 307 593 307 593 304 469 c 1,25,-1
 905 1232 l 1,26,27
 854 1363 854 1363 725 1358 c 0,20,21
EndSplineSet
EndChar

StartChar: one
Encoding: 49 49 18
Width: 1233
Flags: W
LayerCount: 2
Fore
SplineSet
156 170 m 1,0,-1
 469 170 l 1,1,-1
 690 1311 l 1,2,-1
 338 1235 l 1,3,-1
 373 1419 l 1,4,-1
 725 1493 l 1,5,-1
 928 1493 l 1,6,-1
 670 170 l 1,7,-1
 979 170 l 1,8,-1
 946 0 l 1,9,-1
 123 0 l 1,10,-1
 156 170 l 1,0,-1
EndSplineSet
EndChar

StartChar: two
Encoding: 50 50 19
Width: 1233
Flags: W
LayerCount: 2
Fore
SplineSet
268 170 m 1,0,-1
 952 170 l 1,1,-1
 920 0 l 1,2,-1
 6 0 l 1,3,-1
 39 170 l 1,4,-1
 350 444 l 1,5,-1
 389 479 l 1,6,7
 926 950 926 950 926 1153 c 0,8,9
 926 1246 926 1246 862 1299 c 128,-1,10
 798 1352 798 1352 684 1352 c 0,11,12
 592 1352 592 1352 486 1318.5 c 128,-1,13
 380 1285 380 1285 254 1217 c 1,14,-1
 295 1421 l 1,15,16
 407 1470 407 1470 511.5 1495 c 128,-1,17
 616 1520 616 1520 713 1520 c 0,18,19
 898 1520 898 1520 1012 1423 c 128,-1,20
 1126 1326 1126 1326 1126 1171 c 0,21,22
 1126 1075 1126 1075 1090.5 988.5 c 128,-1,23
 1055 902 1055 902 973 799 c 0,24,25
 940 757 940 757 854 678 c 128,-1,26
 768 599 768 599 588 444 c 2,27,-1
 268 170 l 1,0,-1
EndSplineSet
EndChar

StartChar: three
Encoding: 51 51 20
Width: 1233
Flags: W
LayerCount: 2
Fore
SplineSet
762 799 m 1,0,1
 876 779 876 779 940 697 c 128,-1,2
 1004 615 1004 615 1004 489 c 0,3,4
 1004 255 1004 255 836.5 113 c 128,-1,5
 669 -29 669 -29 389 -29 c 0,6,7
 281 -29 281 -29 178.5 -10.5 c 128,-1,8
 76 8 76 8 -18 45 c 1,9,-1
 20 246 l 1,10,11
 111 194 111 194 206 167.5 c 128,-1,12
 301 141 301 141 399 141 c 0,13,14
 581 141 581 141 693 234.5 c 128,-1,15
 805 328 805 328 805 477 c 0,16,17
 805 594 805 594 733.5 654.5 c 128,-1,18
 662 715 662 715 524 715 c 2,19,-1
 371 715 l 1,20,-1
 403 881 l 1,21,-1
 557 881 l 2,22,23
 715 881 715 881 808 956 c 128,-1,24
 901 1031 901 1031 901 1155 c 0,25,26
 901 1255 901 1255 839.5 1302.5 c 128,-1,27
 778 1350 778 1350 649 1350 c 0,28,29
 567 1350 567 1350 470 1330 c 128,-1,30
 373 1310 373 1310 260 1270 c 1,31,-1
 297 1456 l 1,32,33
 420 1489 420 1489 517 1504.5 c 128,-1,34
 614 1520 614 1520 698 1520 c 0,35,36
 886 1520 886 1520 994 1432 c 128,-1,37
 1102 1344 1102 1344 1102 1192 c 0,38,39
 1102 1039 1102 1039 1012.5 935.5 c 128,-1,40
 923 832 923 832 762 799 c 1,0,1
EndSplineSet
EndChar

StartChar: four
Encoding: 52 52 21
Width: 1233
Flags: W
LayerCount: 2
Fore
SplineSet
842 1282 m 1,0,-1
 217 520 l 1,1,-1
 690 520 l 1,2,-1
 842 1282 l 1,0,-1
846 1493 m 1,3,-1
 1079 1493 l 1,4,-1
 889 520 l 1,5,-1
 1087 520 l 1,6,-1
 1057 356 l 1,7,-1
 858 356 l 1,8,-1
 788 0 l 1,9,-1
 590 0 l 1,10,-1
 659 356 l 1,11,-1
 25 356 l 1,12,-1
 61 547 l 1,13,-1
 846 1493 l 1,3,-1
EndSplineSet
EndChar

StartChar: five
Encoding: 53 53 22
Width: 1233
Flags: W
LayerCount: 2
Fore
SplineSet
352 1493 m 1,0,-1
 1108 1493 l 1,1,-1
 1075 1323 l 1,2,-1
 504 1323 l 1,3,-1
 432 956 l 1,4,5
 479 972 479 972 523.5 979.5 c 128,-1,6
 568 987 568 987 612 987 c 0,7,8
 800 987 800 987 915 873.5 c 128,-1,9
 1030 760 1030 760 1030 575 c 0,10,11
 1030 451 1030 451 977.5 334 c 128,-1,12
 925 217 925 217 829 131 c 0,13,14
 741 51 741 51 627.5 11 c 128,-1,15
 514 -29 514 -29 371 -29 c 0,16,17
 263 -29 263 -29 169.5 -12.5 c 128,-1,18
 76 4 76 4 4 35 c 1,19,-1
 45 240 l 1,20,21
 129 189 129 189 217 164 c 128,-1,22
 305 139 305 139 399 139 c 0,23,24
 585 139 585 139 707 256 c 128,-1,25
 829 373 829 373 829 547 c 0,26,27
 829 675 829 675 748.5 748 c 128,-1,28
 668 821 668 821 526 821 c 0,29,30
 447 821 447 821 364.5 801 c 128,-1,31
 282 781 282 781 207 743 c 1,32,-1
 352 1493 l 1,0,-1
EndSplineSet
EndChar

StartChar: six
Encoding: 54 54 23
Width: 1233
Flags: W
LayerCount: 2
Fore
SplineSet
860 594 m 0,0,1
 860 707 860 707 802 768 c 128,-1,2
 744 829 744 829 637 829 c 0,3,4
 491 829 491 829 392 703 c 128,-1,5
 293 577 293 577 293 387 c 0,6,7
 293 266 293 266 354 197.5 c 128,-1,8
 415 129 415 129 522 129 c 0,9,10
 666 129 666 129 763 263 c 128,-1,11
 860 397 860 397 860 594 c 0,0,1
1128 1460 m 1,12,-1
 1092 1274 l 1,13,14
 1034 1311 1034 1311 966 1330.5 c 128,-1,15
 898 1350 898 1350 823 1350 c 0,16,17
 630 1350 630 1350 504.5 1206.5 c 128,-1,18
 379 1063 379 1063 324 780 c 1,19,20
 392 882 392 882 485.5 934.5 c 128,-1,21
 579 987 579 987 692 987 c 0,22,23
 870 987 870 987 966.5 887.5 c 128,-1,24
 1063 788 1063 788 1063 604 c 0,25,26
 1063 485 1063 485 1023 366 c 128,-1,27
 983 247 983 247 915 164 c 0,28,29
 837 67 837 67 737.5 19 c 128,-1,30
 638 -29 638 -29 516 -29 c 0,31,32
 313 -29 313 -29 202.5 88 c 128,-1,33
 92 205 92 205 92 420 c 0,34,35
 92 586 92 586 131 765 c 128,-1,36
 170 944 170 944 238 1090 c 0,37,38
 336 1305 336 1305 488.5 1412.5 c 128,-1,39
 641 1520 641 1520 848 1520 c 0,40,41
 923 1520 923 1520 994 1504.5 c 128,-1,42
 1065 1489 1065 1489 1128 1460 c 1,12,-1
EndSplineSet
EndChar

StartChar: seven
Encoding: 55 55 24
Width: 1233
Flags: W
LayerCount: 2
Fore
SplineSet
276 1493 m 1,0,-1
 1212 1493 l 1,1,-1
 1196 1399 l 1,2,-1
 391 0 l 1,3,-1
 174 0 l 1,4,-1
 952 1323 l 1,5,-1
 244 1323 l 1,6,-1
 276 1493 l 1,0,-1
EndSplineSet
EndChar

StartChar: eight
Encoding: 56 56 25
Width: 1233
Flags: W
LayerCount: 2
Fore
SplineSet
821 461 m 0,0,1
 821 577 821 577 755 643 c 128,-1,2
 689 709 689 709 571 709 c 0,3,4
 429 709 429 709 337.5 610.5 c 128,-1,5
 246 512 246 512 246 358 c 0,6,7
 246 253 246 253 313 190 c 128,-1,8
 380 127 380 127 492 127 c 0,9,10
 640 127 640 127 730.5 219 c 128,-1,11
 821 311 821 311 821 461 c 0,0,1
430 793 m 1,12,13
 323 831 323 831 269 903.5 c 128,-1,14
 215 976 215 976 215 1081 c 0,15,16
 215 1263 215 1263 363 1391.5 c 128,-1,17
 511 1520 511 1520 725 1520 c 0,18,19
 903 1520 903 1520 1014.5 1429 c 128,-1,20
 1126 1338 1126 1338 1126 1194 c 256,21,22
 1126 1050 1126 1050 1029 936.5 c 128,-1,23
 932 823 932 823 772 782 c 1,24,25
 898 752 898 752 962 669 c 128,-1,26
 1026 586 1026 586 1026 453 c 0,27,28
 1026 244 1026 244 874 107.5 c 128,-1,29
 722 -29 722 -29 485 -29 c 0,30,31
 278 -29 278 -29 159.5 73 c 128,-1,32
 41 175 41 175 41 354 c 0,33,34
 41 520 41 520 145.5 638 c 128,-1,35
 250 756 250 756 430 793 c 1,12,13
707 1364 m 0,36,37
 580 1364 580 1364 498 1283.5 c 128,-1,38
 416 1203 416 1203 416 1079 c 0,39,40
 416 980 416 980 474.5 923 c 128,-1,41
 533 866 533 866 635 866 c 0,42,43
 758 866 758 866 842 953 c 128,-1,44
 926 1040 926 1040 926 1165 c 0,45,46
 926 1256 926 1256 866 1310 c 128,-1,47
 806 1364 806 1364 707 1364 c 0,36,37
EndSplineSet
EndChar

StartChar: nine
Encoding: 57 57 26
Width: 1233
Flags: W
LayerCount: 2
Fore
SplineSet
330 897 m 0,0,1
 330 784 330 784 388 723 c 128,-1,2
 446 662 446 662 553 662 c 0,3,4
 699 662 699 662 798 788 c 128,-1,5
 897 914 897 914 897 1104 c 0,6,7
 897 1226 897 1226 837 1294 c 128,-1,8
 777 1362 777 1362 670 1362 c 0,9,10
 526 1362 526 1362 428 1228 c 128,-1,11
 330 1094 330 1094 330 897 c 0,0,1
63 31 m 1,12,-1
 98 217 l 1,13,14
 156 180 156 180 224 160.5 c 128,-1,15
 292 141 292 141 367 141 c 0,16,17
 560 141 560 141 685.5 284.5 c 128,-1,18
 811 428 811 428 866 711 c 1,19,20
 798 609 798 609 704.5 556.5 c 128,-1,21
 611 504 611 504 498 504 c 0,22,23
 320 504 320 504 223.5 604 c 128,-1,24
 127 704 127 704 127 889 c 0,25,26
 127 1007 127 1007 167 1125.5 c 128,-1,27
 207 1244 207 1244 274 1327 c 0,28,29
 352 1423 352 1423 452 1471.5 c 128,-1,30
 552 1520 552 1520 674 1520 c 0,31,32
 877 1520 877 1520 988.5 1402.5 c 128,-1,33
 1100 1285 1100 1285 1100 1071 c 0,34,35
 1100 905 1100 905 1061 726 c 128,-1,36
 1022 547 1022 547 954 401 c 0,37,38
 856 187 856 187 703 79 c 128,-1,39
 550 -29 550 -29 342 -29 c 0,40,41
 267 -29 267 -29 197 -14 c 128,-1,42
 127 1 127 1 63 31 c 1,12,-1
EndSplineSet
EndChar

StartChar: colon
Encoding: 58 58 27
Width: 1233
Flags: W
LayerCount: 2
Fore
SplineSet
566 1119 m 1,0,-1
 878 1119 l 1,1,-1
 808 758 l 1,2,-1
 496 758 l 1,3,-1
 566 1119 l 1,0,-1
419 364 m 1,4,-1
 731 364 l 1,5,-1
 661 0 l 1,6,-1
 349 0 l 1,7,-1
 419 364 l 1,4,-1
EndSplineSet
EndChar

StartChar: semicolon
Encoding: 59 59 28
Width: 1233
Flags: W
LayerCount: 2
Fore
SplineSet
422 361 m 1,0,-1
 734 361 l 1,1,-1
 682 96 l 1,2,-1
 411 -286 l 1,3,-1
 197 -286 l 1,4,-1
 370 96 l 1,5,-1
 422 361 l 1,0,-1
556 1119 m 1,6,-1
 868 1119 l 1,7,-1
 798 758 l 1,8,-1
 486 758 l 1,9,-1
 556 1119 l 1,6,-1
EndSplineSet
EndChar

StartChar: less
Encoding: 60 60 29
Width: 1233
Flags: W
LayerCount: 2
Fore
SplineSet
1145 961 m 1,0,-1
 295 641 l 1,1,-1
 1145 324 l 1,2,-1
 1145 141 l 1,3,-1
 88 559 l 1,4,-1
 88 725 l 1,5,-1
 1145 1143 l 1,6,-1
 1145 961 l 1,0,-1
EndSplineSet
EndChar

StartChar: equal
Encoding: 61 61 30
Width: 1233
Flags: W
LayerCount: 2
Fore
SplineSet
88 524 m 1,0,-1
 1145 524 l 1,1,-1
 1145 352 l 1,2,-1
 88 352 l 1,3,-1
 88 524 l 1,0,-1
88 930 m 1,4,-1
 1145 930 l 1,5,-1
 1145 760 l 1,6,-1
 88 760 l 1,7,-1
 88 930 l 1,4,-1
88 550 m 1,8,-1
 1145 550 l 1,9,-1
 1145 381 l 1,10,-1
 88 381 l 1,11,-1
 88 550 l 1,8,-1
88 921 m 1,12,-1
 1145 921 l 1,13,-1
 1145 752 l 1,14,-1
 88 752 l 1,15,-1
 88 921 l 1,12,-1
EndSplineSet
EndChar

StartChar: greater
Encoding: 62 62 31
Width: 1233
Flags: W
LayerCount: 2
Fore
SplineSet
88 961 m 1,0,-1
 88 1143 l 1,1,-1
 1145 725 l 1,2,-1
 1145 559 l 1,3,-1
 88 141 l 1,4,-1
 88 324 l 1,5,-1
 938 641 l 1,6,-1
 88 961 l 1,0,-1
EndSplineSet
EndChar

StartChar: question
Encoding: 63 63 32
Width: 1233
Flags: W
LayerCount: 2
Fore
SplineSet
608 401 m 1,0,-1
 418 401 l 1,1,-1
 446 555 l 2,2,3
 465 646 465 646 503.5 711 c 128,-1,4
 542 776 542 776 655 870 c 2,5,-1
 762 961 l 2,6,7
 847 1033 847 1033 882.5 1088.5 c 128,-1,8
 918 1144 918 1144 918 1200 c 0,9,10
 918 1274 918 1274 862 1315 c 128,-1,11
 806 1356 806 1356 707 1356 c 0,12,13
 628 1356 628 1356 529.5 1320.5 c 128,-1,14
 431 1285 431 1285 326 1219 c 1,15,-1
 362 1407 l 1,16,17
 471 1464 471 1464 572 1492 c 128,-1,18
 673 1520 673 1520 774 1520 c 0,19,20
 927 1520 927 1520 1023.5 1438.5 c 128,-1,21
 1120 1357 1120 1357 1120 1231 c 0,22,23
 1120 1137 1120 1137 1071.5 1056.5 c 128,-1,24
 1023 976 1023 976 893 868 c 2,25,-1
 788 782 l 2,26,27
 704 712 704 712 674 661 c 128,-1,28
 644 610 644 610 629 524 c 2,29,-1
 608 401 l 1,0,-1
383 254 m 1,30,-1
 586 254 l 1,31,-1
 537 0 l 1,32,-1
 332 0 l 1,33,-1
 383 254 l 1,30,-1
EndSplineSet
EndChar

StartChar: at
Encoding: 64 64 33
Width: 1233
Flags: W
LayerCount: 2
Fore
SplineSet
990 545 m 0,0,1
 1016 674 1016 674 967 751.5 c 128,-1,2
 918 829 918 829 811 829 c 256,3,4
 704 829 704 829 624.5 751.5 c 128,-1,5
 545 674 545 674 519 545 c 0,6,7
 493 415 493 415 542 337.5 c 128,-1,8
 591 260 591 260 698 260 c 256,9,10
 805 260 805 260 884.5 337.5 c 128,-1,11
 964 415 964 415 990 545 c 0,0,1
1048 135 m 1,12,-1
 904 135 l 1,13,-1
 926 246 l 1,14,15
 877 183 877 183 804.5 149 c 128,-1,16
 732 115 732 115 650 115 c 0,17,18
 489 115 489 115 407.5 236 c 128,-1,19
 326 357 326 357 364 545 c 0,20,21
 401 733 401 733 530.5 854 c 128,-1,22
 660 975 660 975 821 975 c 0,23,24
 901 975 901 975 961 940 c 128,-1,25
 1021 905 1021 905 1045 844 c 1,26,-1
 1057 907 l 2,27,28
 1089 1063 1089 1063 1020 1158 c 128,-1,29
 951 1253 951 1253 806 1253 c 0,30,31
 560 1253 560 1253 376 1061.5 c 128,-1,32
 192 870 192 870 127 543 c 0,33,34
 62 214 62 214 188 19 c 128,-1,35
 314 -176 314 -176 600 -177 c 1,36,37
 653 -185 653 -185 751 -185 c 128,-1,38
 849 -185 849 -185 927 -181 c 1,39,-1
 898 -325 l 1,40,41
 832 -330 832 -330 729.5 -330.5 c 128,-1,42
 627 -331 627 -331 572 -322 c 1,43,44
 225 -319 225 -319 63 -86 c 128,-1,45
 -99 147 -99 147 -21 543 c 0,46,47
 56 933 56 933 290 1164 c 128,-1,48
 524 1395 524 1395 840 1395 c 0,49,50
 1049 1395 1049 1395 1147.5 1262 c 128,-1,51
 1246 1129 1246 1129 1201 905 c 2,52,-1
 1048 135 l 1,12,-1
EndSplineSet
EndChar

StartChar: A
Encoding: 65 65 34
Width: 1233
Flags: W
LayerCount: 2
Fore
SplineSet
735 1325 m 1,0,-1
 371 551 l 1,1,-1
 801 551 l 1,2,-1
 735 1325 l 1,0,-1
639 1493 m 1,3,-1
 885 1493 l 1,4,-1
 1051 0 l 1,5,-1
 850 0 l 1,6,-1
 815 389 l 1,7,-1
 295 389 l 1,8,-1
 111 0 l 1,9,-1
 -106 0 l 1,10,-1
 639 1493 l 1,3,-1
EndSplineSet
EndChar

StartChar: B
Encoding: 66 66 35
Width: 1233
Flags: W
LayerCount: 2
Fore
SplineSet
365 713 m 1,0,-1
 258 166 l 1,1,-1
 506 166 l 2,2,3
 690 166 690 166 787.5 253 c 128,-1,4
 885 340 885 340 885 504 c 0,5,6
 885 611 885 611 817 662 c 128,-1,7
 749 713 749 713 606 713 c 2,8,-1
 365 713 l 1,0,-1
483 1327 m 1,9,-1
 395 877 l 1,10,-1
 639 877 l 2,11,12
 790 877 790 877 876.5 949.5 c 128,-1,13
 963 1022 963 1022 963 1149 c 0,14,15
 963 1243 963 1243 907.5 1285 c 128,-1,16
 852 1327 852 1327 727 1327 c 2,17,-1
 483 1327 l 1,9,-1
313 1493 m 1,18,-1
 756 1493 l 2,19,20
 959 1493 959 1493 1063 1413.5 c 128,-1,21
 1167 1334 1167 1334 1167 1180 c 256,22,23
 1167 1026 1167 1026 1075 922.5 c 128,-1,24
 983 819 983 819 827 799 c 1,25,26
 952 776 952 776 1018.5 697 c 128,-1,27
 1085 618 1085 618 1085 494 c 0,28,29
 1085 260 1085 260 925.5 130 c 128,-1,30
 766 0 766 0 475 0 c 2,31,-1
 23 0 l 1,32,-1
 313 1493 l 1,18,-1
EndSplineSet
EndChar

StartChar: C
Encoding: 67 67 36
Width: 1233
Flags: W
LayerCount: 2
Fore
SplineSet
944 53 m 1,0,1
 860 12 860 12 774.5 -8.5 c 128,-1,2
 689 -29 689 -29 598 -29 c 0,3,4
 368 -29 368 -29 241.5 104 c 128,-1,5
 115 237 115 237 115 477 c 0,6,7
 115 697 115 697 185 913 c 128,-1,8
 255 1129 255 1129 369 1266 c 0,9,10
 476 1396 476 1396 605 1458 c 128,-1,11
 734 1520 734 1520 899 1520 c 0,12,13
 979 1520 979 1520 1058 1499 c 128,-1,14
 1137 1478 1137 1478 1212 1438 c 1,15,-1
 1171 1231 l 1,16,17
 1107 1294 1107 1294 1036 1325 c 128,-1,18
 965 1356 965 1356 885 1356 c 0,19,20
 790 1356 790 1356 709 1315.5 c 128,-1,21
 628 1275 628 1275 557 1192 c 0,22,23
 453 1069 453 1069 389.5 877 c 128,-1,24
 326 685 326 685 326 492 c 0,25,26
 326 319 326 319 404 227 c 128,-1,27
 482 135 482 135 629 135 c 0,28,29
 714 135 714 135 804.5 167 c 128,-1,30
 895 199 895 199 983 260 c 1,31,-1
 944 53 l 1,0,1
EndSplineSet
EndChar

StartChar: D
Encoding: 68 68 37
Width: 1233
Flags: W
LayerCount: 2
Fore
SplineSet
324 166 m 2,0,1
 509 166 509 166 621 228.5 c 128,-1,2
 733 291 733 291 801 432 c 0,3,4
 855 547 855 547 889.5 706.5 c 128,-1,5
 924 866 924 866 924 999 c 0,6,7
 924 1175 924 1175 842 1251 c 128,-1,8
 760 1327 760 1327 567 1327 c 2,9,-1
 453 1327 l 1,10,-1
 227 166 l 1,11,-1
 324 166 l 2,0,1
586 1493 m 2,12,13
 859 1493 859 1493 994.5 1369 c 128,-1,14
 1130 1245 1130 1245 1130 993 c 0,15,16
 1130 831 1130 831 1088 659 c 128,-1,17
 1046 487 1046 487 975 354 c 0,18,19
 871 163 871 163 715.5 81.5 c 128,-1,20
 560 0 560 0 295 0 c 2,21,-1
 -8 0 l 1,22,-1
 283 1493 l 1,23,-1
 586 1493 l 2,12,13
EndSplineSet
EndChar

StartChar: E
Encoding: 69 69 38
Width: 1233
Flags: W
LayerCount: 2
Fore
SplineSet
344 1493 m 1,0,-1
 1229 1493 l 1,1,-1
 1196 1323 l 1,2,-1
 512 1323 l 1,3,-1
 426 881 l 1,4,-1
 1079 881 l 1,5,-1
 1047 711 l 1,6,-1
 393 711 l 1,7,-1
 289 170 l 1,8,-1
 991 170 l 1,9,-1
 958 0 l 1,10,-1
 53 0 l 1,11,-1
 344 1493 l 1,0,-1
EndSplineSet
EndChar

StartChar: F
Encoding: 70 70 39
Width: 1233
Flags: W
LayerCount: 2
Fore
SplineSet
383 1493 m 1,0,-1
 1262 1493 l 1,1,-1
 1229 1323 l 1,2,-1
 553 1323 l 1,3,-1
 467 883 l 1,4,-1
 1079 883 l 1,5,-1
 1047 713 l 1,6,-1
 434 713 l 1,7,-1
 295 0 l 1,8,-1
 92 0 l 1,9,-1
 383 1493 l 1,0,-1
EndSplineSet
EndChar

StartChar: G
Encoding: 71 71 40
Width: 1233
Flags: W
LayerCount: 2
Fore
SplineSet
969 96 m 1,0,1
 882 34 882 34 779 2.5 c 128,-1,2
 676 -29 676 -29 559 -29 c 0,3,4
 327 -29 327 -29 202.5 105.5 c 128,-1,5
 78 240 78 240 78 489 c 0,6,7
 78 579 78 579 94.5 680.5 c 128,-1,8
 111 782 111 782 143 893 c 0,9,10
 178 1010 178 1010 225 1104.5 c 128,-1,11
 272 1199 272 1199 328 1266 c 0,12,13
 435 1396 435 1396 564.5 1458 c 128,-1,14
 694 1520 694 1520 860 1520 c 0,15,16
 940 1520 940 1520 1019.5 1499 c 128,-1,17
 1099 1478 1099 1478 1176 1438 c 1,18,-1
 1135 1231 l 1,19,20
 1070 1294 1070 1294 998.5 1325 c 128,-1,21
 927 1356 927 1356 846 1356 c 0,22,23
 748 1356 748 1356 662 1314.5 c 128,-1,24
 576 1273 576 1273 508 1192 c 0,25,26
 464 1140 464 1140 425 1062 c 128,-1,27
 386 984 386 984 356 887 c 0,28,29
 322 773 322 773 304.5 673 c 128,-1,30
 287 573 287 573 287 492 c 0,31,32
 287 321 287 321 366 228 c 128,-1,33
 445 135 445 135 590 135 c 0,34,35
 658 135 658 135 712 153.5 c 128,-1,36
 766 172 766 172 803 207 c 1,37,-1
 879 600 l 1,38,-1
 662 600 l 1,39,-1
 692 766 l 1,40,-1
 1102 766 l 1,41,-1
 969 96 l 1,0,1
EndSplineSet
EndChar

StartChar: H
Encoding: 72 72 41
Width: 1233
Flags: W
LayerCount: 2
Fore
SplineSet
283 1493 m 1,0,-1
 485 1493 l 1,1,-1
 367 881 l 1,2,-1
 920 881 l 1,3,-1
 1038 1493 l 1,4,-1
 1241 1493 l 1,5,-1
 950 0 l 1,6,-1
 748 0 l 1,7,-1
 887 711 l 1,8,-1
 332 711 l 1,9,-1
 195 0 l 1,10,-1
 -8 0 l 1,11,-1
 283 1493 l 1,0,-1
EndSplineSet
EndChar

StartChar: I
Encoding: 73 73 42
Width: 1233
Flags: W
LayerCount: 2
Fore
SplineSet
346 1493 m 1,0,-1
 1176 1493 l 1,1,-1
 1143 1323 l 1,2,-1
 829 1323 l 1,3,-1
 606 170 l 1,4,-1
 920 170 l 1,5,-1
 887 0 l 1,6,-1
 57 0 l 1,7,-1
 90 170 l 1,8,-1
 403 170 l 1,9,-1
 627 1323 l 1,10,-1
 313 1323 l 1,11,-1
 346 1493 l 1,0,-1
EndSplineSet
EndChar

StartChar: J
Encoding: 74 74 43
Width: 1233
Flags: W
LayerCount: 2
Fore
SplineSet
-25 61 m 1,0,-1
 20 297 l 1,1,2
 92 218 92 218 184 176.5 c 128,-1,3
 276 135 276 135 379 135 c 0,4,5
 521 135 521 135 591.5 208 c 128,-1,6
 662 281 662 281 702 487 c 2,7,-1
 866 1323 l 1,8,-1
 485 1323 l 1,9,-1
 518 1493 l 1,10,-1
 1102 1493 l 1,11,-1
 905 487 l 2,12,13
 849 198 849 198 729 84.5 c 128,-1,14
 609 -29 609 -29 371 -29 c 0,15,16
 274 -29 274 -29 174 -6 c 128,-1,17
 74 17 74 17 -25 61 c 1,0,-1
EndSplineSet
EndChar

StartChar: K
Encoding: 75 75 44
Width: 1233
Flags: W
LayerCount: 2
Fore
SplineSet
283 1493 m 1,0,-1
 485 1493 l 1,1,-1
 358 846 l 1,2,-1
 1100 1493 l 1,3,-1
 1354 1493 l 1,4,-1
 651 874 l 1,5,-1
 1079 0 l 1,6,-1
 860 0 l 1,7,-1
 500 741 l 1,8,-1
 307 573 l 1,9,-1
 195 0 l 1,10,-1
 -8 0 l 1,11,-1
 283 1493 l 1,0,-1
EndSplineSet
EndChar

StartChar: L
Encoding: 76 76 45
Width: 1233
Flags: W
LayerCount: 2
Fore
SplineSet
369 1493 m 1,0,-1
 571 1493 l 1,1,-1
 313 170 l 1,2,-1
 1034 170 l 1,3,-1
 1001 0 l 1,4,-1
 78 0 l 1,5,-1
 369 1493 l 1,0,-1
EndSplineSet
EndChar

StartChar: M
Encoding: 77 77 46
Width: 1233
Flags: W
LayerCount: 2
Fore
SplineSet
229 1493 m 1,0,-1
 498 1493 l 1,1,-1
 608 737 l 1,2,-1
 1022 1493 l 1,3,-1
 1292 1493 l 1,4,-1
 1001 0 l 1,5,-1
 815 0 l 1,6,-1
 1073 1327 l 1,7,-1
 639 532 l 1,8,-1
 498 532 l 1,9,-1
 383 1327 l 1,10,-1
 127 0 l 1,11,-1
 -59 0 l 1,12,-1
 229 1493 l 1,0,-1
EndSplineSet
EndChar

StartChar: N
Encoding: 78 78 47
Width: 1233
Flags: W
LayerCount: 2
Fore
SplineSet
285 1493 m 1,0,-1
 541 1493 l 1,1,-1
 805 264 l 1,2,-1
 1044 1493 l 1,3,-1
 1239 1493 l 1,4,-1
 948 0 l 1,5,-1
 692 0 l 1,6,-1
 428 1229 l 1,7,-1
 188 0 l 1,8,-1
 -6 0 l 1,9,-1
 285 1493 l 1,0,-1
EndSplineSet
EndChar

StartChar: O
Encoding: 79 79 48
Width: 1233
Flags: W
LayerCount: 2
Fore
SplineSet
502 135 m 0,0,1
 587 135 587 135 659 186 c 128,-1,2
 731 237 731 237 778 332 c 0,3,4
 852 477 852 477 898 683 c 128,-1,5
 944 889 944 889 944 1079 c 0,6,7
 944 1221 944 1221 891.5 1288.5 c 128,-1,8
 839 1356 839 1356 729 1356 c 0,9,10
 644 1356 644 1356 573 1305 c 128,-1,11
 502 1254 502 1254 455 1159 c 0,12,13
 379 1012 379 1012 333 808 c 128,-1,14
 287 604 287 604 287 414 c 0,15,16
 287 271 287 271 339.5 203 c 128,-1,17
 392 135 392 135 502 135 c 0,0,1
1151 1020 m 0,18,19
 1151 910 1151 910 1128.5 781 c 128,-1,20
 1106 652 1106 652 1063 516 c 0,21,22
 1034 424 1034 424 1000.5 351 c 128,-1,23
 967 278 967 278 928 219 c 0,24,25
 840 92 840 92 731 31.5 c 128,-1,26
 622 -29 622 -29 477 -29 c 0,27,28
 276 -29 276 -29 179 94 c 128,-1,29
 82 217 82 217 82 473 c 0,30,31
 82 584 82 584 103.5 711.5 c 128,-1,32
 125 839 125 839 168 975 c 0,33,34
 197 1067 197 1067 230.5 1140 c 128,-1,35
 264 1213 264 1213 303 1272 c 0,36,37
 391 1399 391 1399 500 1459.5 c 128,-1,38
 609 1520 609 1520 754 1520 c 0,39,40
 956 1520 956 1520 1053.5 1397.5 c 128,-1,41
 1151 1275 1151 1275 1151 1020 c 0,18,19
EndSplineSet
EndChar

StartChar: P
Encoding: 80 80 49
Width: 1233
Flags: W
LayerCount: 2
Fore
SplineSet
512 1327 m 1,0,-1
 403 766 l 1,1,-1
 637 766 l 2,2,3
 802 766 802 766 900.5 861.5 c 128,-1,4
 999 957 999 957 999 1116 c 0,5,6
 999 1224 999 1224 937 1275.5 c 128,-1,7
 875 1327 875 1327 745 1327 c 2,8,-1
 512 1327 l 1,0,-1
342 1493 m 1,9,-1
 782 1493 l 2,10,11
 988 1493 988 1493 1096 1401 c 128,-1,12
 1204 1309 1204 1309 1204 1135 c 0,13,14
 1204 886 1204 886 1044 743 c 128,-1,15
 884 600 884 600 604 600 c 2,16,-1
 371 600 l 1,17,-1
 254 0 l 1,18,-1
 51 0 l 1,19,-1
 342 1493 l 1,9,-1
EndSplineSet
EndChar

StartChar: Q
Encoding: 81 81 50
Width: 1233
Flags: W
LayerCount: 2
Fore
SplineSet
504 -27 m 1,0,-1
 494 -27 l 2,1,2
 279 -27 279 -27 180.5 92 c 128,-1,3
 82 211 82 211 82 473 c 0,4,5
 82 584 82 584 103.5 711.5 c 128,-1,6
 125 839 125 839 168 975 c 0,7,8
 197 1067 197 1067 230.5 1140 c 128,-1,9
 264 1213 264 1213 303 1272 c 0,10,11
 391 1399 391 1399 500 1459.5 c 128,-1,12
 609 1520 609 1520 754 1520 c 0,13,14
 956 1520 956 1520 1053.5 1397.5 c 128,-1,15
 1151 1275 1151 1275 1151 1020 c 0,16,17
 1151 937 1151 937 1136.5 838.5 c 128,-1,18
 1122 740 1122 740 1094 629 c 0,19,20
 1064 513 1064 513 1032 427 c 128,-1,21
 1000 341 1000 341 963 274 c 0,22,23
 909 179 909 179 839 111 c 128,-1,24
 769 43 769 43 690 10 c 1,25,-1
 844 -178 l 1,26,-1
 690 -270 l 1,27,-1
 504 -27 l 1,0,-1
502 135 m 0,28,29
 587 135 587 135 659 186 c 128,-1,30
 731 237 731 237 778 332 c 0,31,32
 852 477 852 477 898 683 c 128,-1,33
 944 889 944 889 944 1079 c 0,34,35
 944 1221 944 1221 891.5 1288.5 c 128,-1,36
 839 1356 839 1356 729 1356 c 0,37,38
 644 1356 644 1356 573 1305 c 128,-1,39
 502 1254 502 1254 455 1159 c 0,40,41
 379 1012 379 1012 333 808 c 128,-1,42
 287 604 287 604 287 414 c 0,43,44
 287 271 287 271 339.5 203 c 128,-1,45
 392 135 392 135 502 135 c 0,28,29
EndSplineSet
EndChar

StartChar: R
Encoding: 82 82 51
Width: 1233
Flags: W
LayerCount: 2
Fore
SplineSet
766 705 m 1,0,1
 838 691 838 691 881.5 638 c 128,-1,2
 925 585 925 585 979 408 c 2,3,-1
 1100 0 l 1,4,-1
 899 0 l 1,5,-1
 793 377 l 2,6,7
 749 533 749 533 694.5 582 c 128,-1,8
 640 631 640 631 530 631 c 2,9,-1
 338 631 l 1,10,-1
 215 0 l 1,11,-1
 12 0 l 1,12,-1
 301 1493 l 1,13,-1
 717 1493 l 2,14,15
 924 1493 924 1493 1037.5 1403.5 c 128,-1,16
 1151 1314 1151 1314 1151 1151 c 0,17,18
 1151 968 1151 968 1047.5 848 c 128,-1,19
 944 728 944 728 766 705 c 1,0,1
473 1327 m 1,20,-1
 371 797 l 1,21,-1
 590 797 l 2,22,23
 753 797 753 797 850.5 882.5 c 128,-1,24
 948 968 948 968 948 1110 c 0,25,26
 948 1222 948 1222 885 1274.5 c 128,-1,27
 822 1327 822 1327 686 1327 c 2,28,-1
 473 1327 l 1,20,-1
EndSplineSet
EndChar

StartChar: S
Encoding: 83 83 52
Width: 1233
Flags: W
LayerCount: 2
Fore
SplineSet
1147 1442 m 1,0,-1
 1108 1237 l 1,1,2
 1027 1296 1027 1296 940 1326 c 128,-1,3
 853 1356 853 1356 760 1356 c 0,4,5
 595 1356 595 1356 491 1274 c 128,-1,6
 387 1192 387 1192 387 1065 c 0,7,8
 387 994 387 994 436 950 c 128,-1,9
 485 906 485 906 614 866 c 2,10,-1
 735 827 l 2,11,12
 898 777 898 777 973.5 693.5 c 128,-1,13
 1049 610 1049 610 1049 481 c 0,14,15
 1049 246 1049 246 883 108.5 c 128,-1,16
 717 -29 717 -29 430 -29 c 0,17,18
 326 -29 326 -29 225.5 -6.5 c 128,-1,19
 125 16 125 16 25 61 c 1,20,-1
 66 270 l 1,21,22
 164 201 164 201 264.5 168 c 128,-1,23
 365 135 365 135 477 135 c 0,24,25
 642 135 642 135 745 223 c 128,-1,26
 848 311 848 311 848 446 c 0,27,28
 848 528 848 528 804 573 c 128,-1,29
 760 618 760 618 627 659 c 2,30,-1
 526 692 l 2,31,32
 342 750 342 750 268.5 823.5 c 128,-1,33
 195 897 195 897 195 1018 c 0,34,35
 195 1239 195 1239 360 1379.5 c 128,-1,36
 525 1520 525 1520 791 1520 c 0,37,38
 871 1520 871 1520 961.5 1500 c 128,-1,39
 1052 1480 1052 1480 1147 1442 c 1,0,-1
EndSplineSet
EndChar

StartChar: T
Encoding: 84 84 53
Width: 1233
Flags: W
LayerCount: 2
Fore
SplineSet
193 1493 m 1,0,-1
 1333 1493 l 1,1,-1
 1300 1323 l 1,2,-1
 831 1323 l 1,3,-1
 575 0 l 1,4,-1
 371 0 l 1,5,-1
 629 1323 l 1,6,-1
 160 1323 l 1,7,-1
 193 1493 l 1,0,-1
EndSplineSet
EndChar

StartChar: U
Encoding: 85 85 54
Width: 1233
Flags: W
LayerCount: 2
Fore
SplineSet
115 573 m 2,0,-1
 293 1493 l 1,1,-1
 496 1493 l 1,2,-1
 317 573 l 2,3,4
 315 560 315 560 309 532 c 0,5,6
 279 378 279 378 279 319 c 0,7,8
 279 227 279 227 333.5 181 c 128,-1,9
 388 135 388 135 498 135 c 0,10,11
 587 135 587 135 649 163.5 c 128,-1,12
 711 192 711 192 756 254 c 0,13,14
 778 285 778 285 800.5 360.5 c 128,-1,15
 823 436 823 436 850 573 c 2,16,-1
 1028 1493 l 1,17,-1
 1231 1493 l 1,18,-1
 1053 573 l 2,19,20
 1011 354 1011 354 963.5 251.5 c 128,-1,21
 916 149 916 149 838 86 c 0,22,23
 767 30 767 30 676 0.5 c 128,-1,24
 585 -29 585 -29 479 -29 c 0,25,26
 287 -29 287 -29 183.5 61 c 128,-1,27
 80 151 80 151 80 317 c 0,28,29
 80 354 80 354 88.5 417 c 128,-1,30
 97 480 97 480 115 573 c 2,0,-1
EndSplineSet
EndChar

StartChar: V
Encoding: 86 86 55
Width: 1233
Flags: W
LayerCount: 2
Fore
SplineSet
510 190 m 1,0,-1
 1108 1493 l 1,1,-1
 1323 1493 l 1,2,-1
 604 0 l 1,3,-1
 346 0 l 1,4,-1
 199 1493 l 1,5,-1
 397 1493 l 1,6,-1
 510 190 l 1,0,-1
EndSplineSet
EndChar

StartChar: W
Encoding: 87 87 56
Width: 1233
Flags: W
LayerCount: 2
Fore
SplineSet
145 1493 m 1,0,-1
 336 1493 l 1,1,-1
 246 283 l 1,2,-1
 575 1083 l 1,3,-1
 786 1083 l 1,4,-1
 801 281 l 1,5,-1
 1178 1493 l 1,6,-1
 1376 1493 l 1,7,-1
 866 0 l 1,8,-1
 672 0 l 1,9,-1
 641 870 l 1,10,-1
 270 0 l 1,11,-1
 82 0 l 1,12,-1
 145 1493 l 1,0,-1
EndSplineSet
EndChar

StartChar: X
Encoding: 88 88 57
Width: 1233
Flags: W
LayerCount: 2
Fore
SplineSet
242 1493 m 1,0,-1
 442 1493 l 1,1,-1
 666 961 l 1,2,-1
 1106 1493 l 1,3,-1
 1337 1493 l 1,4,-1
 741 774 l 1,5,-1
 1065 0 l 1,6,-1
 864 0 l 1,7,-1
 610 612 l 1,8,-1
 104 0 l 1,9,-1
 -127 0 l 1,10,-1
 530 797 l 1,11,-1
 242 1493 l 1,0,-1
EndSplineSet
EndChar

StartChar: Y
Encoding: 89 89 58
Width: 1233
Flags: W
LayerCount: 2
Fore
SplineSet
195 1493 m 1,0,-1
 397 1493 l 1,1,-1
 633 842 l 1,2,-1
 1130 1493 l 1,3,-1
 1348 1493 l 1,4,-1
 713 670 l 1,5,-1
 584 0 l 1,6,-1
 377 0 l 1,7,-1
 508 670 l 1,8,-1
 195 1493 l 1,0,-1
EndSplineSet
EndChar

StartChar: Z
Encoding: 90 90 59
Width: 1233
Flags: W
LayerCount: 2
Fore
SplineSet
305 1493 m 1,0,-1
 1274 1493 l 1,1,-1
 1245 1339 l 1,2,-1
 266 170 l 1,3,-1
 1040 170 l 1,4,-1
 1006 0 l 1,5,-1
 -6 0 l 1,6,-1
 23 154 l 1,7,-1
 999 1323 l 1,8,-1
 272 1323 l 1,9,-1
 305 1493 l 1,0,-1
EndSplineSet
EndChar

StartChar: bracketleft
Encoding: 91 91 60
Width: 1233
Flags: W
LayerCount: 2
Fore
SplineSet
681 1456 m 1,0,-1
 1104 1456 l 1,1,-1
 1076 1313 l 1,2,-1
 836 1313 l 1,3,-1
 537 -227 l 1,4,-1
 777 -227 l 1,5,-1
 750 -370 l 1,6,-1
 324 -370 l 1,7,-1
 681 1456 l 1,0,-1
EndSplineSet
EndChar

StartChar: backslash
Encoding: 92 92 61
Width: 1233
Flags: W
LayerCount: 2
Fore
SplineSet
725 -190 m 1,0,-1
 555 -190 l 1,1,-1
 356 1493 l 1,2,-1
 526 1493 l 1,3,-1
 725 -190 l 1,0,-1
EndSplineSet
EndChar

StartChar: bracketright
Encoding: 93 93 62
Width: 1233
Flags: W
LayerCount: 2
Fore
SplineSet
978 1456 m 1,0,-1
 621 -370 l 1,1,-1
 197 -370 l 1,2,-1
 226 -227 l 1,3,-1
 466 -227 l 1,4,-1
 765 1313 l 1,5,-1
 525 1313 l 1,6,-1
 554 1456 l 1,7,-1
 978 1456 l 1,0,-1
EndSplineSet
EndChar

StartChar: asciicircum
Encoding: 94 94 63
Width: 1233
Flags: W
LayerCount: 2
Fore
SplineSet
705 1493 m 1,0,-1
 1161 936 l 1,1,-1
 983 936 l 1,2,-1
 616 1331 l 1,3,-1
 250 936 l 1,4,-1
 72 936 l 1,5,-1
 528 1493 l 1,6,-1
 705 1493 l 1,0,-1
EndSplineSet
EndChar

StartChar: underscore
Encoding: 95 95 64
Width: 1233
Flags: W
LayerCount: 2
Fore
SplineSet
1224 -190 m 1,0,-1
 1224 -360 l 1,1,-1
 0 -360 l 1,2,-1
 0 -190 l 1,3,-1
 1224 -190 l 1,0,-1
EndSplineSet
EndChar

StartChar: grave
Encoding: 96 96 65
Width: 1233
Flags: W
LayerCount: 2
Fore
SplineSet
651 1638 m 1,0,-1
 848 1262 l 1,1,-1
 705 1262 l 1,2,-1
 453 1638 l 1,3,-1
 651 1638 l 1,0,-1
EndSplineSet
EndChar

StartChar: a
Encoding: 97 97 66
Width: 1233
Flags: W
LayerCount: 2
Fore
SplineSet
692 563 m 2,0,1
 573 563 573 563 515 555.5 c 128,-1,2
 457 548 457 548 414 530 c 0,3,4
 346 503 346 503 305 441.5 c 128,-1,5
 264 380 264 380 264 307 c 0,6,7
 264 224 264 224 315.5 174.5 c 128,-1,8
 367 125 367 125 455 125 c 0,9,10
 603 125 603 125 710.5 231 c 128,-1,11
 818 337 818 337 856 522 c 2,12,-1
 864 563 l 1,13,-1
 692 563 l 2,0,1
1063 639 m 2,14,-1
 938 0 l 1,15,-1
 754 0 l 1,16,-1
 786 166 l 1,17,18
 714 72 714 72 616 21.5 c 128,-1,19
 518 -29 518 -29 408 -29 c 0,20,21
 255 -29 255 -29 163.5 54.5 c 128,-1,22
 72 138 72 138 72 276 c 0,23,24
 72 472 72 472 226.5 589.5 c 128,-1,25
 381 707 381 707 645 707 c 2,26,-1
 891 707 l 1,27,-1
 903 768 l 2,28,29
 905 777 905 777 906 787 c 128,-1,30
 907 797 907 797 907 815 c 0,31,32
 907 900 907 900 844 945.5 c 128,-1,33
 781 991 781 991 664 991 c 0,34,35
 578 991 578 991 478.5 965.5 c 128,-1,36
 379 940 379 940 268 889 c 1,37,-1
 303 1069 l 1,38,39
 411 1108 411 1108 508 1127.5 c 128,-1,40
 605 1147 605 1147 694 1147 c 0,41,42
 880 1147 880 1147 983.5 1065 c 128,-1,43
 1087 983 1087 983 1087 838 c 0,44,45
 1087 806 1087 806 1081 754 c 128,-1,46
 1075 702 1075 702 1063 639 c 2,14,-1
EndSplineSet
EndChar

StartChar: b
Encoding: 98 98 67
Width: 1233
Flags: W
LayerCount: 2
Fore
SplineSet
539 127 m 0,0,1
 623 127 623 127 691 172 c 128,-1,2
 759 217 759 217 805 303 c 0,3,4
 854 397 854 397 882.5 513 c 128,-1,5
 911 629 911 629 911 737 c 0,6,7
 911 865 911 865 860.5 929 c 128,-1,8
 810 993 810 993 709 993 c 0,9,10
 626 993 626 993 557.5 947 c 128,-1,11
 489 901 489 901 438 813 c 0,12,13
 390 727 390 727 361 610.5 c 128,-1,14
 332 494 332 494 332 383 c 0,15,16
 332 260 332 260 385.5 193.5 c 128,-1,17
 439 127 439 127 539 127 c 0,0,1
434 977 m 1,18,19
 496 1061 496 1061 578 1104 c 128,-1,20
 660 1147 660 1147 762 1147 c 0,21,22
 926 1147 926 1147 1017 1043.5 c 128,-1,23
 1108 940 1108 940 1108 754 c 0,24,25
 1108 609 1108 609 1067 465 c 128,-1,26
 1026 321 1026 321 954 213 c 0,27,28
 878 98 878 98 768.5 34.5 c 128,-1,29
 659 -29 659 -29 535 -29 c 0,30,31
 437 -29 437 -29 370.5 14 c 128,-1,32
 304 57 304 57 270 141 c 1,33,-1
 244 0 l 1,34,-1
 59 0 l 1,35,-1
 362 1556 l 1,36,-1
 547 1556 l 1,37,-1
 434 977 l 1,18,19
EndSplineSet
EndChar

StartChar: c
Encoding: 99 99 68
Width: 1233
Flags: W
LayerCount: 2
Fore
SplineSet
940 51 m 1,0,1
 867 12 867 12 783.5 -8.5 c 128,-1,2
 700 -29 700 -29 610 -29 c 0,3,4
 386 -29 386 -29 271 83.5 c 128,-1,5
 156 196 156 196 156 416 c 0,6,7
 156 565 156 565 209.5 708.5 c 128,-1,8
 263 852 263 852 354 950 c 0,9,10
 447 1049 447 1049 558.5 1098 c 128,-1,11
 670 1147 670 1147 803 1147 c 0,12,13
 892 1147 892 1147 975 1125.5 c 128,-1,14
 1058 1104 1058 1104 1137 1061 c 1,15,-1
 1100 879 l 1,16,17
 1034 937 1034 937 964 964 c 128,-1,18
 894 991 894 991 809 991 c 0,19,20
 699 991 699 991 614 946.5 c 128,-1,21
 529 902 529 902 469 813 c 0,22,23
 413 731 413 731 381.5 625.5 c 128,-1,24
 350 520 350 520 350 416 c 0,25,26
 350 272 350 272 418.5 199.5 c 128,-1,27
 487 127 487 127 623 127 c 0,28,29
 719 127 719 127 807.5 158 c 128,-1,30
 896 189 896 189 979 252 c 1,31,-1
 940 51 l 1,0,1
EndSplineSet
EndChar

StartChar: d
Encoding: 100 100 69
Width: 1233
Flags: W
LayerCount: 2
Fore
SplineSet
686 991 m 0,0,1
 598 991 598 991 531 947.5 c 128,-1,2
 464 904 464 904 418 817 c 0,3,4
 369 727 369 727 342 612.5 c 128,-1,5
 315 498 315 498 315 383 c 0,6,7
 315 255 315 255 366 191 c 128,-1,8
 417 127 417 127 518 127 c 0,9,10
 603 127 603 127 671.5 172 c 128,-1,11
 740 217 740 217 788 305 c 0,12,13
 837 392 837 392 865 507.5 c 128,-1,14
 893 623 893 623 893 737 c 0,15,16
 893 857 893 857 838.5 924 c 128,-1,17
 784 991 784 991 686 991 c 0,0,1
954 977 m 1,18,-1
 1069 1556 l 1,19,-1
 1253 1556 l 1,20,-1
 950 0 l 1,21,-1
 766 0 l 1,22,-1
 793 141 l 1,23,24
 728 57 728 57 645.5 14 c 128,-1,25
 563 -29 563 -29 463 -29 c 0,26,27
 300 -29 300 -29 209.5 76 c 128,-1,28
 119 181 119 181 119 369 c 0,29,30
 119 512 119 512 159 656.5 c 128,-1,31
 199 801 199 801 268 909 c 0,32,33
 343 1027 343 1027 444.5 1087 c 128,-1,34
 546 1147 546 1147 670 1147 c 0,35,36
 767 1147 767 1147 840 1103.5 c 128,-1,37
 913 1060 913 1060 954 977 c 1,18,-1
EndSplineSet
EndChar

StartChar: e
Encoding: 101 101 70
Width: 1233
Flags: W
LayerCount: 2
Fore
SplineSet
938 659 m 1,0,1
 944 686 944 686 946 703.5 c 128,-1,2
 948 721 948 721 948 737 c 0,3,4
 948 857 948 857 883 924 c 128,-1,5
 818 991 818 991 702 991 c 0,6,7
 579 991 579 991 477.5 901 c 128,-1,8
 376 811 376 811 332 659 c 1,9,-1
 938 659 l 1,0,1
961 57 m 1,10,11
 856 14 856 14 756 -7.5 c 128,-1,12
 656 -29 656 -29 553 -29 c 0,13,14
 330 -29 330 -29 214 82.5 c 128,-1,15
 98 194 98 194 98 408 c 0,16,17
 98 564 98 564 158 714 c 128,-1,18
 218 864 218 864 324 973 c 0,19,20
 407 1059 407 1059 507.5 1104 c 128,-1,21
 608 1149 608 1149 717 1149 c 0,22,23
 903 1149 903 1149 1014.5 1034.5 c 128,-1,24
 1126 920 1126 920 1126 729 c 0,25,26
 1126 695 1126 695 1121 644.5 c 128,-1,27
 1116 594 1116 594 1104 516 c 1,28,-1
 297 516 l 1,29,30
 291 484 291 484 288 458 c 128,-1,31
 285 432 285 432 285 412 c 0,32,33
 285 273 285 273 362 200 c 128,-1,34
 439 127 439 127 586 127 c 0,35,36
 674 127 674 127 778.5 155.5 c 128,-1,37
 883 184 883 184 997 240 c 1,38,-1
 961 57 l 1,10,11
EndSplineSet
EndChar

StartChar: f
Encoding: 102 102 71
Width: 1233
Flags: W
LayerCount: 2
Fore
SplineSet
1245 1556 m 1,0,-1
 1214 1403 l 1,1,-1
 1006 1403 l 2,2,3
 911 1403 911 1403 863 1361.5 c 128,-1,4
 815 1320 815 1320 795 1219 c 2,5,-1
 774 1120 l 1,6,-1
 1159 1120 l 1,7,-1
 1133 977 l 1,8,-1
 748 977 l 1,9,-1
 557 0 l 1,10,-1
 373 0 l 1,11,-1
 563 977 l 1,12,-1
 264 977 l 1,13,-1
 293 1120 l 1,14,-1
 590 1120 l 1,15,-1
 606 1198 l 2,16,17
 644 1391 644 1391 740.5 1473.5 c 128,-1,18
 837 1556 837 1556 1024 1556 c 2,19,-1
 1245 1556 l 1,0,-1
EndSplineSet
EndChar

StartChar: g
Encoding: 103 103 72
Width: 1233
Flags: W
LayerCount: 2
Fore
SplineSet
512 145 m 0,0,1
 591 145 591 145 657.5 190 c 128,-1,2
 724 235 724 235 770 319 c 0,3,4
 819 409 819 409 846.5 521 c 128,-1,5
 874 633 874 633 874 739 c 0,6,7
 874 858 874 858 818 924.5 c 128,-1,8
 762 991 762 991 662 991 c 0,9,10
 508 991 508 991 402.5 822.5 c 128,-1,11
 297 654 297 654 297 399 c 0,12,13
 297 280 297 280 354 212.5 c 128,-1,14
 411 145 411 145 512 145 c 0,0,1
942 72 m 2,15,16
 889 -199 889 -199 755.5 -319.5 c 128,-1,17
 622 -440 622 -440 375 -440 c 0,18,19
 293 -440 293 -440 213.5 -426 c 128,-1,20
 134 -412 134 -412 59 -385 c 1,21,-1
 96 -203 l 1,22,23
 169 -247 169 -247 247.5 -270 c 128,-1,24
 326 -293 326 -293 406 -293 c 0,25,26
 555 -293 555 -293 637 -213 c 128,-1,27
 719 -133 719 -133 756 53 c 2,28,-1
 780 170 l 1,29,30
 722 83 722 83 635 37.5 c 128,-1,31
 548 -8 548 -8 438 -8 c 0,32,33
 284 -8 284 -8 193 99.5 c 128,-1,34
 102 207 102 207 102 391 c 0,35,36
 102 530 102 530 142 667.5 c 128,-1,37
 182 805 182 805 254 911 c 0,38,39
 328 1023 328 1023 432 1085 c 128,-1,40
 536 1147 536 1147 647 1147 c 0,41,42
 748 1147 748 1147 824 1098.5 c 128,-1,43
 900 1050 900 1050 934 965 c 1,44,-1
 961 1116 l 1,45,-1
 1145 1116 l 1,46,-1
 942 72 l 2,15,16
EndSplineSet
EndChar

StartChar: h
Encoding: 104 104 73
Width: 1233
Flags: W
LayerCount: 2
Fore
SplineSet
1075 694 m 2,0,-1
 940 0 l 1,1,-1
 756 0 l 1,2,-1
 891 695 l 2,3,4
 892 699 892 699 894 709 c 0,5,6
 909 780 909 780 909 819 c 0,7,8
 909 900 909 900 862.5 943.5 c 128,-1,9
 816 987 816 987 729 987 c 0,10,11
 602 987 602 987 513 894 c 128,-1,12
 424 801 424 801 391 633 c 2,13,-1
 268 0 l 1,14,-1
 84 0 l 1,15,-1
 387 1556 l 1,16,-1
 571 1556 l 1,17,-1
 455 952 l 1,18,19
 530 1049 530 1049 617.5 1098 c 128,-1,20
 705 1147 705 1147 803 1147 c 0,21,22
 942 1147 942 1147 1019 1074.5 c 128,-1,23
 1096 1002 1096 1002 1096 872 c 0,24,25
 1096 840 1096 840 1090.5 793 c 128,-1,26
 1085 746 1085 746 1075 694 c 2,0,-1
EndSplineSet
EndChar

StartChar: i
Encoding: 105 105 74
Width: 1233
Flags: W
LayerCount: 2
Fore
SplineSet
358 1120 m 1,0,-1
 829 1120 l 1,1,-1
 639 143 l 1,2,-1
 1004 143 l 1,3,-1
 975 0 l 1,4,-1
 61 0 l 1,5,-1
 90 143 l 1,6,-1
 455 143 l 1,7,-1
 616 977 l 1,8,-1
 330 977 l 1,9,-1
 358 1120 l 1,0,-1
729 1556 m 1,10,-1
 913 1556 l 1,11,-1
 868 1323 l 1,12,-1
 684 1323 l 1,13,-1
 729 1556 l 1,10,-1
EndSplineSet
EndChar

StartChar: j
Encoding: 106 106 75
Width: 1233
Flags: W
LayerCount: 2
Fore
SplineSet
498 -20 m 2,0,-1
 690 977 l 1,1,-1
 373 977 l 1,2,-1
 401 1120 l 1,3,-1
 903 1120 l 1,4,-1
 682 -20 l 2,5,6
 641 -233 641 -233 540 -329.5 c 128,-1,7
 439 -426 439 -426 258 -426 c 2,8,-1
 4 -426 l 1,9,-1
 35 -270 l 1,10,-1
 268 -270 l 2,11,12
 363 -270 363 -270 418 -210.5 c 128,-1,13
 473 -151 473 -151 498 -20 c 2,0,-1
803 1556 m 1,14,-1
 987 1556 l 1,15,-1
 942 1323 l 1,16,-1
 758 1323 l 1,17,-1
 803 1556 l 1,14,-1
EndSplineSet
EndChar

StartChar: k
Encoding: 107 107 76
Width: 1233
Flags: W
LayerCount: 2
Fore
SplineSet
393 1556 m 1,0,-1
 584 1556 l 1,1,-1
 414 682 l 1,2,-1
 963 1120 l 1,3,-1
 1204 1120 l 1,4,-1
 684 698 l 1,5,-1
 1057 0 l 1,6,-1
 844 0 l 1,7,-1
 537 582 l 1,8,-1
 369 449 l 1,9,-1
 281 0 l 1,10,-1
 90 0 l 1,11,-1
 393 1556 l 1,0,-1
EndSplineSet
EndChar

StartChar: l
Encoding: 108 108 77
Width: 1233
Flags: W
LayerCount: 2
Fore
SplineSet
600 408 m 2,0,1
 593 373 593 373 589.5 346 c 128,-1,2
 586 319 586 319 586 301 c 0,3,4
 586 228 586 228 630.5 192 c 128,-1,5
 675 156 675 156 766 156 c 2,6,-1
 977 156 l 1,7,-1
 946 0 l 1,8,-1
 739 0 l 2,9,10
 566 0 566 0 481.5 63.5 c 128,-1,11
 397 127 397 127 397 258 c 0,12,13
 397 286 397 286 402 326 c 128,-1,14
 407 366 407 366 416 412 c 2,15,-1
 627 1423 l 1,16,-1
 311 1423 l 1,17,-1
 340 1567 l 1,18,-1
 840 1567 l 1,19,-1
 600 408 l 2,0,1
EndSplineSet
EndChar

StartChar: m
Encoding: 109 109 78
Width: 1233
Flags: W
LayerCount: 2
Fore
SplineSet
748 1006 m 1,0,1
 787 1074 787 1074 849.5 1110.5 c 128,-1,2
 912 1147 912 1147 989 1147 c 0,3,4
 1075 1147 1075 1147 1126.5 1092.5 c 128,-1,5
 1178 1038 1178 1038 1178 946 c 0,6,7
 1178 892 1178 892 1169 824 c 128,-1,8
 1160 756 1160 756 1139 649 c 2,9,-1
 1012 0 l 1,10,-1
 844 0 l 1,11,-1
 969 641 l 2,12,13
 987 733 987 733 996.5 791.5 c 128,-1,14
 1006 850 1006 850 1006 874 c 0,15,16
 1006 937 1006 937 983 965 c 128,-1,17
 960 993 960 993 909 993 c 0,18,19
 834 993 834 993 792 928.5 c 128,-1,20
 750 864 750 864 707 641 c 2,21,-1
 582 0 l 1,22,-1
 414 0 l 1,23,-1
 539 641 l 2,24,25
 558 738 558 738 566.5 794.5 c 128,-1,26
 575 851 575 851 575 874 c 0,27,28
 575 935 575 935 551.5 964 c 128,-1,29
 528 993 528 993 479 993 c 0,30,31
 405 993 405 993 364.5 933.5 c 128,-1,32
 324 874 324 874 279 641 c 2,33,-1
 154 0 l 1,34,-1
 -14 0 l 1,35,-1
 203 1120 l 1,36,-1
 371 1120 l 1,37,-1
 352 1024 l 1,38,39
 396 1084 396 1084 451.5 1115.5 c 128,-1,40
 507 1147 507 1147 571 1147 c 0,41,42
 646 1147 646 1147 692 1109.5 c 128,-1,43
 738 1072 738 1072 748 1006 c 1,0,1
EndSplineSet
EndChar

StartChar: n
Encoding: 110 110 79
Width: 1233
Flags: W
LayerCount: 2
Fore
SplineSet
1075 694 m 2,0,-1
 940 0 l 1,1,-1
 756 0 l 1,2,-1
 891 695 l 2,3,4
 892 699 892 699 894 709 c 0,5,6
 909 780 909 780 909 819 c 0,7,8
 909 900 909 900 862.5 943.5 c 128,-1,9
 816 987 816 987 729 987 c 0,10,11
 602 987 602 987 513 894 c 128,-1,12
 424 801 424 801 391 633 c 2,13,-1
 268 0 l 1,14,-1
 84 0 l 1,15,-1
 303 1120 l 1,16,-1
 487 1120 l 1,17,-1
 455 952 l 1,18,19
 530 1049 530 1049 617.5 1098 c 128,-1,20
 705 1147 705 1147 803 1147 c 0,21,22
 942 1147 942 1147 1019 1074.5 c 128,-1,23
 1096 1002 1096 1002 1096 872 c 0,24,25
 1096 840 1096 840 1090.5 793 c 128,-1,26
 1085 746 1085 746 1075 694 c 2,0,-1
EndSplineSet
EndChar

StartChar: o
Encoding: 111 111 80
Width: 1233
Flags: W
LayerCount: 2
Fore
SplineSet
696 991 m 0,0,1
 532 991 532 991 422.5 820 c 128,-1,2
 313 649 313 649 313 385 c 0,3,4
 313 256 313 256 369 191.5 c 128,-1,5
 425 127 425 127 537 127 c 0,6,7
 701 127 701 127 810.5 298 c 128,-1,8
 920 469 920 469 920 733 c 0,9,10
 920 862 920 862 864 926.5 c 128,-1,11
 808 991 808 991 696 991 c 0,0,1
713 1147 m 0,12,13
 909 1147 909 1147 1011.5 1040 c 128,-1,14
 1114 933 1114 933 1114 727 c 0,15,16
 1114 589 1114 589 1073 452.5 c 128,-1,17
 1032 316 1032 316 958 207 c 0,18,19
 879 89 879 89 766 30 c 128,-1,20
 653 -29 653 -29 506 -29 c 0,21,22
 319 -29 319 -29 218 80.5 c 128,-1,23
 117 190 117 190 117 393 c 0,24,25
 117 528 117 528 158 663 c 128,-1,26
 199 798 199 798 274 911 c 0,27,28
 353 1027 353 1027 464.5 1087 c 128,-1,29
 576 1147 576 1147 713 1147 c 0,12,13
EndSplineSet
EndChar

StartChar: p
Encoding: 112 112 81
Width: 1233
Flags: W
LayerCount: 2
Fore
SplineSet
293 141 m 1,0,-1
 182 -426 l 1,1,-1
 -2 -426 l 1,2,-1
 299 1120 l 1,3,-1
 483 1120 l 1,4,-1
 455 977 l 1,5,6
 516 1059 516 1059 602 1103 c 128,-1,7
 688 1147 688 1147 788 1147 c 0,8,9
 950 1147 950 1147 1039 1043 c 128,-1,10
 1128 939 1128 939 1128 752 c 0,11,12
 1128 609 1128 609 1088.5 465 c 128,-1,13
 1049 321 1049 321 979 211 c 0,14,15
 904 93 904 93 802 32 c 128,-1,16
 700 -29 700 -29 578 -29 c 0,17,18
 478 -29 478 -29 407.5 13 c 128,-1,19
 337 55 337 55 293 141 c 1,0,-1
569 127 m 0,20,21
 650 127 650 127 717 171.5 c 128,-1,22
 784 216 784 216 829 301 c 0,23,24
 878 393 878 393 906 508.5 c 128,-1,25
 934 624 934 624 934 737 c 0,26,27
 934 864 934 864 882.5 927.5 c 128,-1,28
 831 991 831 991 729 991 c 0,29,30
 644 991 644 991 575.5 946 c 128,-1,31
 507 901 507 901 459 813 c 0,32,33
 410 725 410 725 382 611 c 128,-1,34
 354 497 354 497 354 383 c 0,35,36
 354 260 354 260 410 193.5 c 128,-1,37
 466 127 466 127 569 127 c 0,20,21
EndSplineSet
EndChar

StartChar: q
Encoding: 113 113 82
Width: 1233
Flags: W
LayerCount: 2
Fore
SplineSet
774 141 m 1,0,1
 713 57 713 57 630.5 14 c 128,-1,2
 548 -29 548 -29 446 -29 c 0,3,4
 282 -29 282 -29 190 74.5 c 128,-1,5
 98 178 98 178 98 365 c 0,6,7
 98 507 98 507 139 652 c 128,-1,8
 180 797 180 797 252 909 c 0,9,10
 327 1027 327 1027 431.5 1087 c 128,-1,11
 536 1147 536 1147 666 1147 c 0,12,13
 766 1147 766 1147 833.5 1104.5 c 128,-1,14
 901 1062 901 1062 936 977 c 1,15,-1
 963 1120 l 1,16,-1
 1147 1120 l 1,17,-1
 848 -426 l 1,18,-1
 664 -426 l 1,19,-1
 774 141 l 1,0,1
668 991 m 0,20,21
 583 991 583 991 515 947 c 128,-1,22
 447 903 447 903 401 817 c 0,23,24
 352 723 352 723 323.5 607 c 128,-1,25
 295 491 295 491 295 383 c 0,26,27
 295 255 295 255 345.5 191 c 128,-1,28
 396 127 396 127 498 127 c 0,29,30
 580 127 580 127 649 172.5 c 128,-1,31
 718 218 718 218 768 305 c 0,32,33
 816 390 816 390 845 507.5 c 128,-1,34
 874 625 874 625 874 737 c 0,35,36
 874 860 874 860 820.5 925.5 c 128,-1,37
 767 991 767 991 668 991 c 0,20,21
EndSplineSet
EndChar

StartChar: r
Encoding: 114 114 83
Width: 1233
Flags: W
LayerCount: 2
Fore
SplineSet
1184 889 m 1,0,1
 1139 933 1139 933 1079.5 955 c 128,-1,2
 1020 977 1020 977 944 977 c 0,3,4
 780 977 780 977 663 862.5 c 128,-1,5
 546 748 546 748 508 549 c 2,6,-1
 401 0 l 1,7,-1
 217 0 l 1,8,-1
 434 1120 l 1,9,-1
 618 1120 l 1,10,-1
 578 901 l 1,11,12
 645 1021 645 1021 751.5 1084 c 128,-1,13
 858 1147 858 1147 993 1147 c 0,14,15
 1064 1147 1064 1147 1121.5 1128.5 c 128,-1,16
 1179 1110 1179 1110 1219 1075 c 1,17,-1
 1184 889 l 1,0,1
EndSplineSet
EndChar

StartChar: s
Encoding: 115 115 84
Width: 1233
Flags: W
LayerCount: 2
Fore
SplineSet
1077 1081 m 1,0,-1
 1042 901 l 1,1,2
 971 946 971 946 892.5 969.5 c 128,-1,3
 814 993 814 993 737 993 c 0,4,5
 600 993 600 993 524.5 942 c 128,-1,6
 449 891 449 891 449 799 c 0,7,8
 449 701 449 701 670 645 c 0,9,10
 685 641 685 641 692 639 c 2,11,-1
 764 621 l 2,12,13
 881 590 881 590 939 528.5 c 128,-1,14
 997 467 997 467 997 375 c 0,15,16
 997 194 997 194 853 82.5 c 128,-1,17
 709 -29 709 -29 471 -29 c 0,18,19
 390 -29 390 -29 302 -11.5 c 128,-1,20
 214 6 214 6 115 41 c 1,21,-1
 152 231 l 1,22,23
 246 178 246 178 334.5 151.5 c 128,-1,24
 423 125 423 125 506 125 c 0,25,26
 639 125 639 125 723 184.5 c 128,-1,27
 807 244 807 244 807 336 c 0,28,29
 807 435 807 435 611 487 c 0,30,31
 593 491 593 491 583 494 c 2,32,-1
 516 512 l 2,33,34
 387 545 387 545 326.5 609 c 128,-1,35
 266 673 266 673 266 776 c 0,36,37
 266 946 266 946 398 1046.5 c 128,-1,38
 530 1147 530 1147 754 1147 c 0,39,40
 842 1147 842 1147 923 1130.5 c 128,-1,41
 1004 1114 1004 1114 1077 1081 c 1,0,-1
EndSplineSet
EndChar

StartChar: t
Encoding: 116 116 85
Width: 1233
Flags: W
LayerCount: 2
Fore
SplineSet
768 1438 m 1,0,-1
 707 1120 l 1,1,-1
 1124 1120 l 1,2,-1
 1096 977 l 1,3,-1
 678 977 l 1,4,-1
 559 369 l 2,5,6
 553 339 553 339 550 313.5 c 128,-1,7
 547 288 547 288 547 266 c 0,8,9
 547 200 547 200 586 173.5 c 128,-1,10
 625 147 625 147 727 147 c 2,11,-1
 934 147 l 1,12,-1
 905 0 l 1,13,-1
 682 0 l 2,14,15
 515 0 515 0 436.5 55.5 c 128,-1,16
 358 111 358 111 358 229 c 0,17,18
 358 254 358 254 362 288 c 128,-1,19
 366 322 366 322 375 369 c 2,20,-1
 494 977 l 1,21,-1
 195 977 l 1,22,-1
 223 1120 l 1,23,-1
 522 1120 l 1,24,-1
 584 1438 l 1,25,-1
 768 1438 l 1,0,-1
EndSplineSet
EndChar

StartChar: u
Encoding: 117 117 86
Width: 1233
Flags: W
LayerCount: 2
Fore
SplineSet
143 426 m 2,0,-1
 276 1120 l 1,1,-1
 461 1120 l 1,2,-1
 326 426 l 2,3,4
 319 389 319 389 315 355 c 128,-1,5
 311 321 311 321 311 297 c 0,6,7
 311 218 311 218 357.5 175.5 c 128,-1,8
 404 133 404 133 489 133 c 0,9,10
 616 133 616 133 704 225.5 c 128,-1,11
 792 318 792 318 825 487 c 2,12,-1
 948 1120 l 1,13,-1
 1133 1120 l 1,14,-1
 915 0 l 1,15,-1
 731 0 l 1,16,-1
 764 168 l 1,17,18
 691 70 691 70 602 21.5 c 128,-1,19
 513 -27 513 -27 408 -27 c 0,20,21
 277 -27 277 -27 201 46.5 c 128,-1,22
 125 120 125 120 125 246 c 0,23,24
 125 285 125 285 129.5 331.5 c 128,-1,25
 134 378 134 378 143 426 c 2,0,-1
EndSplineSet
EndChar

StartChar: v
Encoding: 118 118 87
Width: 1233
Flags: W
LayerCount: 2
Fore
SplineSet
182 1120 m 1,0,-1
 360 1120 l 1,1,-1
 514 164 l 1,2,-1
 1016 1120 l 1,3,-1
 1214 1120 l 1,4,-1
 600 0 l 1,5,-1
 362 0 l 1,6,-1
 182 1120 l 1,0,-1
EndSplineSet
EndChar

StartChar: w
Encoding: 119 119 88
Width: 1233
Flags: W
LayerCount: 2
Fore
SplineSet
92 1120 m 1,0,-1
 268 1120 l 1,1,-1
 283 215 l 1,2,-1
 551 793 l 1,3,-1
 713 793 l 1,4,-1
 762 215 l 1,5,-1
 1124 1120 l 1,6,-1
 1315 1120 l 1,7,-1
 829 0 l 1,8,-1
 664 0 l 1,9,-1
 604 623 l 1,10,-1
 307 0 l 1,11,-1
 141 0 l 1,12,-1
 92 1120 l 1,0,-1
EndSplineSet
EndChar

StartChar: x
Encoding: 120 120 89
Width: 1233
Flags: W
LayerCount: 2
Fore
SplineSet
1208 1120 m 1,0,-1
 696 573 l 1,1,-1
 1014 0 l 1,2,-1
 817 0 l 1,3,-1
 573 444 l 1,4,-1
 156 0 l 1,5,-1
 -70 0 l 1,6,-1
 494 596 l 1,7,-1
 201 1120 l 1,8,-1
 397 1120 l 1,9,-1
 614 725 l 1,10,-1
 983 1120 l 1,11,-1
 1208 1120 l 1,0,-1
EndSplineSet
EndChar

StartChar: y
Encoding: 121 121 90
Width: 1233
Flags: W
LayerCount: 2
Fore
SplineSet
786 360 m 2,0,1
 724 253 724 253 621 72 c 0,2,3
 466 -203 466 -203 412 -276 c 0,4,5
 354 -352 354 -352 279.5 -389 c 128,-1,6
 205 -426 205 -426 109 -426 c 2,7,-1
 -39 -426 l 1,8,-1
 -10 -272 l 1,9,-1
 98 -272 l 2,10,11
 179 -272 179 -272 237.5 -225.5 c 128,-1,12
 296 -179 296 -179 356 -66 c 2,13,-1
 399 18 l 1,14,-1
 182 1120 l 1,15,-1
 365 1120 l 1,16,-1
 537 258 l 1,17,-1
 1020 1120 l 1,18,-1
 1225 1120 l 1,19,-1
 786 360 l 2,0,1
EndSplineSet
EndChar

StartChar: z
Encoding: 122 122 91
Width: 1233
Flags: W
LayerCount: 2
Fore
SplineSet
319 1120 m 1,0,-1
 1133 1120 l 1,1,-1
 1100 952 l 1,2,-1
 315 147 l 1,3,-1
 944 147 l 1,4,-1
 915 0 l 1,5,-1
 78 0 l 1,6,-1
 111 168 l 1,7,-1
 895 973 l 1,8,-1
 291 973 l 1,9,-1
 319 1120 l 1,0,-1
EndSplineSet
EndChar

StartChar: braceleft
Encoding: 123 123 92
Width: 1233
Flags: W
LayerCount: 2
Fore
SplineSet
1176 1556 m 1,0,-1
 1147 1413 l 1,1,-1
 1069 1413 l 2,2,3
 933 1413 933 1413 886 1373.5 c 128,-1,4
 839 1334 839 1334 809 1184 c 2,5,-1
 758 932 l 2,6,7
 725 772 725 772 665 699.5 c 128,-1,8
 605 627 605 627 494 606 c 1,9,10
 567 588 567 588 607 536.5 c 128,-1,11
 647 485 647 485 647 410 c 0,12,13
 647 385 647 385 643.5 353 c 128,-1,14
 640 321 640 321 633 283 c 2,15,-1
 586 39 l 2,16,17
 580 6 580 6 578 -19.5 c 128,-1,18
 576 -45 576 -45 575 -70 c 0,19,20
 575 -133 575 -133 618 -161.5 c 128,-1,21
 661 -190 661 -190 758 -190 c 2,22,-1
 836 -190 l 1,23,-1
 807 -334 l 1,24,-1
 735 -334 l 2,25,26
 548 -334 548 -334 466.5 -279.5 c 128,-1,27
 385 -225 385 -225 385 -102 c 0,28,29
 385 -71 385 -71 388.5 -37 c 128,-1,30
 392 -3 392 -3 399 34 c 2,31,-1
 444 270 l 2,32,33
 445 273 445 273 447 282 c 0,34,35
 457 332 457 332 457 377 c 0,36,37
 457 462 457 462 408 499.5 c 128,-1,38
 359 537 359 537 246 537 c 2,39,-1
 184 537 l 1,40,-1
 213 684 l 1,41,-1
 274 684 l 2,42,43
 419 684 419 684 482 739 c 128,-1,44
 545 794 545 794 575 944 c 2,45,-1
 625 1188 l 2,46,47
 650 1311 650 1311 686 1382.5 c 128,-1,48
 722 1454 722 1454 776 1493 c 0,49,50
 823 1527 823 1527 892 1541.5 c 128,-1,51
 961 1556 961 1556 1094 1556 c 2,52,-1
 1176 1556 l 1,0,-1
EndSplineSet
EndChar

StartChar: bar
Encoding: 124 124 93
Width: 1233
Flags: W
LayerCount: 2
Fore
SplineSet
702 1565 m 1,0,-1
 702 -483 l 1,1,-1
 530 -483 l 1,2,-1
 530 1565 l 1,3,-1
 702 1565 l 1,0,-1
EndSplineSet
EndChar

StartChar: braceright
Encoding: 125 125 94
Width: 1233
Flags: W
LayerCount: 2
Fore
SplineSet
-14 -334 m 1,0,-1
 14 -190 l 1,1,-1
 92 -190 l 2,2,3
 228 -190 228 -190 275 -150.5 c 128,-1,4
 322 -111 322 -111 352 39 c 2,5,-1
 403 291 l 2,6,7
 436 451 436 451 496 523.5 c 128,-1,8
 556 596 556 596 668 616 c 1,9,10
 594 635 594 635 554 686 c 128,-1,11
 514 737 514 737 514 813 c 0,12,13
 514 837 514 837 517.5 869.5 c 128,-1,14
 521 902 521 902 528 940 c 2,15,-1
 575 1183 l 2,16,17
 581 1217 581 1217 583.5 1242.5 c 128,-1,18
 586 1268 586 1268 586 1292 c 0,19,20
 586 1356 586 1356 543.5 1384.5 c 128,-1,21
 501 1413 501 1413 403 1413 c 2,22,-1
 326 1413 l 1,23,-1
 352 1556 l 1,24,-1
 426 1556 l 2,25,26
 614 1556 614 1556 695 1502 c 128,-1,27
 776 1448 776 1448 776 1325 c 0,28,29
 776 1293 776 1293 772.5 1259 c 128,-1,30
 769 1225 769 1225 762 1188 c 2,31,-1
 717 952 l 2,32,33
 716 949 716 949 715 940 c 0,34,35
 705 891 705 891 705 846 c 0,36,37
 705 760 705 760 754 723 c 128,-1,38
 803 686 803 686 915 686 c 2,39,-1
 977 686 l 1,40,-1
 948 539 l 1,41,-1
 887 539 l 2,42,43
 743 539 743 539 679.5 484 c 128,-1,44
 616 429 616 429 584 279 c 2,45,-1
 537 35 l 2,46,47
 511 -89 511 -89 475 -160 c 128,-1,48
 439 -231 439 -231 385 -270 c 0,49,50
 338 -304 338 -304 269 -319 c 128,-1,51
 200 -334 200 -334 68 -334 c 2,52,-1
 -14 -334 l 1,0,-1
EndSplineSet
EndChar

StartChar: asciitilde
Encoding: 126 126 95
Width: 1233
Flags: W
LayerCount: 2
Fore
SplineSet
1120 804 m 1,0,-1
 1232 716 l 1,1,2
 1104 520 1104 520 1006 448.5 c 128,-1,3
 908 377 908 377 820 377 c 1,4,5
 681 385 681 385 598 522.5 c 128,-1,6
 515 660 515 660 481 717.5 c 128,-1,7
 447 775 447 775 374 774 c 0,8,9
 297 774 297 774 241.5 701.5 c 128,-1,10
 186 629 186 629 118 517 c 1,11,-1
 2 593 l 1,12,13
 99 778 99 778 209.5 866 c 128,-1,14
 320 954 320 954 413 954 c 0,15,16
 583 956 583 956 673.5 754 c 128,-1,17
 764 552 764 552 857 552 c 0,18,19
 936 552 936 552 1004.5 638.5 c 128,-1,20
 1073 725 1073 725 1120 804 c 1,0,-1
EndSplineSet
EndChar

StartChar: exclamdown
Encoding: 161 161 97
Width: 1233
Flags: W
LayerCount: 2
Fore
SplineSet
834 1239 m 1,0,-1
 631 1239 l 1,1,-1
 680 1493 l 1,2,-1
 883 1493 l 1,3,-1
 834 1239 l 1,0,-1
592 0 m 1,4,-1
 389 0 l 1,5,-1
 518 655 l 1,6,-1
 606 1012 l 1,7,-1
 768 1012 l 1,8,-1
 719 655 l 1,9,-1
 592 0 l 1,4,-1
EndSplineSet
EndChar

StartChar: cent
Encoding: 162 162 98
Width: 1233
Flags: W
LayerCount: 2
Fore
SplineSet
1087 1077 m 1,0,-1
 1055 905 l 1,1,2
 1006 943 1006 943 944.5 965 c 128,-1,3
 883 987 883 987 811 993 c 1,4,-1
 641 123 l 1,5,6
 706 128 706 128 775.5 150.5 c 128,-1,7
 845 173 845 173 920 213 c 1,8,-1
 887 41 l 1,9,10
 812 10 812 10 743.5 -6.5 c 128,-1,11
 675 -23 675 -23 612 -27 c 1,12,-1
 557 -313 l 1,13,-1
 455 -313 l 1,14,-1
 510 -27 l 1,15,16
 327 -7 327 -7 225 114 c 128,-1,17
 123 235 123 235 123 430 c 0,18,19
 123 616 123 616 204 778 c 128,-1,20
 285 940 285 940 426 1036 c 0,21,22
 496 1085 496 1085 573.5 1112 c 128,-1,23
 651 1139 651 1139 737 1145 c 1,24,-1
 793 1432 l 1,25,-1
 895 1432 l 1,26,-1
 840 1145 l 1,27,28
 900 1142 900 1142 962.5 1125 c 128,-1,29
 1025 1108 1025 1108 1087 1077 c 1,0,-1
541 127 m 1,30,-1
 709 991 l 1,31,32
 544 976 544 976 429.5 811.5 c 128,-1,33
 315 647 315 647 315 422 c 0,34,35
 315 292 315 292 373.5 215.5 c 128,-1,36
 432 139 432 139 541 127 c 1,30,-1
EndSplineSet
EndChar

StartChar: sterling
Encoding: 163 163 99
Width: 1233
Flags: W
LayerCount: 2
Fore
SplineSet
1229 1462 m 1,0,-1
 1192 1278 l 1,1,2
 1138 1321 1138 1321 1077.5 1343.5 c 128,-1,3
 1017 1366 1017 1366 954 1366 c 0,4,5
 815 1366 815 1366 738 1281 c 128,-1,6
 661 1196 661 1196 623 995 c 2,7,-1
 580 778 l 1,8,-1
 950 778 l 1,9,-1
 922 635 l 1,10,-1
 551 635 l 1,11,-1
 461 170 l 1,12,-1
 997 170 l 1,13,-1
 965 0 l 1,14,-1
 -8 0 l 1,15,-1
 25 170 l 1,16,-1
 262 170 l 1,17,-1
 352 635 l 1,18,-1
 154 635 l 1,19,-1
 180 778 l 1,20,-1
 379 778 l 1,21,-1
 426 1016 l 2,22,23
 477 1276 477 1276 608 1398 c 128,-1,24
 739 1520 739 1520 967 1520 c 0,25,26
 1027 1520 1027 1520 1092 1505.5 c 128,-1,27
 1157 1491 1157 1491 1229 1462 c 1,0,-1
EndSplineSet
EndChar

StartChar: currency
Encoding: 164 164 100
Width: 1233
Flags: W
LayerCount: 2
Fore
SplineSet
868 643 m 0,0,1
 868 733 868 733 806 794.5 c 128,-1,2
 744 856 744 856 653 856 c 0,3,4
 563 856 563 856 500.5 794.5 c 128,-1,5
 438 733 438 733 438 643 c 0,6,7
 438 551 438 551 500.5 488.5 c 128,-1,8
 563 426 563 426 653 426 c 0,9,10
 744 426 744 426 806 489 c 128,-1,11
 868 552 868 552 868 643 c 0,0,1
844 924 m 1,12,-1
 1010 1090 l 1,13,-1
 1100 997 l 1,14,-1
 934 831 l 1,15,16
 964 782 964 782 978.5 735.5 c 128,-1,17
 993 689 993 689 993 641 c 0,18,19
 993 591 993 591 978 545.5 c 128,-1,20
 963 500 963 500 932 455 c 1,21,-1
 1100 289 l 1,22,-1
 1006 195 l 1,23,-1
 840 362 l 1,24,25
 794 331 794 331 748.5 316 c 128,-1,26
 703 301 703 301 653 301 c 0,27,28
 605 301 605 301 557 315.5 c 128,-1,29
 509 330 509 330 461 358 c 1,30,-1
 297 195 l 1,31,-1
 205 285 l 1,32,-1
 371 451 l 1,33,34
 340 502 340 502 325.5 548.5 c 128,-1,35
 311 595 311 595 311 641 c 0,36,37
 311 691 311 691 326.5 737.5 c 128,-1,38
 342 784 342 784 373 829 c 1,39,-1
 205 995 l 1,40,-1
 299 1090 l 1,41,-1
 465 922 l 1,42,43
 511 953 511 953 556.5 968 c 128,-1,44
 602 983 602 983 653 983 c 0,45,46
 699 983 699 983 746 968.5 c 128,-1,47
 793 954 793 954 844 924 c 1,12,-1
EndSplineSet
EndChar

StartChar: yen
Encoding: 165 165 101
Width: 1233
Flags: W
LayerCount: 2
Fore
SplineSet
1036 524 m 1,0,-1
 643 524 l 1,1,-1
 545 0 l 1,2,-1
 346 0 l 1,3,-1
 444 524 l 1,4,-1
 47 524 l 1,5,-1
 70 635 l 1,6,-1
 467 635 l 1,7,-1
 473 670 l 1,8,-1
 418 821 l 1,9,-1
 109 821 l 1,10,-1
 131 932 l 1,11,-1
 377 932 l 1,12,-1
 172 1493 l 1,13,-1
 379 1493 l 1,14,-1
 602 829 l 1,15,-1
 1061 1493 l 1,16,-1
 1272 1493 l 1,17,-1
 868 932 l 1,18,-1
 1120 932 l 1,19,-1
 1098 821 l 1,20,-1
 786 821 l 1,21,-1
 676 670 l 1,22,-1
 666 635 l 1,23,-1
 1059 635 l 1,24,-1
 1036 524 l 1,0,-1
EndSplineSet
EndChar

StartChar: brokenbar
Encoding: 166 166 102
Width: 1233
Flags: W
LayerCount: 2
Fore
SplineSet
702 1432 m 1,0,-1
 702 674 l 1,1,-1
 530 674 l 1,2,-1
 530 1432 l 1,3,-1
 702 1432 l 1,0,-1
702 408 m 1,4,-1
 702 -350 l 1,5,-1
 530 -350 l 1,6,-1
 530 408 l 1,7,-1
 702 408 l 1,4,-1
EndSplineSet
EndChar

StartChar: section
Encoding: 167 167 103
Width: 1233
Flags: W
LayerCount: 2
Fore
SplineSet
1069 1454 m 1,0,-1
 1036 1290 l 1,1,2
 965 1328 965 1328 896.5 1348 c 128,-1,3
 828 1368 828 1368 770 1368 c 0,4,5
 667 1368 667 1368 601 1319 c 128,-1,6
 535 1270 535 1270 535 1198 c 0,7,8
 535 1119 535 1119 669 1029 c 0,9,10
 700 1009 700 1009 717 997 c 2,11,-1
 803 938 l 2,12,13
 927 852 927 852 969.5 793.5 c 128,-1,14
 1012 735 1012 735 1012 666 c 0,15,16
 1012 565 1012 565 946 475 c 128,-1,17
 880 385 880 385 766 332 c 1,18,19
 807 297 807 297 827.5 252 c 128,-1,20
 848 207 848 207 848 152 c 0,21,22
 848 -5 848 -5 726.5 -103 c 128,-1,23
 605 -201 605 -201 406 -201 c 0,24,25
 336 -201 336 -201 259.5 -186.5 c 128,-1,26
 183 -172 183 -172 100 -143 c 1,27,-1
 133 18 l 1,28,29
 207 -18 207 -18 279 -37.5 c 128,-1,30
 351 -57 351 -57 412 -57 c 0,31,32
 524 -57 524 -57 590.5 -10 c 128,-1,33
 657 37 657 37 657 115 c 0,34,35
 657 213 657 213 474 337 c 2,36,-1
 461 346 l 1,37,-1
 387 397 l 2,38,39
 262 482 262 482 222 537.5 c 128,-1,40
 182 593 182 593 182 666 c 0,41,42
 182 762 182 762 246 848 c 128,-1,43
 310 934 310 934 428 997 c 1,44,45
 387 1034 387 1034 368.5 1074 c 128,-1,46
 350 1114 350 1114 350 1167 c 0,47,48
 350 1316 350 1316 470 1413.5 c 128,-1,49
 590 1511 590 1511 776 1511 c 0,50,51
 847 1511 847 1511 920.5 1497 c 128,-1,52
 994 1483 994 1483 1069 1454 c 1,0,-1
678 401 m 1,53,54
 762 452 762 452 806 507.5 c 128,-1,55
 850 563 850 563 850 618 c 0,56,57
 850 671 850 671 796.5 727 c 128,-1,58
 743 783 743 783 596 877 c 2,59,-1
 516 928 l 1,60,61
 434 876 434 876 391 820 c 128,-1,62
 348 764 348 764 348 709 c 0,63,64
 348 658 348 658 390.5 610 c 128,-1,65
 433 562 433 562 559 479 c 2,66,-1
 678 401 l 1,53,54
EndSplineSet
EndChar

StartChar: dieresis
Encoding: 168 168 104
Width: 1233
Flags: W
LayerCount: 2
Fore
SplineSet
475 1552 m 1,0,-1
 678 1552 l 1,1,-1
 639 1350 l 1,2,-1
 436 1350 l 1,3,-1
 475 1552 l 1,0,-1
866 1552 m 1,4,-1
 1069 1552 l 1,5,-1
 1030 1350 l 1,6,-1
 827 1350 l 1,7,-1
 866 1552 l 1,4,-1
EndSplineSet
EndChar

StartChar: copyright
Encoding: 169 169 105
Width: 1233
Flags: W
LayerCount: 2
Fore
SplineSet
864 1071 m 1,0,-1
 864 963 l 1,1,2
 806 991 806 991 750.5 1004.5 c 128,-1,3
 695 1018 695 1018 637 1018 c 0,4,5
 520 1018 520 1018 452.5 943.5 c 128,-1,6
 385 869 385 869 385 741 c 0,7,8
 385 609 385 609 455 538 c 128,-1,9
 525 467 525 467 655 467 c 0,10,11
 711 467 711 467 762.5 479.5 c 128,-1,12
 814 492 814 492 864 518 c 1,13,-1
 864 414 l 1,14,15
 812 391 812 391 755 380 c 128,-1,16
 698 369 698 369 637 369 c 0,17,18
 457 369 457 369 353.5 469 c 128,-1,19
 250 569 250 569 250 741 c 0,20,21
 250 914 250 914 354 1015 c 128,-1,22
 458 1116 458 1116 637 1116 c 0,23,24
 698 1116 698 1116 755 1105 c 128,-1,25
 812 1094 812 1094 864 1071 c 1,0,-1
616 1255 m 0,26,27
 510 1255 510 1255 419.5 1218 c 128,-1,28
 329 1181 329 1181 254 1106 c 256,29,30
 179 1031 179 1031 140.5 939 c 128,-1,31
 102 847 102 847 102 741 c 0,32,33
 102 637 102 637 140.5 545.5 c 128,-1,34
 179 454 179 454 254 379 c 0,35,36
 330 303 330 303 420.5 265 c 128,-1,37
 511 227 511 227 616 227 c 0,38,39
 722 227 722 227 812.5 265 c 128,-1,40
 903 303 903 303 979 379 c 256,41,42
 1055 455 1055 455 1092.5 545.5 c 128,-1,43
 1130 636 1130 636 1130 741 c 0,44,45
 1130 847 1130 847 1092 939 c 128,-1,46
 1054 1031 1054 1031 979 1106 c 256,47,48
 904 1181 904 1181 813.5 1218 c 128,-1,49
 723 1255 723 1255 616 1255 c 0,26,27
616 1358 m 0,50,51
 743 1358 743 1358 852 1313 c 128,-1,52
 961 1268 961 1268 1051 1178 c 0,53,54
 1141 1087 1141 1087 1187 977 c 128,-1,55
 1233 867 1233 867 1233 741 c 0,56,57
 1233 616 1233 616 1187.5 507 c 128,-1,58
 1142 398 1142 398 1051 307 c 256,59,60
 960 216 960 216 851 170.5 c 128,-1,61
 742 125 742 125 616 125 c 0,62,63
 491 125 491 125 382 170.5 c 128,-1,64
 273 216 273 216 182 307 c 256,65,66
 91 398 91 398 45.5 507 c 128,-1,67
 0 616 0 616 0 741 c 0,68,69
 0 867 0 867 46 977 c 128,-1,70
 92 1087 92 1087 182 1178 c 0,71,72
 272 1268 272 1268 381 1313 c 128,-1,73
 490 1358 490 1358 616 1358 c 0,50,51
EndSplineSet
EndChar

StartChar: ordfeminine
Encoding: 170 170 106
Width: 1233
Flags: W
LayerCount: 2
Fore
SplineSet
729 1104 m 2,0,1
 581 1104 581 1104 511.5 1064 c 128,-1,2
 442 1024 442 1024 442 938 c 0,3,4
 442 883 442 883 478.5 850 c 128,-1,5
 515 817 515 817 575 817 c 0,6,7
 686 817 686 817 761.5 884 c 128,-1,8
 837 951 837 951 864 1075 c 2,9,-1
 870 1104 l 1,10,-1
 729 1104 l 2,0,1
1026 1165 m 2,11,-1
 940 717 l 1,12,-1
 797 717 l 1,13,-1
 819 829 l 1,14,15
 766 766 766 766 692 732 c 128,-1,16
 618 698 618 698 532 698 c 0,17,18
 423 698 423 698 359 758 c 128,-1,19
 295 818 295 818 295 920 c 0,20,21
 295 1060 295 1060 406.5 1139.5 c 128,-1,22
 518 1219 518 1219 717 1219 c 2,23,-1
 891 1219 l 2,24,25
 891 1221 891 1221 892 1228 c 0,26,27
 895 1255 895 1255 895 1268 c 0,28,29
 895 1339 895 1339 851 1372 c 128,-1,30
 807 1405 807 1405 711 1405 c 0,31,32
 642 1405 642 1405 574 1388.5 c 128,-1,33
 506 1372 506 1372 434 1337 c 1,34,-1
 457 1464 l 1,35,36
 532 1492 532 1492 605 1506 c 128,-1,37
 678 1520 678 1520 743 1520 c 0,38,39
 891 1520 891 1520 963.5 1457.5 c 128,-1,40
 1036 1395 1036 1395 1036 1268 c 0,41,42
 1036 1245 1036 1245 1033.5 1219.5 c 128,-1,43
 1031 1194 1031 1194 1026 1165 c 2,11,-1
246 592 m 1,44,-1
 922 592 l 1,45,-1
 899 469 l 1,46,-1
 223 469 l 1,47,-1
 246 592 l 1,44,-1
EndSplineSet
EndChar

StartChar: guillemotleft
Encoding: 171 171 107
Width: 1233
Flags: W
LayerCount: 2
Fore
SplineSet
1106 1059 m 1,0,-1
 1063 848 l 1,1,-1
 713 584 l 1,2,-1
 963 317 l 1,3,-1
 928 141 l 1,4,-1
 541 559 l 1,5,-1
 557 641 l 1,6,-1
 1106 1059 l 1,0,-1
639 1059 m 1,7,-1
 596 848 l 1,8,-1
 246 584 l 1,9,-1
 496 317 l 1,10,-1
 461 141 l 1,11,-1
 74 559 l 1,12,-1
 90 641 l 1,13,-1
 639 1059 l 1,7,-1
EndSplineSet
EndChar

StartChar: logicalnot
Encoding: 172 172 108
Width: 1233
Flags: W
LayerCount: 2
Fore
SplineSet
88 862 m 1,0,-1
 1145 862 l 1,1,-1
 1145 371 l 1,2,-1
 977 371 l 1,3,-1
 977 690 l 1,4,-1
 88 690 l 1,5,-1
 88 862 l 1,0,-1
EndSplineSet
EndChar

StartChar: sfthyphen
Encoding: 173 173 109
Width: 1233
Flags: W
LayerCount: 2
Fore
SplineSet
137 724 m 1,0,-1
 1127 724 l 1,1,-1
 1092 555 l 1,2,-1
 102 555 l 1,3,-1
 137 724 l 1,0,-1
EndSplineSet
EndChar

StartChar: registered
Encoding: 174 174 110
Width: 1233
Flags: W
LayerCount: 2
Fore
SplineSet
600 1100 m 2,0,1
 747 1100 747 1100 819 1051 c 128,-1,2
 891 1002 891 1002 891 901 c 0,3,4
 891 830 891 830 847 783.5 c 128,-1,5
 803 737 803 737 723 723 c 1,6,7
 742 718 742 718 771 684.5 c 128,-1,8
 800 651 800 651 838 592 c 2,9,-1
 952 406 l 1,10,-1
 809 406 l 1,11,-1
 702 580 l 2,12,13
 653 660 653 660 622.5 681 c 128,-1,14
 592 702 592 702 547 702 c 2,15,-1
 492 702 l 1,16,-1
 492 406 l 1,17,-1
 362 406 l 1,18,-1
 362 1100 l 1,19,-1
 600 1100 l 2,0,1
594 1016 m 2,20,-1
 492 1016 l 1,21,-1
 492 784 l 1,22,-1
 594 784 l 2,23,24
 684 784 684 784 721 811 c 128,-1,25
 758 838 758 838 758 901 c 0,26,27
 758 963 758 963 721 989.5 c 128,-1,28
 684 1016 684 1016 594 1016 c 2,20,-1
616 1358 m 0,29,30
 743 1358 743 1358 852 1313 c 128,-1,31
 961 1268 961 1268 1051 1178 c 0,32,33
 1141 1087 1141 1087 1187 977 c 128,-1,34
 1233 867 1233 867 1233 741 c 0,35,36
 1233 616 1233 616 1187.5 507 c 128,-1,37
 1142 398 1142 398 1051 307 c 256,38,39
 960 216 960 216 851 170.5 c 128,-1,40
 742 125 742 125 616 125 c 0,41,42
 491 125 491 125 382 170.5 c 128,-1,43
 273 216 273 216 182 307 c 256,44,45
 91 398 91 398 45.5 507 c 128,-1,46
 0 616 0 616 0 741 c 0,47,48
 0 867 0 867 46 977 c 128,-1,49
 92 1087 92 1087 182 1178 c 0,50,51
 272 1268 272 1268 381 1313 c 128,-1,52
 490 1358 490 1358 616 1358 c 0,29,30
616 1255 m 0,53,54
 510 1255 510 1255 419.5 1218 c 128,-1,55
 329 1181 329 1181 254 1106 c 256,56,57
 179 1031 179 1031 140.5 939 c 128,-1,58
 102 847 102 847 102 741 c 0,59,60
 102 637 102 637 140.5 545.5 c 128,-1,61
 179 454 179 454 254 379 c 0,62,63
 330 303 330 303 420.5 265 c 128,-1,64
 511 227 511 227 616 227 c 0,65,66
 722 227 722 227 812.5 265 c 128,-1,67
 903 303 903 303 979 379 c 256,68,69
 1055 455 1055 455 1092.5 545.5 c 128,-1,70
 1130 636 1130 636 1130 741 c 0,71,72
 1130 847 1130 847 1092 939 c 128,-1,73
 1054 1031 1054 1031 979 1106 c 256,74,75
 904 1181 904 1181 813.5 1218 c 128,-1,76
 723 1255 723 1255 616 1255 c 0,53,54
EndSplineSet
EndChar

StartChar: macron
Encoding: 175 175 111
Width: 1233
Flags: W
LayerCount: 2
Fore
SplineSet
129 1526 m 1,0,-1
 1127 1526 l 1,1,-1
 1101 1378 l 1,2,-1
 103 1378 l 1,3,-1
 129 1526 l 1,0,-1
EndSplineSet
EndChar

StartChar: degree
Encoding: 176 176 112
Width: 1233
Flags: W
LayerCount: 2
Fore
SplineSet
616 1520 m 0,0,1
 681 1520 681 1520 739.5 1495.5 c 128,-1,2
 798 1471 798 1471 842 1425 c 0,3,4
 887 1380 887 1380 910.5 1323 c 128,-1,5
 934 1266 934 1266 934 1200 c 0,6,7
 934 1068 934 1068 841 976.5 c 128,-1,8
 748 885 748 885 614 885 c 0,9,10
 479 885 479 885 389 975 c 128,-1,11
 299 1065 299 1065 299 1200 c 0,12,13
 299 1334 299 1334 391 1427 c 128,-1,14
 483 1520 483 1520 616 1520 c 0,0,1
616 1391 m 256,15,16
 537 1391 537 1391 481.5 1335.5 c 128,-1,17
 426 1280 426 1280 426 1200 c 256,18,19
 426 1120 426 1120 480.5 1066 c 128,-1,20
 535 1012 535 1012 614 1012 c 0,21,22
 694 1012 694 1012 750.5 1067 c 128,-1,23
 807 1122 807 1122 807 1200 c 0,24,25
 807 1279 807 1279 751 1335 c 128,-1,26
 695 1391 695 1391 616 1391 c 256,15,16
EndSplineSet
EndChar

StartChar: plusminus
Encoding: 177 177 113
Width: 1233
Flags: W
LayerCount: 2
Fore
SplineSet
88 170 m 1,0,-1
 1145 170 l 1,1,-1
 1145 0 l 1,2,-1
 88 0 l 1,3,-1
 88 170 l 1,0,-1
700 1171 m 1,4,-1
 700 842 l 1,5,-1
 1145 842 l 1,6,-1
 1145 672 l 1,7,-1
 700 672 l 1,8,-1
 700 340 l 1,9,-1
 532 340 l 1,10,-1
 532 672 l 1,11,-1
 88 672 l 1,12,-1
 88 842 l 1,13,-1
 532 842 l 1,14,-1
 532 1171 l 1,15,-1
 700 1171 l 1,4,-1
EndSplineSet
EndChar

StartChar: twosuperior
Encoding: 178 178 114
Width: 1233
Flags: W
LayerCount: 2
Fore
SplineSet
492 782 m 1,0,-1
 887 782 l 1,1,-1
 864 668 l 1,2,-1
 307 668 l 1,3,-1
 328 778 l 1,4,-1
 498 918 l 1,5,-1
 531 945 l 2,6,7
 844 1198 844 1198 844 1303 c 0,8,9
 844 1354 844 1354 807 1384.5 c 128,-1,10
 770 1415 770 1415 707 1415 c 0,11,12
 656 1415 656 1415 595 1396.5 c 128,-1,13
 534 1378 534 1378 451 1337 c 1,14,-1
 475 1464 l 1,15,16
 559 1493 559 1493 621.5 1506.5 c 128,-1,17
 684 1520 684 1520 737 1520 c 0,18,19
 855 1520 855 1520 923 1464.5 c 128,-1,20
 991 1409 991 1409 991 1315 c 0,21,22
 991 1176 991 1176 682 933 c 1,23,-1
 662 918 l 1,24,-1
 492 782 l 1,0,-1
EndSplineSet
EndChar

StartChar: threesuperior
Encoding: 179 179 115
Width: 1233
Flags: W
LayerCount: 2
Fore
SplineSet
772 1116 m 1,0,1
 844 1104 844 1104 883 1058.5 c 128,-1,2
 922 1013 922 1013 922 942 c 0,3,4
 922 811 922 811 818 732 c 128,-1,5
 714 653 714 653 539 653 c 0,6,7
 473 653 473 653 409.5 663.5 c 128,-1,8
 346 674 346 674 287 694 c 1,9,-1
 311 815 l 1,10,11
 378 786 378 786 430 773 c 128,-1,12
 482 760 482 760 532 760 c 0,13,14
 644 760 644 760 709 806 c 128,-1,15
 774 852 774 852 774 930 c 0,16,17
 774 997 774 997 731.5 1029 c 128,-1,18
 689 1061 689 1061 600 1061 c 2,19,-1
 528 1061 l 1,20,-1
 549 1167 l 1,21,-1
 621 1167 l 2,22,23
 718 1167 718 1167 777 1207 c 128,-1,24
 836 1247 836 1247 836 1311 c 0,25,26
 836 1362 836 1362 793 1387.5 c 128,-1,27
 750 1413 750 1413 664 1413 c 0,28,29
 622 1413 622 1413 571.5 1402.5 c 128,-1,30
 521 1392 521 1392 461 1370 c 1,31,-1
 483 1485 l 1,32,33
 554 1502 554 1502 615 1511 c 128,-1,34
 676 1520 676 1520 731 1520 c 0,35,36
 852 1520 852 1520 917.5 1470 c 128,-1,37
 983 1420 983 1420 983 1329 c 0,38,39
 983 1250 983 1250 926 1192 c 128,-1,40
 869 1134 869 1134 772 1116 c 1,0,1
EndSplineSet
EndChar

StartChar: acute
Encoding: 180 180 116
Width: 1233
Flags: W
LayerCount: 2
Fore
SplineSet
907 1638 m 1,0,-1
 1126 1638 l 1,1,-1
 731 1262 l 1,2,-1
 575 1262 l 1,3,-1
 907 1638 l 1,0,-1
EndSplineSet
EndChar

StartChar: mu
Encoding: 181 181 117
Width: 1233
Flags: W
LayerCount: 2
Fore
SplineSet
-39 -426 m 1,0,-1
 262 1120 l 1,1,-1
 449 1120 l 1,2,-1
 313 424 l 2,3,4
 307 393 307 393 304 366 c 128,-1,5
 301 339 301 339 301 319 c 0,6,7
 301 228 301 228 355.5 179.5 c 128,-1,8
 410 131 410 131 512 131 c 0,9,10
 649 131 649 131 731 214 c 128,-1,11
 813 297 813 297 846 467 c 2,12,-1
 973 1120 l 1,13,-1
 1159 1120 l 1,14,-1
 991 258 l 2,15,16
 988 240 988 240 986.5 227 c 128,-1,17
 985 214 985 214 985 203 c 0,18,19
 985 173 985 173 997.5 157 c 128,-1,20
 1010 141 1010 141 1034 141 c 0,21,22
 1043 141 1043 141 1059 146 c 128,-1,23
 1075 151 1075 151 1106 164 c 1,24,-1
 1077 16 l 1,25,26
 1037 -6 1037 -6 1000 -17.5 c 128,-1,27
 963 -29 963 -29 930 -29 c 0,28,29
 863 -29 863 -29 823.5 13.5 c 128,-1,30
 784 56 784 56 784 129 c 1,31,32
 731 47 731 47 661.5 9 c 128,-1,33
 592 -29 592 -29 494 -29 c 0,34,35
 402 -29 402 -29 340 12.5 c 128,-1,36
 278 54 278 54 246 137 c 1,37,-1
 137 -426 l 1,38,-1
 -39 -426 l 1,0,-1
EndSplineSet
EndChar

StartChar: paragraph
Encoding: 182 182 118
Width: 1233
Flags: W
LayerCount: 2
Fore
SplineSet
735 1493 m 2,0,-1
 1141 1493 l 1,1,-1
 813 -197 l 1,2,-1
 674 -197 l 1,3,-1
 977 1370 l 1,4,-1
 786 1370 l 1,5,-1
 483 -197 l 1,6,-1
 342 -197 l 1,7,-1
 506 649 l 1,8,9
 329 653 329 653 227 748 c 128,-1,10
 125 843 125 843 125 1004 c 0,11,12
 125 1213 125 1213 298 1353 c 128,-1,13
 471 1493 471 1493 735 1493 c 2,0,-1
EndSplineSet
EndChar

StartChar: periodcentered
Encoding: 183 183 119
Width: 1233
Flags: W
LayerCount: 2
Fore
SplineSet
512 864 m 1,0,-1
 766 864 l 1,1,-1
 707 559 l 1,2,-1
 455 559 l 1,3,-1
 512 864 l 1,0,-1
EndSplineSet
EndChar

StartChar: onesuperior
Encoding: 185 185 121
Width: 1233
Flags: W
LayerCount: 2
Fore
SplineSet
369 778 m 1,0,-1
 575 778 l 1,1,-1
 692 1389 l 1,2,-1
 461 1348 l 1,3,-1
 483 1464 l 1,4,-1
 721 1503 l 1,5,-1
 858 1503 l 1,6,-1
 717 778 l 1,7,-1
 922 778 l 1,8,-1
 901 668 l 1,9,-1
 348 668 l 1,10,-1
 369 778 l 1,0,-1
EndSplineSet
EndChar

StartChar: ordmasculine
Encoding: 186 186 122
Width: 1233
Flags: W
LayerCount: 2
Fore
SplineSet
633 698 m 0,0,1
 481 698 481 698 394 788.5 c 128,-1,2
 307 879 307 879 307 1036 c 0,3,4
 307 1123 307 1123 339.5 1212 c 128,-1,5
 372 1301 372 1301 428 1368 c 0,6,7
 489 1442 489 1442 570 1481 c 128,-1,8
 651 1520 651 1520 741 1520 c 0,9,10
 892 1520 892 1520 978.5 1429 c 128,-1,11
 1065 1338 1065 1338 1065 1180 c 0,12,13
 1065 1092 1065 1092 1033 1004 c 128,-1,14
 1001 916 1001 916 946 850 c 0,15,16
 885 776 885 776 804.5 737 c 128,-1,17
 724 698 724 698 633 698 c 0,0,1
463 1038 m 0,18,19
 463 933 463 933 512.5 873 c 128,-1,20
 562 813 562 813 649 813 c 0,21,22
 755 813 755 813 833 921 c 128,-1,23
 911 1029 911 1029 911 1180 c 0,24,25
 911 1285 911 1285 861.5 1345 c 128,-1,26
 812 1405 812 1405 725 1405 c 0,27,28
 618 1405 618 1405 540.5 1297.5 c 128,-1,29
 463 1190 463 1190 463 1038 c 0,18,19
246 592 m 1,30,-1
 922 592 l 1,31,-1
 899 469 l 1,32,-1
 223 469 l 1,33,-1
 246 592 l 1,30,-1
EndSplineSet
EndChar

StartChar: guillemotright
Encoding: 187 187 123
Width: 1233
Flags: W
LayerCount: 2
Fore
SplineSet
82 141 m 1,0,-1
 125 352 l 1,1,-1
 475 614 l 1,2,-1
 225 883 l 1,3,-1
 260 1059 l 1,4,-1
 647 641 l 1,5,-1
 633 559 l 1,6,-1
 82 141 l 1,0,-1
549 141 m 1,7,-1
 592 352 l 1,8,-1
 942 614 l 1,9,-1
 692 883 l 1,10,-1
 727 1059 l 1,11,-1
 1114 641 l 1,12,-1
 1100 559 l 1,13,-1
 549 141 l 1,7,-1
EndSplineSet
EndChar

StartChar: questiondown
Encoding: 191 191 127
Width: 1233
Flags: W
LayerCount: 2
Fore
SplineSet
655 1092 m 1,0,-1
 846 1092 l 1,1,-1
 817 938 l 2,2,3
 799 845 799 845 759 779.5 c 128,-1,4
 719 714 719 714 608 621 c 2,5,-1
 502 532 l 2,6,7
 417 460 417 460 381.5 404.5 c 128,-1,8
 346 349 346 349 346 293 c 0,9,10
 346 219 346 219 401.5 178 c 128,-1,11
 457 137 457 137 557 137 c 0,12,13
 636 137 636 137 734 172.5 c 128,-1,14
 832 208 832 208 938 274 c 1,15,-1
 901 86 l 1,16,17
 793 29 793 29 691.5 1 c 128,-1,18
 590 -27 590 -27 489 -27 c 0,19,20
 337 -27 337 -27 240 54.5 c 128,-1,21
 143 136 143 136 143 262 c 0,22,23
 143 356 143 356 192 436.5 c 128,-1,24
 241 517 241 517 371 625 c 2,25,-1
 475 711 l 2,26,27
 559 781 559 781 589.5 832 c 128,-1,28
 620 883 620 883 635 969 c 2,29,-1
 655 1092 l 1,0,-1
881 1239 m 1,30,-1
 678 1239 l 1,31,-1
 727 1493 l 1,32,-1
 930 1493 l 1,33,-1
 881 1239 l 1,30,-1
EndSplineSet
EndChar

StartChar: Aring
Encoding: 197 197 133
Width: 1233
Flags: W
LayerCount: 2
Fore
SplineSet
924 1626 m 256,0,1
 924 1689 924 1689 879.5 1733.5 c 128,-1,2
 835 1778 835 1778 772 1778 c 0,3,4
 708 1778 708 1778 664.5 1734.5 c 128,-1,5
 621 1691 621 1691 621 1626 c 0,6,7
 621 1563 621 1563 664.5 1519 c 128,-1,8
 708 1475 708 1475 772 1475 c 0,9,10
 835 1475 835 1475 879.5 1519 c 128,-1,11
 924 1563 924 1563 924 1626 c 256,0,1
735 1325 m 1,12,-1
 371 551 l 1,13,-1
 801 551 l 1,14,-1
 735 1325 l 1,12,-1
600 1415 m 1,15,16
 549 1450 549 1450 523.5 1503.5 c 128,-1,17
 498 1557 498 1557 498 1626 c 0,18,19
 498 1740 498 1740 577.5 1820.5 c 128,-1,20
 657 1901 657 1901 772 1901 c 0,21,22
 886 1901 886 1901 966.5 1820.5 c 128,-1,23
 1047 1740 1047 1740 1047 1626 c 0,24,25
 1047 1545 1047 1545 1007 1481.5 c 128,-1,26
 967 1418 967 1418 897 1386 c 1,27,-1
 1051 0 l 1,28,-1
 850 0 l 1,29,-1
 815 389 l 1,30,-1
 295 389 l 1,31,-1
 111 0 l 1,32,-1
 -106 0 l 1,33,-1
 600 1415 l 1,15,16
EndSplineSet
Ligature2: "<27,0> Canonical Decomposition lookup 1 subtable" A uni030A
EndChar

StartChar: AE
Encoding: 198 198 134
Width: 1233
Flags: W
LayerCount: 2
Fore
SplineSet
1307 1493 m 1,0,-1
 1274 1323 l 1,1,-1
 936 1323 l 1,2,-1
 850 881 l 1,3,-1
 1157 881 l 1,4,-1
 1124 711 l 1,5,-1
 817 711 l 1,6,-1
 711 170 l 1,7,-1
 1067 170 l 1,8,-1
 1034 0 l 1,9,-1
 492 0 l 1,10,-1
 567 383 l 1,11,-1
 215 383 l 1,12,-1
 39 0 l 1,13,-1
 -145 0 l 1,14,-1
 555 1493 l 1,15,-1
 1307 1493 l 1,0,-1
647 1323 m 1,16,-1
 291 551 l 1,17,-1
 600 551 l 1,18,-1
 750 1323 l 1,19,-1
 647 1323 l 1,16,-1
EndSplineSet
EndChar

StartChar: Eth
Encoding: 208 208 144
Width: 1233
Flags: W
LayerCount: 2
Fore
SplineSet
324 166 m 2,0,1
 509 166 509 166 621 228.5 c 128,-1,2
 733 291 733 291 801 432 c 0,3,4
 855 547 855 547 889.5 706.5 c 128,-1,5
 924 866 924 866 924 999 c 0,6,7
 924 1175 924 1175 842 1251 c 128,-1,8
 760 1327 760 1327 567 1327 c 2,9,-1
 453 1327 l 1,10,-1
 362 858 l 1,11,-1
 629 858 l 1,12,-1
 600 709 l 1,13,-1
 334 709 l 1,14,-1
 227 166 l 1,15,-1
 324 166 l 2,0,1
586 1493 m 2,16,17
 859 1493 859 1493 994.5 1369 c 128,-1,18
 1130 1245 1130 1245 1130 993 c 0,19,20
 1130 831 1130 831 1088 659 c 128,-1,21
 1046 487 1046 487 975 354 c 0,22,23
 871 163 871 163 715.5 81.5 c 128,-1,24
 560 0 560 0 295 0 c 2,25,-1
 -8 0 l 1,26,-1
 129 709 l 1,27,-1
 2 709 l 1,28,-1
 31 858 l 1,29,-1
 160 858 l 1,30,-1
 283 1493 l 1,31,-1
 586 1493 l 2,16,17
EndSplineSet
EndChar

StartChar: multiply
Encoding: 215 215 151
Width: 1233
Flags: W
LayerCount: 2
Fore
SplineSet
150 293 m 1,0,-1
 500 641 l 1,1,-1
 150 991 l 1,2,-1
 266 1108 l 1,3,-1
 616 758 l 1,4,-1
 967 1108 l 1,5,-1
 1083 991 l 1,6,-1
 733 641 l 1,7,-1
 1081 293 l 1,8,-1
 965 174 l 1,9,-1
 616 524 l 1,10,-1
 268 174 l 1,11,-1
 150 293 l 1,0,-1
EndSplineSet
EndChar

StartChar: Oslash
Encoding: 216 216 152
Width: 1233
Flags: W
LayerCount: 2
Fore
SplineSet
322 229 m 1,0,1
 342 185 342 185 389 160 c 128,-1,2
 436 135 436 135 502 135 c 0,3,4
 614 135 614 135 694.5 217 c 128,-1,5
 775 299 775 299 836 473 c 0,6,7
 886 618 886 618 913 765.5 c 128,-1,8
 940 913 940 913 940 1036 c 0,9,10
 940 1064 940 1064 939.5 1081.5 c 128,-1,11
 939 1099 939 1099 938 1116 c 1,12,-1
 322 229 l 1,0,1
291 389 m 1,13,-1
 905 1274 l 1,14,15
 876 1313 876 1313 830.5 1334.5 c 128,-1,16
 785 1356 785 1356 729 1356 c 0,17,18
 616 1356 616 1356 535.5 1274 c 128,-1,19
 455 1192 455 1192 395 1018 c 0,20,21
 345 870 345 870 316 717.5 c 128,-1,22
 287 565 287 565 287 457 c 0,23,24
 287 447 287 447 289 419 c 0,25,26
 290 401 290 401 291 389 c 1,13,-1
1094 1337 m 1,27,28
 1123 1277 1123 1277 1137 1205 c 128,-1,29
 1151 1133 1151 1133 1151 1042 c 0,30,31
 1151 846 1151 846 1098.5 635 c 128,-1,32
 1046 424 1046 424 963 276 c 0,33,34
 875 122 875 122 755 46.5 c 128,-1,35
 635 -29 635 -29 477 -29 c 0,36,37
 396 -29 396 -29 328.5 -6 c 128,-1,38
 261 17 261 17 207 63 c 1,39,-1
 113 -70 l 1,40,-1
 14 -6 l 1,41,-1
 133 164 l 1,42,43
 106 222 106 222 93 292.5 c 128,-1,44
 80 363 80 363 80 449 c 0,45,46
 80 647 80 647 132 857.5 c 128,-1,47
 184 1068 184 1068 268 1217 c 0,48,49
 356 1370 356 1370 475.5 1445 c 128,-1,50
 595 1520 595 1520 754 1520 c 0,51,52
 831 1520 831 1520 896.5 1498.5 c 128,-1,53
 962 1477 962 1477 1016 1434 c 1,54,-1
 1100 1559 l 1,55,-1
 1200 1495 l 1,56,-1
 1094 1337 l 1,27,28
EndSplineSet
EndChar

StartChar: Thorn
Encoding: 222 222 158
Width: 1233
Flags: W
LayerCount: 2
Fore
SplineSet
326 365 m 1,0,-1
 254 0 l 1,1,-1
 51 0 l 1,2,-1
 342 1493 l 1,3,-1
 545 1491 l 1,4,-1
 494 1217 l 1,5,-1
 735 1217 l 2,6,7
 942 1217 942 1217 1050.5 1129 c 128,-1,8
 1159 1041 1159 1041 1159 874 c 0,9,10
 1159 638 1159 638 998 501.5 c 128,-1,11
 837 365 837 365 557 365 c 2,12,-1
 326 365 l 1,0,-1
461 1059 m 1,13,-1
 356 522 l 1,14,-1
 590 522 l 2,15,16
 754 522 754 522 853 614 c 128,-1,17
 952 706 952 706 952 858 c 0,18,19
 952 961 952 961 890 1010 c 128,-1,20
 828 1059 828 1059 698 1059 c 2,21,-1
 461 1059 l 1,13,-1
EndSplineSet
EndChar

StartChar: germandbls
Encoding: 223 223 159
Width: 1233
Flags: W
LayerCount: 2
Fore
SplineSet
276 1137 m 2,0,1
 318 1349 318 1349 437.5 1452.5 c 128,-1,2
 557 1556 557 1556 760 1556 c 0,3,4
 936 1556 936 1556 1031 1476 c 128,-1,5
 1126 1396 1126 1396 1126 1247 c 0,6,7
 1126 1214 1126 1214 1121.5 1179 c 128,-1,8
 1117 1144 1117 1144 1108 1108 c 1,9,10
 934 1087 934 1087 833.5 1019.5 c 128,-1,11
 733 952 733 952 733 856 c 0,12,13
 733 818 733 818 753.5 787.5 c 128,-1,14
 774 757 774 757 834 713 c 2,15,-1
 885 674 l 2,16,17
 1000 589 1000 589 1040.5 522.5 c 128,-1,18
 1081 456 1081 456 1081 369 c 0,19,20
 1081 186 1081 186 951.5 78.5 c 128,-1,21
 822 -29 822 -29 600 -29 c 0,22,23
 529 -29 529 -29 462 -16.5 c 128,-1,24
 395 -4 395 -4 330 20 c 1,25,-1
 360 184 l 1,26,27
 419 152 419 152 485.5 135.5 c 128,-1,28
 552 119 552 119 623 119 c 0,29,30
 754 119 754 119 829.5 181.5 c 128,-1,31
 905 244 905 244 905 352 c 0,32,33
 905 404 905 404 878 445 c 128,-1,34
 851 486 851 486 766 549 c 2,35,-1
 705 596 l 2,36,37
 615 664 615 664 587 710 c 128,-1,38
 559 756 559 756 559 819 c 0,39,40
 559 950 559 950 660.5 1046 c 128,-1,41
 762 1142 762 1142 940 1178 c 1,42,43
 943 1193 943 1193 944.5 1207.5 c 128,-1,44
 946 1222 946 1222 946 1237 c 0,45,46
 946 1316 946 1316 894 1360.5 c 128,-1,47
 842 1405 842 1405 750 1405 c 0,48,49
 629 1405 629 1405 558 1337.5 c 128,-1,50
 487 1270 487 1270 461 1133 c 2,51,-1
 242 0 l 1,52,-1
 55 0 l 1,53,-1
 276 1137 l 2,0,1
EndSplineSet
EndChar

StartChar: ae
Encoding: 230 230 166
Width: 1233
Flags: W
LayerCount: 2
Fore
SplineSet
487 442 m 2,0,-1
 502 514 l 1,1,-1
 453 514 l 2,2,3
 328 514 328 514 275.5 498.5 c 128,-1,4
 223 483 223 483 188 444 c 0,5,6
 158 411 158 411 140.5 362 c 128,-1,7
 123 313 123 313 123 262 c 0,8,9
 123 202 123 202 162 162.5 c 128,-1,10
 201 123 201 123 260 123 c 0,11,12
 350 123 350 123 400.5 190 c 128,-1,13
 451 257 451 257 487 442 c 2,0,-1
1024 657 m 1,14,-1
 1040 731 l 2,15,16
 1046 758 1046 758 1048.5 786 c 128,-1,17
 1051 814 1051 814 1051 846 c 0,18,19
 1051 916 1051 916 1017 955.5 c 128,-1,20
 983 995 983 995 924 995 c 0,21,22
 841 995 841 995 788 931.5 c 128,-1,23
 735 868 735 868 711 739 c 2,24,-1
 694 657 l 1,25,-1
 1024 657 l 1,14,-1
1163 514 m 1,26,-1
 668 514 l 1,27,28
 649 423 649 423 641 368 c 128,-1,29
 633 313 633 313 633 285 c 0,30,31
 633 207 633 207 681.5 163 c 128,-1,32
 730 119 730 119 815 119 c 0,33,34
 885 119 885 119 956.5 148 c 128,-1,35
 1028 177 1028 177 1081 227 c 1,36,-1
 1047 55 l 1,37,38
 988 14 988 14 922 -7.5 c 128,-1,39
 856 -29 856 -29 784 -29 c 0,40,41
 678 -29 678 -29 608.5 12.5 c 128,-1,42
 539 54 539 54 514 131 c 1,43,44
 467 51 467 51 396.5 11 c 128,-1,45
 326 -29 326 -29 233 -29 c 0,46,47
 105 -29 105 -29 29 44 c 128,-1,48
 -47 117 -47 117 -47 240 c 0,49,50
 -47 440 -47 440 73.5 548.5 c 128,-1,51
 194 657 194 657 418 657 c 2,52,-1
 535 657 l 1,53,-1
 553 745 l 2,54,55
 557 765 557 765 559 786.5 c 128,-1,56
 561 808 561 808 561 834 c 0,57,58
 561 910 561 910 518.5 952.5 c 128,-1,59
 476 995 476 995 399 995 c 0,60,61
 350 995 350 995 283.5 973.5 c 128,-1,62
 217 952 217 952 141 911 c 1,63,-1
 176 1079 l 1,64,65
 255 1113 255 1113 324 1130 c 128,-1,66
 393 1147 393 1147 449 1147 c 0,67,68
 531 1147 531 1147 590 1114 c 128,-1,69
 649 1081 649 1081 680 1018 c 1,70,71
 730 1080 730 1080 800 1113.5 c 128,-1,72
 870 1147 870 1147 950 1147 c 0,73,74
 1071 1147 1071 1147 1142.5 1070 c 128,-1,75
 1214 993 1214 993 1214 862 c 0,76,77
 1214 823 1214 823 1205.5 759.5 c 128,-1,78
 1197 696 1197 696 1180 604 c 2,79,-1
 1163 514 l 1,26,-1
EndSplineSet
EndChar

StartChar: eth
Encoding: 240 240 176
Width: 1233
Flags: W
LayerCount: 2
Fore
SplineSet
870 1327 m 1,0,1
 993 1156 993 1156 1049.5 1007 c 128,-1,2
 1106 858 1106 858 1106 707 c 0,3,4
 1106 568 1106 568 1068.5 439.5 c 128,-1,5
 1031 311 1031 311 961 207 c 0,6,7
 884 91 884 91 770.5 31 c 128,-1,8
 657 -29 657 -29 516 -29 c 0,9,10
 323 -29 323 -29 221 78.5 c 128,-1,11
 119 186 119 186 119 389 c 0,12,13
 119 515 119 515 157 637 c 128,-1,14
 195 759 195 759 266 864 c 0,15,16
 342 975 342 975 457.5 1036.5 c 128,-1,17
 573 1098 573 1098 707 1098 c 0,18,19
 724 1098 724 1098 772 1093 c 0,20,21
 793 1091 793 1091 805 1090 c 1,22,23
 786 1128 786 1128 759.5 1171 c 128,-1,24
 733 1214 733 1214 692 1272 c 1,25,-1
 395 1178 l 1,26,-1
 365 1270 l 1,27,-1
 639 1356 l 1,28,-1
 498 1556 l 1,29,-1
 711 1556 l 1,30,-1
 815 1411 l 1,31,-1
 1102 1499 l 1,32,-1
 1130 1407 l 1,33,-1
 870 1327 l 1,0,1
874 907 m 1,34,35
 837 926 837 926 797 935 c 128,-1,36
 757 944 757 944 713 944 c 0,37,38
 534 944 534 944 423.5 788 c 128,-1,39
 313 632 313 632 313 379 c 0,40,41
 313 259 313 259 370.5 193 c 128,-1,42
 428 127 428 127 532 127 c 0,43,44
 699 127 699 127 805 287.5 c 128,-1,45
 911 448 911 448 911 705 c 0,46,47
 911 769 911 769 902 819.5 c 128,-1,48
 893 870 893 870 874 907 c 1,34,35
EndSplineSet
EndChar

StartChar: divide
Encoding: 247 247 183
Width: 1233
Flags: W
LayerCount: 2
Fore
SplineSet
494 395 m 1,0,-1
 739 395 l 1,1,-1
 739 150 l 1,2,-1
 494 150 l 1,3,-1
 494 395 l 1,0,-1
494 1135 m 1,4,-1
 739 1135 l 1,5,-1
 739 889 l 1,6,-1
 494 889 l 1,7,-1
 494 1135 l 1,4,-1
88 727 m 1,8,-1
 1145 727 l 1,9,-1
 1145 557 l 1,10,-1
 88 557 l 1,11,-1
 88 727 l 1,8,-1
EndSplineSet
EndChar

StartChar: oslash
Encoding: 248 248 184
Width: 1233
Flags: W
LayerCount: 2
Fore
SplineSet
911 825 m 1,0,-1
 377 186 l 1,1,2
 407 156 407 156 446 141.5 c 128,-1,3
 485 127 485 127 537 127 c 0,4,5
 700 127 700 127 810 298.5 c 128,-1,6
 920 470 920 470 920 733 c 0,7,8
 920 759 920 759 918 782 c 128,-1,9
 916 805 916 805 911 825 c 1,0,-1
176 133 m 1,10,11
 147 181 147 181 133 245 c 128,-1,12
 119 309 119 309 119 389 c 0,13,14
 119 531 119 531 159 666 c 128,-1,15
 199 801 199 801 274 911 c 0,16,17
 355 1030 355 1030 466.5 1088.5 c 128,-1,18
 578 1147 578 1147 725 1147 c 0,19,20
 803 1147 803 1147 863 1129 c 128,-1,21
 923 1111 923 1111 969 1075 c 1,22,-1
 1081 1212 l 1,23,-1
 1174 1135 l 1,24,-1
 1051 989 l 1,25,26
 1083 939 1083 939 1098.5 875 c 128,-1,27
 1114 811 1114 811 1114 727 c 0,28,29
 1114 589 1114 589 1073 452.5 c 128,-1,30
 1032 316 1032 316 958 207 c 0,31,32
 879 89 879 89 766 30 c 128,-1,33
 653 -29 653 -29 506 -29 c 0,34,35
 432 -29 432 -29 370.5 -10.5 c 128,-1,36
 309 8 309 8 258 45 c 1,37,-1
 139 -96 l 1,38,-1
 47 -20 l 1,39,-1
 176 133 l 1,10,11
852 938 m 1,40,41
 821 966 821 966 784.5 978.5 c 128,-1,42
 748 991 748 991 696 991 c 0,43,44
 532 991 532 991 422.5 819 c 128,-1,45
 313 647 313 647 313 379 c 0,46,47
 313 359 313 359 314.5 339.5 c 128,-1,48
 316 320 316 320 319 302 c 1,49,-1
 852 938 l 1,40,41
EndSplineSet
EndChar

StartChar: thorn
Encoding: 254 254 190
Width: 1233
Flags: W
LayerCount: 2
Fore
SplineSet
293 141 m 1,0,-1
 182 -426 l 1,1,-1
 -2 -426 l 1,2,-1
 385 1567 l 1,3,-1
 569 1567 l 1,4,-1
 455 977 l 1,5,6
 516 1059 516 1059 602 1103 c 128,-1,7
 688 1147 688 1147 788 1147 c 0,8,9
 950 1147 950 1147 1039 1043 c 128,-1,10
 1128 939 1128 939 1128 752 c 0,11,12
 1128 609 1128 609 1088.5 465 c 128,-1,13
 1049 321 1049 321 979 211 c 0,14,15
 904 93 904 93 802 32 c 128,-1,16
 700 -29 700 -29 578 -29 c 0,17,18
 478 -29 478 -29 407.5 13 c 128,-1,19
 337 55 337 55 293 141 c 1,0,-1
569 127 m 0,20,21
 650 127 650 127 717 171.5 c 128,-1,22
 784 216 784 216 829 301 c 0,23,24
 878 393 878 393 906 508.5 c 128,-1,25
 934 624 934 624 934 737 c 0,26,27
 934 864 934 864 882.5 927.5 c 128,-1,28
 831 991 831 991 729 991 c 0,29,30
 644 991 644 991 575.5 946 c 128,-1,31
 507 901 507 901 459 813 c 0,32,33
 410 725 410 725 382 611 c 128,-1,34
 354 497 354 497 354 383 c 0,35,36
 354 260 354 260 410 193.5 c 128,-1,37
 466 127 466 127 569 127 c 0,20,21
EndSplineSet
EndChar

StartChar: dcroat
Encoding: 273 273 209
Width: 1233
Flags: W
LayerCount: 2
Fore
SplineSet
686 991 m 0,0,1
 598 991 598 991 531 947.5 c 128,-1,2
 464 904 464 904 418 817 c 0,3,4
 369 727 369 727 342 612.5 c 128,-1,5
 315 498 315 498 315 383 c 0,6,7
 315 255 315 255 366 191 c 128,-1,8
 417 127 417 127 518 127 c 0,9,10
 603 127 603 127 671.5 172 c 128,-1,11
 740 217 740 217 788 305 c 0,12,13
 837 392 837 392 865 507.5 c 128,-1,14
 893 623 893 623 893 737 c 0,15,16
 893 857 893 857 838.5 924 c 128,-1,17
 784 991 784 991 686 991 c 0,0,1
954 977 m 1,18,-1
 1016 1286 l 1,19,-1
 684 1286 l 1,20,-1
 709 1407 l 1,21,-1
 1038 1407 l 1,22,-1
 1069 1556 l 1,23,-1
 1253 1556 l 1,24,-1
 1223 1407 l 1,25,-1
 1415 1407 l 1,26,-1
 1393 1286 l 1,27,-1
 1200 1286 l 1,28,-1
 950 0 l 1,29,-1
 766 0 l 1,30,-1
 793 141 l 1,31,32
 728 57 728 57 645.5 14 c 128,-1,33
 563 -29 563 -29 463 -29 c 0,34,35
 300 -29 300 -29 209.5 76 c 128,-1,36
 119 181 119 181 119 369 c 0,37,38
 119 512 119 512 159 656.5 c 128,-1,39
 199 801 199 801 268 909 c 0,40,41
 343 1027 343 1027 444.5 1087 c 128,-1,42
 546 1147 546 1147 670 1147 c 0,43,44
 767 1147 767 1147 840 1103.5 c 128,-1,45
 913 1060 913 1060 954 977 c 1,18,-1
EndSplineSet
EndChar

StartChar: Hbar
Encoding: 294 294 230
Width: 1233
Flags: W
LayerCount: 2
Fore
SplineSet
282 1493 m 1,0,-1
 484 1493 l 1,1,-1
 441 1269 l 1,2,-1
 995 1269 l 1,3,-1
 1038 1493 l 1,4,-1
 1240 1493 l 1,5,-1
 1197 1269 l 1,6,-1
 1332 1269 l 1,7,-1
 1300 1105 l 1,8,-1
 1165 1105 l 1,9,-1
 950 0 l 1,10,-1
 748 0 l 1,11,-1
 886 711 l 1,12,-1
 332 711 l 1,13,-1
 194 0 l 1,14,-1
 -8 0 l 1,15,-1
 207 1105 l 1,16,-1
 73 1105 l 1,17,-1
 105 1269 l 1,18,-1
 239 1269 l 1,19,-1
 282 1493 l 1,0,-1
409 1105 m 1,20,-1
 365 881 l 1,21,-1
 919 881 l 1,22,-1
 963 1105 l 1,23,-1
 409 1105 l 1,20,-1
EndSplineSet
EndChar

StartChar: hbar
Encoding: 295 295 231
Width: 1233
Flags: W
LayerCount: 2
Fore
SplineSet
1034 694 m 2,0,-1
 900 0 l 1,1,-1
 715 0 l 1,2,-1
 850 695 l 2,3,4
 862 760 862 760 862 809 c 0,5,6
 862 875 862 875 840 916 c 0,7,8
 800 987 800 987 688 987 c 0,9,10
 562 987 562 987 472 896 c 0,11,12
 384 808 384 808 351 633 c 2,13,-1
 228 0 l 1,14,-1
 44 0 l 1,15,-1
 291 1270 l 1,16,-1
 166 1270 l 1,17,-1
 198 1434 l 1,18,-1
 323 1434 l 1,19,-1
 346 1556 l 1,20,-1
 530 1556 l 1,21,-1
 507 1434 l 1,22,-1
 860 1434 l 1,23,-1
 828 1270 l 1,24,-1
 475 1270 l 1,25,-1
 413 952 l 1,26,27
 480 1048 480 1048 574 1098 c 0,28,29
 668 1147 668 1147 782 1147 c 0,30,31
 954 1147 954 1147 1016 1034 c 0,32,33
 1053 968 1053 968 1053 863 c 0,34,35
 1053 788 1053 788 1034 694 c 2,0,-1
EndSplineSet
EndChar

StartChar: dotlessi
Encoding: 305 305 241
Width: 1233
Flags: W
LayerCount: 2
Fore
SplineSet
358 1120 m 1,0,-1
 829 1120 l 1,1,-1
 639 143 l 1,2,-1
 1004 143 l 1,3,-1
 975 0 l 1,4,-1
 61 0 l 1,5,-1
 90 143 l 1,6,-1
 455 143 l 1,7,-1
 616 977 l 1,8,-1
 330 977 l 1,9,-1
 358 1120 l 1,0,-1
EndSplineSet
EndChar

StartChar: IJ
Encoding: 306 306 242
Width: 1233
Flags: W
LayerCount: 2
Fore
SplineSet
631 62 m 1,0,-1
 672 298 l 1,1,2
 715 219 715 219 773 177.5 c 128,-1,3
 831 136 831 136 899 136 c 0,4,5
 992 136 992 136 1042 209 c 128,-1,6
 1092 282 1092 282 1129 488 c 2,7,-1
 1280 1324 l 1,8,-1
 1031 1324 l 1,9,-1
 1062 1494 l 1,10,-1
 1443 1494 l 1,11,-1
 1261 488 l 2,12,13
 1209 199 1209 199 1124.5 85.5 c 128,-1,14
 1040 -28 1040 -28 885 -28 c 0,15,16
 821 -28 821 -28 757 -5 c 128,-1,17
 693 18 693 18 631 62 c 1,0,-1
283 1493 m 1,18,-1
 862 1493 l 1,19,-1
 830 1323 l 1,20,-1
 611 1323 l 1,21,-1
 395 170 l 1,22,-1
 614 170 l 1,23,-1
 582 0 l 1,24,-1
 3 0 l 1,25,-1
 35 170 l 1,26,-1
 253 170 l 1,27,-1
 470 1323 l 1,28,-1
 251 1323 l 1,29,-1
 283 1493 l 1,18,-1
EndSplineSet
EndChar

StartChar: ij
Encoding: 307 307 243
Width: 1233
Flags: W
LayerCount: 2
Fore
SplineSet
301 1121 m 1,0,-1
 772 1121 l 1,1,-1
 582 144 l 1,2,-1
 947 144 l 1,3,-1
 918 1 l 1,4,-1
 4 1 l 1,5,-1
 33 144 l 1,6,-1
 398 144 l 1,7,-1
 559 978 l 1,8,-1
 273 978 l 1,9,-1
 301 1121 l 1,0,-1
672 1557 m 1,10,-1
 856 1557 l 1,11,-1
 811 1324 l 1,12,-1
 627 1324 l 1,13,-1
 672 1557 l 1,10,-1
1020 -23 m 2,14,-1
 1212 974 l 1,15,-1
 895 974 l 1,16,-1
 923 1117 l 1,17,-1
 1425 1117 l 1,18,-1
 1204 -23 l 2,19,20
 1163 -236 1163 -236 1062 -332.5 c 128,-1,21
 961 -429 961 -429 780 -429 c 2,22,-1
 526 -429 l 1,23,-1
 557 -273 l 1,24,-1
 790 -273 l 2,25,26
 885 -273 885 -273 940 -213.5 c 128,-1,27
 995 -154 995 -154 1020 -23 c 2,14,-1
1325 1553 m 1,28,-1
 1509 1553 l 1,29,-1
 1464 1320 l 1,30,-1
 1280 1320 l 1,31,-1
 1325 1553 l 1,28,-1
EndSplineSet
EndChar

StartChar: kgreenlandic
Encoding: 312 312 248
Width: 1233
Flags: W
LayerCount: 2
Fore
SplineSet
345 1120 m 1,0,-1
 535 1120 l 1,1,-1
 444 655 l 1,2,-1
 1018 1120 l 1,3,-1
 1242 1120 l 1,4,-1
 719 698 l 1,5,-1
 1093 0 l 1,6,-1
 868 0 l 1,7,-1
 566 578 l 1,8,-1
 404 449 l 1,9,-1
 317 0 l 1,10,-1
 127 0 l 1,11,-1
 345 1120 l 1,0,-1
EndSplineSet
EndChar

StartChar: Lslash
Encoding: 321 321 257
Width: 1233
Flags: W
LayerCount: 2
Fore
SplineSet
371 1491 m 1,0,-1
 573 1491 l 1,1,-1
 459 899 l 1,2,-1
 756 1108 l 1,3,-1
 829 1008 l 1,4,-1
 430 729 l 1,5,-1
 317 168 l 1,6,-1
 1038 168 l 1,7,-1
 1006 0 l 1,8,-1
 82 0 l 1,9,-1
 195 563 l 1,10,-1
 45 459 l 1,11,-1
 -29 559 l 1,12,-1
 231 739 l 1,13,-1
 371 1491 l 1,0,-1
EndSplineSet
EndChar

StartChar: lslash
Encoding: 322 322 258
Width: 1233
Flags: W
LayerCount: 2
Fore
SplineSet
600 408 m 2,0,1
 593 371 593 371 589.5 344 c 128,-1,2
 586 317 586 317 586 301 c 0,3,4
 586 228 586 228 630.5 192 c 128,-1,5
 675 156 675 156 766 156 c 2,6,-1
 977 156 l 1,7,-1
 946 0 l 1,8,-1
 739 0 l 2,9,10
 566 0 566 0 481.5 63.5 c 128,-1,11
 397 127 397 127 397 258 c 0,12,13
 397 293 397 293 402 332.5 c 128,-1,14
 407 372 407 372 416 412 c 2,15,-1
 475 698 l 1,16,-1
 162 479 l 1,17,-1
 88 578 l 1,18,-1
 512 870 l 1,19,-1
 627 1423 l 1,20,-1
 311 1423 l 1,21,-1
 340 1567 l 1,22,-1
 840 1567 l 1,23,-1
 725 1014 l 1,24,-1
 1040 1231 l 1,25,-1
 1114 1133 l 1,26,-1
 690 840 l 1,27,-1
 600 408 l 2,0,1
EndSplineSet
EndChar

StartChar: Eng
Encoding: 330 330 266
Width: 1233
Flags: W
LayerCount: 2
Fore
SplineSet
975 -20 m 2,0,1
 937 -215 937 -215 827 -320 c 0,2,3
 717 -426 717 -426 552 -426 c 2,4,-1
 347 -426 l 1,5,-1
 377 -270 l 1,6,-1
 544 -270 l 2,7,8
 634 -270 634 -270 691 -208 c 0,9,10
 747 -146 747 -146 775 0 c 2,11,-1
 972 1009 l 2,12,13
 1007 1189 1007 1189 965 1273.5 c 128,-1,14
 923 1358 923 1358 799 1358 c 0,15,16
 658 1358 658 1358 561 1249 c 128,-1,17
 464 1140 464 1140 425 937 c 2,18,-1
 242 0 l 1,19,-1
 40 0 l 1,20,-1
 331 1493 l 1,21,-1
 533 1493 l 1,22,-1
 494 1295 l 1,23,24
 570 1406 570 1406 673 1464 c 128,-1,25
 776 1522 776 1522 902 1522 c 0,26,27
 1089 1522 1089 1522 1156.5 1391.5 c 128,-1,28
 1224 1261 1224 1261 1173 999 c 2,29,-1
 975 -20 l 2,0,1
EndSplineSet
EndChar

StartChar: eng
Encoding: 331 331 267
Width: 1233
Flags: W
LayerCount: 2
Fore
SplineSet
1116 694 m 2,0,-1
 977 -20 l 2,1,2
 939 -215 939 -215 830 -320 c 0,3,4
 719 -426 719 -426 554 -426 c 2,5,-1
 349 -426 l 1,6,-1
 379 -270 l 1,7,-1
 564 -270 l 2,8,9
 654 -270 654 -270 711 -208 c 128,-1,10
 768 -146 768 -146 792 -20 c 2,11,-1
 931 694 l 2,12,13
 943 759 943 759 943 809 c 0,14,15
 943 875 943 875 921 916 c 0,16,17
 882 987 882 987 769 987 c 0,18,19
 640 987 640 987 552 896 c 0,20,21
 465 804 465 804 432 633 c 2,22,-1
 309 0 l 1,23,-1
 125 0 l 1,24,-1
 343 1120 l 1,25,-1
 527 1120 l 1,26,-1
 494 952 l 1,27,28
 562 1048 562 1048 655 1098 c 0,29,30
 749 1147 749 1147 864 1147 c 0,31,32
 1035 1147 1035 1147 1097 1034 c 0,33,34
 1134 968 1134 968 1134 862 c 0,35,36
 1134 788 1134 788 1116 694 c 2,0,-1
EndSplineSet
EndChar

StartChar: OE
Encoding: 338 338 274
Width: 1233
Flags: W
LayerCount: 2
Fore
SplineSet
1104 170 m 1,0,-1
 1071 0 l 1,1,-1
 467 0 l 2,2,3
 249 0 249 0 142 102.5 c 128,-1,4
 35 205 35 205 35 414 c 0,5,6
 35 560 35 560 68 742 c 128,-1,7
 101 924 101 924 154 1067 c 0,8,9
 240 1298 240 1298 378.5 1395.5 c 128,-1,10
 517 1493 517 1493 758 1493 c 2,11,-1
 1352 1493 l 1,12,-1
 1319 1323 l 1,13,-1
 961 1323 l 1,14,-1
 874 881 l 1,15,-1
 1202 881 l 1,16,-1
 1169 711 l 1,17,-1
 842 711 l 1,18,-1
 735 170 l 1,19,-1
 1104 170 l 1,0,-1
702 1323 m 2,20,21
 584 1323 584 1323 501 1269 c 128,-1,22
 418 1215 418 1215 371 1106 c 0,23,24
 346 1051 346 1051 321.5 961 c 128,-1,25
 297 871 297 871 272 745 c 0,26,27
 251 639 251 639 240 556 c 128,-1,28
 229 473 229 473 229 412 c 0,29,30
 229 292 229 292 291.5 231 c 128,-1,31
 354 170 354 170 477 170 c 2,32,-1
 539 170 l 1,33,-1
 764 1323 l 1,34,-1
 702 1323 l 2,20,21
EndSplineSet
EndChar

StartChar: oe
Encoding: 339 339 275
Width: 1233
Flags: W
LayerCount: 2
Fore
SplineSet
735 1020 m 1,0,1
 793 1083 793 1083 860.5 1115 c 128,-1,2
 928 1147 928 1147 1008 1147 c 0,3,4
 1130 1147 1130 1147 1201 1071 c 128,-1,5
 1272 995 1272 995 1272 862 c 0,6,7
 1272 819 1272 819 1263.5 753.5 c 128,-1,8
 1255 688 1255 688 1239 604 c 2,9,-1
 1223 514 l 1,10,-1
 721 514 l 1,11,12
 703 423 703 423 694.5 368 c 128,-1,13
 686 313 686 313 686 285 c 0,14,15
 686 207 686 207 734.5 163 c 128,-1,16
 783 119 783 119 868 119 c 0,17,18
 938 119 938 119 1009.5 148 c 128,-1,19
 1081 177 1081 177 1135 227 c 1,20,-1
 1100 55 l 1,21,22
 1041 14 1041 14 975 -7.5 c 128,-1,23
 909 -29 909 -29 838 -29 c 0,24,25
 743 -29 743 -29 675 5.5 c 128,-1,26
 607 40 607 40 573 104 c 1,27,28
 515 39 515 39 443.5 5 c 128,-1,29
 372 -29 372 -29 291 -29 c 0,30,31
 147 -29 147 -29 70.5 54 c 128,-1,32
 -6 137 -6 137 -6 293 c 0,33,34
 -6 347 -6 347 1.5 414 c 128,-1,35
 9 481 9 481 25 559 c 0,36,37
 47 680 47 680 76.5 773.5 c 128,-1,38
 106 867 106 867 145 938 c 0,39,40
 201 1040 201 1040 291 1093.5 c 128,-1,41
 381 1147 381 1147 498 1147 c 0,42,43
 578 1147 578 1147 640 1113 c 128,-1,44
 702 1079 702 1079 735 1020 c 1,0,1
754 653 m 1,45,-1
 1083 653 l 1,46,-1
 1098 729 l 2,47,48
 1104 760 1104 760 1107 788 c 128,-1,49
 1110 816 1110 816 1110 842 c 0,50,51
 1110 913 1110 913 1077 952 c 128,-1,52
 1044 991 1044 991 983 991 c 0,53,54
 900 991 900 991 846.5 927 c 128,-1,55
 793 863 793 863 768 735 c 2,56,-1
 754 653 l 1,45,-1
311 123 m 0,57,58
 371 123 371 123 419 158.5 c 128,-1,59
 467 194 467 194 496 260 c 0,60,61
 514 304 514 304 534 378.5 c 128,-1,62
 554 453 554 453 575 559 c 0,63,64
 594 667 594 667 603 734.5 c 128,-1,65
 612 802 612 802 612 834 c 0,66,67
 612 911 612 911 576 953 c 128,-1,68
 540 995 540 995 473 995 c 0,69,70
 408 995 408 995 360.5 960.5 c 128,-1,71
 313 926 313 926 285 856 c 0,72,73
 263 803 263 803 243 729 c 128,-1,74
 223 655 223 655 205 559 c 0,75,76
 188 473 188 473 178 400 c 128,-1,77
 168 327 168 327 168 291 c 0,78,79
 168 210 168 210 205 166.5 c 128,-1,80
 242 123 242 123 311 123 c 0,57,58
EndSplineSet
EndChar

StartChar: Tbar
Encoding: 358 358 294
Width: 1233
Flags: W
LayerCount: 2
Fore
SplineSet
192 1493 m 1,0,-1
 1331 1493 l 1,1,-1
 1298 1323 l 1,2,-1
 831 1323 l 1,3,-1
 719 747 l 1,4,-1
 984 747 l 1,5,-1
 951 577 l 1,6,-1
 686 577 l 1,7,-1
 574 0 l 1,8,-1
 371 0 l 1,9,-1
 483 577 l 1,10,-1
 218 577 l 1,11,-1
 251 747 l 1,12,-1
 516 747 l 1,13,-1
 628 1323 l 1,14,-1
 159 1323 l 1,15,-1
 192 1493 l 1,0,-1
EndSplineSet
EndChar

StartChar: tbar
Encoding: 359 359 295
Width: 1233
Flags: W
LayerCount: 2
Fore
SplineSet
754 1438 m 1,0,-1
 692 1120 l 1,1,-1
 1110 1120 l 1,2,-1
 1082 977 l 1,3,-1
 664 977 l 1,4,-1
 619 744 l 1,5,-1
 848 744 l 1,6,-1
 820 602 l 1,7,-1
 591 602 l 1,8,-1
 546 369 l 2,9,10
 537 320 537 320 537 283 c 0,11,12
 537 226 537 226 559 196 c 0,13,14
 597 147 597 147 714 147 c 2,15,-1
 921 147 l 1,16,-1
 892 0 l 1,17,-1
 667 0 l 2,18,19
 460 0 460 0 391 83 c 0,20,21
 348 136 348 136 348 237 c 0,22,23
 348 295 348 295 362 369 c 2,24,-1
 407 602 l 1,25,-1
 178 602 l 1,26,-1
 206 744 l 1,27,-1
 435 744 l 1,28,-1
 480 977 l 1,29,-1
 181 977 l 1,30,-1
 209 1120 l 1,31,-1
 508 1120 l 1,32,-1
 570 1438 l 1,33,-1
 754 1438 l 1,0,-1
EndSplineSet
EndChar

StartChar: longs
Encoding: 383 383 319
Width: 1233
Flags: W
LayerCount: 2
Fore
SplineSet
557 0 m 1,0,-1
 373 0 l 1,1,-1
 563 977 l 1,2,-1
 264 977 l 1,3,-1
 293 1120 l 1,4,-1
 590 1120 l 1,5,-1
 606 1198 l 2,6,7
 644 1391 644 1391 740.5 1473.5 c 128,-1,8
 837 1556 837 1556 1024 1556 c 2,9,-1
 1245 1556 l 1,10,-1
 1214 1403 l 1,11,-1
 1006 1403 l 2,12,13
 911 1403 911 1403 863 1361.5 c 128,-1,14
 815 1320 815 1320 795 1219 c 2,15,-1
 557 0 l 1,0,-1
EndSplineSet
EndChar

StartChar: uni0180
Encoding: 384 384 320
Width: 1233
Flags: W
LayerCount: 2
Fore
SplineSet
434 977 m 1,0,1
 496 1061 496 1061 578 1104 c 128,-1,2
 660 1147 660 1147 762 1147 c 0,3,4
 926 1147 926 1147 1017 1043.5 c 128,-1,5
 1108 940 1108 940 1108 754 c 0,6,7
 1108 609 1108 609 1067 465 c 0,8,9
 1026 322 1026 322 954 213 c 0,10,11
 877 98 877 98 768 34 c 0,12,13
 659 -29 659 -29 535 -29 c 0,14,15
 437 -29 437 -29 370.5 14 c 128,-1,16
 304 57 304 57 270 141 c 1,17,-1
 244 0 l 1,18,-1
 59 0 l 1,19,-1
 306 1270 l 1,20,-1
 166 1270 l 1,21,-1
 198 1434 l 1,22,-1
 338 1434 l 1,23,-1
 362 1556 l 1,24,-1
 547 1556 l 1,25,-1
 523 1434 l 1,26,-1
 860 1434 l 1,27,-1
 828 1270 l 1,28,-1
 491 1270 l 1,29,-1
 434 977 l 1,0,1
539 127 m 0,30,31
 623 127 623 127 691 172 c 128,-1,32
 759 217 759 217 805 303 c 0,33,34
 854 397 854 397 882.5 513 c 128,-1,35
 911 629 911 629 911 737 c 0,36,37
 911 865 911 865 860.5 929 c 128,-1,38
 810 993 810 993 709 993 c 0,39,40
 626 993 626 993 557.5 947 c 128,-1,41
 489 901 489 901 438 813 c 0,42,43
 390 727 390 727 361 610.5 c 128,-1,44
 332 494 332 494 332 383 c 0,45,46
 332 260 332 260 385.5 193.5 c 128,-1,47
 439 127 439 127 539 127 c 0,30,31
EndSplineSet
EndChar

StartChar: uni0181
Encoding: 385 385 321
Width: 1233
Flags: W
LayerCount: 2
Fore
SplineSet
652 1327 m 1,0,-1
 565 877 l 1,1,-1
 681 877 l 2,2,3
 829 877 829 877 912 932.5 c 128,-1,4
 995 988 995 988 1018 1102 c 0,5,6
 1040 1215 1040 1215 978 1271 c 128,-1,7
 916 1327 916 1327 768 1327 c 2,8,-1
 652 1327 l 1,0,-1
816 1493 m 2,9,10
 1047 1493 1047 1493 1153 1397 c 128,-1,11
 1259 1301 1259 1301 1225 1124 c 0,12,13
 1198 987 1198 987 1118.5 906 c 128,-1,14
 1039 825 1039 825 911 805 c 1,15,16
 1054 773 1054 773 1116.5 671.5 c 128,-1,17
 1179 570 1179 570 1150 418 c 0,18,19
 1111 218 1111 218 953.5 109 c 128,-1,20
 796 0 796 0 545 0 c 2,21,-1
 192 0 l 1,22,-1
 450 1327 l 1,23,24
 397 1327 397 1327 328 1280 c 0,25,26
 272 1242 272 1242 250 1128 c 2,27,-1
 240 1079 l 1,28,-1
 84 1079 l 1,29,-1
 98 1149 l 2,30,31
 133 1330 133 1330 245 1411.5 c 128,-1,32
 357 1493 357 1493 483 1493 c 2,33,-1
 816 1493 l 2,9,10
533 713 m 1,34,-1
 427 166 l 1,35,-1
 568 166 l 2,36,37
 731 166 731 166 822.5 233.5 c 128,-1,38
 914 301 914 301 941 440 c 0,39,40
 968 580 968 580 902.5 646.5 c 128,-1,41
 837 713 837 713 674 713 c 2,42,-1
 533 713 l 1,34,-1
EndSplineSet
EndChar

StartChar: uni0183
Encoding: 387 387 323
Width: 1233
Flags: W
LayerCount: 2
Fore
SplineSet
418 977 m 1,0,1
 478 1059 478 1059 564.5 1103 c 128,-1,2
 651 1147 651 1147 753 1147 c 0,3,4
 955 1147 955 1147 1040.5 991.5 c 128,-1,5
 1126 836 1126 836 1073 563 c 0,6,7
 1019 286 1019 286 872 128.5 c 128,-1,8
 725 -29 725 -29 522 -29 c 0,9,10
 422 -29 422 -29 354 14.5 c 128,-1,11
 286 58 286 58 256 141 c 1,12,-1
 229 0 l 1,13,-1
 45 0 l 1,14,-1
 347 1556 l 1,15,-1
 1099 1556 l 1,16,-1
 1063 1372 l 1,17,-1
 495 1372 l 1,18,-1
 418 977 l 1,0,1
878.5 559 m 128,-1,20
 920 773 920 773 873 882 c 128,-1,21
 826 991 826 991 693 991 c 0,22,23
 559 991 559 991 469 881.5 c 128,-1,24
 379 772 379 772 337 559 c 0,25,26
 296 347 296 347 343.5 237 c 128,-1,27
 391 127 391 127 525 127 c 0,28,29
 658 127 658 127 747.5 236 c 128,-1,19
 837 345 837 345 878.5 559 c 128,-1,20
EndSplineSet
EndChar

StartChar: uni0184
Encoding: 388 388 324
Width: 1233
Flags: W
LayerCount: 2
Fore
SplineSet
410 713 m 1,0,-1
 304 166 l 1,1,-1
 543 166 l 2,2,3
 719 166 719 166 806 228 c 0,4,5
 893 289 893 289 920 430 c 0,6,7
 949 576 949 576 883 644 c 0,8,9
 817 713 817 713 649 713 c 2,10,-1
 410 713 l 1,0,-1
442 877 m 1,11,-1
 677 877 l 1,12,13
 1053 862 1053 862 1117 671 c 0,14,15
 1151 571 1151 571 1120 410 c 0,16,17
 1080 207 1080 207 927 104 c 0,18,19
 774 0 774 0 511 0 c 2,20,-1
 69 0 l 1,21,-1
 253 948 l 1,22,-1
 131 1176 l 1,23,-1
 562 1493 l 1,24,-1
 442 877 l 1,11,-1
EndSplineSet
EndChar

StartChar: uni0185
Encoding: 389 389 325
Width: 1233
Flags: W
LayerCount: 2
Fore
SplineSet
938.5 559 m 128,-1,1
 980 773 980 773 933 882 c 128,-1,2
 886 991 886 991 754 991 c 0,3,4
 620 991 620 991 529 882 c 0,5,6
 440 772 440 772 398 559 c 0,7,8
 357 347 357 347 404 237 c 0,9,10
 452 127 452 127 586 127 c 0,11,12
 718 127 718 127 807.5 236 c 128,-1,0
 897 345 897 345 938.5 559 c 128,-1,1
480 977 m 1,13,14
 539 1059 539 1059 625 1103 c 128,-1,15
 711 1147 711 1147 813 1147 c 0,16,17
 1015 1147 1015 1147 1100 992 c 0,18,19
 1186 836 1186 836 1133 563 c 0,20,21
 1079 286 1079 286 932 128 c 0,22,23
 786 -29 786 -29 582 -29 c 0,24,25
 482 -29 482 -29 414 14 c 0,26,27
 347 58 347 58 317 141 c 1,28,-1
 290 0 l 1,29,-1
 106 0 l 1,30,-1
 290 948 l 1,31,-1
 140 1176 l 1,32,-1
 592 1556 l 1,33,-1
 480 977 l 1,13,14
EndSplineSet
EndChar

StartChar: uni0186
Encoding: 390 390 326
Width: 1233
Flags: W
LayerCount: 2
Fore
SplineSet
4 53 m 1,0,1
 4 53 4 53 45 260 c 1,2,3
 106 199 106 199 184 167 c 128,-1,4
 262 135 262 135 350 135 c 0,5,6
 547 135 547 135 674.5 287 c 128,-1,7
 802 439 802 439 862 745 c 0,8,9
 922 1052 922 1052 853.5 1204 c 128,-1,10
 785 1356 785 1356 588 1356 c 0,11,12
 502 1356 502 1356 410.5 1324 c 128,-1,13
 319 1292 319 1292 233 1231 c 1,14,-1
 274 1438 l 1,15,16
 359 1479 359 1479 444 1499.5 c 128,-1,17
 529 1520 529 1520 620 1520 c 0,18,19
 905 1520 905 1520 1024.5 1315.5 c 128,-1,20
 1144 1111 1144 1111 1073 745 c 0,21,22
 1001 377 1001 377 803 174 c 128,-1,23
 605 -29 605 -29 318 -29 c 0,24,25
 227 -29 227 -29 150 -8.5 c 128,-1,26
 73 12 73 12 4 53 c 1,0,1
EndSplineSet
EndChar

StartChar: uni0187
Encoding: 391 391 327
Width: 1233
Flags: W
LayerCount: 2
Fore
SplineSet
848 53 m 1,0,1
 763 12 763 12 678 -8.5 c 128,-1,2
 593 -29 593 -29 502 -29 c 0,3,4
 215 -29 215 -29 96 174 c 128,-1,5
 -23 377 -23 377 48 745 c 0,6,7
 106 1043 106 1043 305.5 1247.5 c 128,-1,8
 505 1452 505 1452 790 1452 c 0,9,10
 879 1452 879 1452 955 1432 c 1,11,12
 987 1483 987 1483 1040 1533 c 0,13,14
 1150 1639 1150 1639 1315 1639 c 2,15,-1
 1335 1639 l 1,16,-1
 1305 1483 l 1,17,18
 1221 1483 1221 1483 1158 1421 c 0,19,20
 1103 1368 1103 1368 1077 1233 c 2,21,-1
 1064 1163 l 1,22,23
 1001 1224 1001 1224 922.5 1256 c 128,-1,24
 844 1288 844 1288 758 1288 c 0,25,26
 561 1288 561 1288 433.5 1136 c 128,-1,27
 306 984 306 984 259 745 c 0,28,29
 200 439 200 439 268.5 287 c 128,-1,30
 337 135 337 135 534 135 c 0,31,32
 622 135 622 135 712.5 167 c 128,-1,33
 803 199 803 199 888 260 c 1,34,-1
 848 53 l 1,0,1
EndSplineSet
EndChar

StartChar: uni0188
Encoding: 392 392 328
Width: 1233
Flags: W
LayerCount: 2
Fore
SplineSet
836 57 m 1,0,1
 753 14 753 14 670.5 -7.5 c 128,-1,2
 588 -29 588 -29 506 -29 c 0,3,4
 246 -29 246 -29 130 127 c 128,-1,5
 14 283 14 283 67.5 559 c 128,-1,6
 121 835 121 835 298 991 c 128,-1,7
 475 1147 475 1147 735 1147 c 0,8,9
 805 1147 805 1147 869 1131 c 1,10,11
 910 1245 910 1245 984 1316 c 0,12,13
 1095 1422 1095 1422 1260 1422 c 2,14,-1
 1280 1422 l 1,15,-1
 1250 1266 l 1,16,17
 1160 1266 1160 1266 1103 1204 c 0,18,19
 1047 1142 1047 1142 1022 1016 c 2,20,-1
 993 868 l 1,21,22
 933 933 933 933 865 962 c 128,-1,23
 797 991 797 991 704 991 c 0,24,25
 531 991 531 991 416.5 879 c 128,-1,26
 302 767 302 767 261 559 c 0,27,28
 221 352 221 352 292.5 239.5 c 128,-1,29
 364 127 364 127 536 127 c 0,30,31
 632 127 632 127 714 156.5 c 128,-1,32
 796 186 796 186 873 248 c 1,33,-1
 836 57 l 1,0,1
EndSplineSet
EndChar

StartChar: uni018A
Encoding: 394 394 330
Width: 1233
Flags: W
LayerCount: 2
Fore
SplineSet
471 1493 m 2,0,-1
 704 1493 l 2,1,2
 1046 1493 1046 1493 1172.5 1311 c 128,-1,3
 1299 1129 1299 1129 1225 745 c 0,4,5
 1150 363 1150 363 953 181.5 c 128,-1,6
 756 0 756 0 414 0 c 2,7,-1
 181 0 l 1,8,-1
 439 1327 l 1,9,10
 385 1327 385 1327 316 1280 c 0,11,12
 260 1242 260 1242 238 1128 c 2,13,-1
 229 1079 l 1,14,-1
 73 1079 l 1,15,-1
 86 1149 l 2,16,17
 121 1330 121 1330 233 1411.5 c 128,-1,18
 345 1493 345 1493 471 1493 c 2,0,-1
442 166 m 2,19,20
 697 166 697 166 822.5 291.5 c 128,-1,21
 948 417 948 417 1012 745 c 0,22,23
 1076 1076 1076 1076 1000 1201.5 c 128,-1,24
 924 1327 924 1327 668 1327 c 2,25,-1
 642 1327 l 1,26,-1
 416 166 l 1,27,-1
 442 166 l 2,19,20
EndSplineSet
EndChar

StartChar: uni018B
Encoding: 395 395 331
Width: 1233
Flags: W
LayerCount: 2
Fore
SplineSet
927 713 m 1,0,-1
 688 713 l 2,1,2
 520 713 520 713 428 644.5 c 128,-1,3
 336 576 336 576 307 430 c 0,4,5
 280 289 280 289 343 227.5 c 128,-1,6
 406 166 406 166 582 166 c 2,7,-1
 821 166 l 1,8,-1
 927 713 l 1,0,-1
348 1327 m 1,9,-1
 380 1493 l 1,10,-1
 1282 1493 l 1,11,-1
 992 0 l 1,12,-1
 550 0 l 2,13,14
 287 0 287 0 174 103.5 c 128,-1,15
 61 207 61 207 101 410 c 0,16,17
 132 571 132 571 204 671 c 0,18,19
 343 862 343 862 724 877 c 1,20,-1
 959 877 l 1,21,-1
 1047 1327 l 1,22,-1
 348 1327 l 1,9,-1
EndSplineSet
EndChar

StartChar: uni018C
Encoding: 396 396 332
Width: 1233
Flags: W
LayerCount: 2
Fore
SplineSet
892 713 m 1,0,-1
 653 713 l 2,1,2
 485 713 485 713 393 644.5 c 128,-1,3
 301 576 301 576 272 430 c 0,4,5
 245 289 245 289 308 227.5 c 128,-1,6
 371 166 371 166 547 166 c 2,7,-1
 786 166 l 1,8,-1
 892 713 l 1,0,-1
313 1327 m 1,9,-1
 345 1493 l 1,10,-1
 1247 1493 l 1,11,-1
 957 0 l 1,12,-1
 515 0 l 2,13,14
 252 0 252 0 139 103.5 c 128,-1,15
 26 207 26 207 66 410 c 0,16,17
 97 571 97 571 169 671 c 0,18,19
 308 862 308 862 689 877 c 1,20,-1
 924 877 l 1,21,-1
 1012 1327 l 1,22,-1
 313 1327 l 1,9,-1
EndSplineSet
EndChar

StartChar: uni018D
Encoding: 397 397 333
Width: 1233
Flags: W
LayerCount: 2
Fore
SplineSet
311.5 559 m 128,-1,1
 270 345 270 345 316.5 236 c 128,-1,2
 363 127 363 127 496 127 c 0,3,4
 630 127 630 127 720.5 237 c 128,-1,5
 811 347 811 347 852 559 c 0,6,7
 894 772 894 772 846 881.5 c 128,-1,8
 798 991 798 991 664 991 c 0,9,10
 531 991 531 991 442 882 c 128,-1,0
 353 773 353 773 311.5 559 c 128,-1,1
442 1372 m 1,11,-1
 478 1556 l 1,12,-1
 1230 1556 l 1,13,-1
 928 0 l 1,14,-1
 744 0 l 1,15,-1
 771 141 l 1,16,17
 709 58 709 58 624 14.5 c 128,-1,18
 539 -29 539 -29 439 -29 c 0,19,20
 236 -29 236 -29 150 128.5 c 128,-1,21
 64 286 64 286 118 563 c 0,22,23
 171 836 171 836 317.5 991.5 c 128,-1,24
 464 1147 464 1147 666 1147 c 0,25,26
 768 1147 768 1147 836.5 1103 c 128,-1,27
 905 1059 905 1059 934 977 c 1,28,-1
 1010 1372 l 1,29,-1
 442 1372 l 1,11,-1
EndSplineSet
EndChar

StartChar: uni018E
Encoding: 398 398 334
Width: 1233
Flags: W
LayerCount: 2
Fore
SplineSet
1247 1493 m 1,0,-1
 957 0 l 1,1,-1
 52 0 l 1,2,-1
 85 170 l 1,3,-1
 788 170 l 1,4,-1
 893 711 l 1,5,-1
 239 711 l 1,6,-1
 272 881 l 1,7,-1
 926 881 l 1,8,-1
 1012 1323 l 1,9,-1
 328 1323 l 1,10,-1
 361 1493 l 1,11,-1
 1247 1493 l 1,0,-1
EndSplineSet
EndChar

StartChar: uni018F
Encoding: 399 399 335
Width: 1233
Flags: W
LayerCount: 2
Fore
SplineSet
117 745 m 2,0,-1
 133 828 l 1,1,-1
 920 828 l 1,2,3
 964 1092 964 1092 929 1215 c 0,4,5
 889 1356 889 1356 735 1356 c 0,6,7
 649 1356 649 1356 557.5 1324 c 128,-1,8
 466 1292 466 1292 380 1231 c 1,9,-1
 421 1438 l 1,10,11
 506 1479 506 1479 591 1499.5 c 128,-1,12
 676 1520 676 1520 767 1520 c 0,13,14
 1020 1520 1020 1520 1106 1328 c 128,-1,15
 1192 1136 1192 1136 1116 745 c 0,16,17
 1040 355 1040 355 879 163 c 128,-1,18
 718 -29 718 -29 465 -29 c 128,-1,19
 212 -29 212 -29 126.5 162 c 128,-1,20
 41 353 41 353 117 745 c 2,0,-1
884 644 m 1,21,-1
 310 644 l 1,22,23
 271 394 271 394 304 276 c 0,24,25
 344 135 344 135 497 135 c 0,26,27
 651 135 651 135 746 276 c 0,28,29
 826 393 826 393 884 644 c 1,21,-1
EndSplineSet
EndChar

StartChar: uni0190
Encoding: 400 400 336
Width: 1233
Flags: W
LayerCount: 2
Fore
SplineSet
450 799 m 1,0,1
 326 833 326 833 273.5 915 c 128,-1,2
 221 997 221 997 245 1120 c 0,3,4
 280 1301 280 1301 432 1410.5 c 128,-1,5
 584 1520 584 1520 802 1520 c 0,6,7
 875 1520 875 1520 966 1504 c 128,-1,8
 1057 1488 1057 1488 1172 1456 c 1,9,-1
 1136 1270 l 1,10,11
 1040 1310 1040 1310 949 1330 c 128,-1,12
 858 1350 858 1350 769 1350 c 0,13,14
 635 1350 635 1350 550.5 1288.5 c 128,-1,15
 466 1227 466 1227 443 1112 c 0,16,17
 422 1003 422 1003 488 942 c 128,-1,18
 554 881 554 881 693 881 c 2,19,-1
 847 881 l 1,20,-1
 815 715 l 1,21,-1
 661 715 l 2,22,23
 509 715 509 715 405 638.5 c 128,-1,24
 301 562 301 562 276 432 c 0,25,26
 249 291 249 291 323 216 c 128,-1,27
 397 141 397 141 563 141 c 0,28,29
 661 141 661 141 765.5 167 c 128,-1,30
 870 193 870 193 982 246 c 1,31,-1
 943 45 l 1,32,33
 833 9 833 9 722 -10 c 128,-1,34
 611 -29 611 -29 508 -29 c 0,35,36
 263 -29 263 -29 147.5 88.5 c 128,-1,37
 32 206 32 206 72 412 c 0,38,39
 101 561 101 561 198.5 660.5 c 128,-1,40
 296 760 296 760 450 799 c 1,0,1
EndSplineSet
EndChar

StartChar: uni0191
Encoding: 401 401 337
Width: 1233
Flags: W
LayerCount: 2
Fore
SplineSet
567 1493 m 1,0,-1
 1357 1493 l 1,1,-1
 1323 1323 l 1,2,-1
 736 1323 l 1,3,-1
 651 883 l 1,4,-1
 1175 883 l 1,5,-1
 1142 713 l 1,6,-1
 618 713 l 1,7,-1
 475 -20 l 2,8,9
 438 -215 438 -215 328 -320 c 0,10,11
 217 -426 217 -426 52 -426 c 2,12,-1
 -124 -426 l 1,13,-1
 -93 -270 l 1,14,-1
 45 -270 l 2,15,16
 135 -270 135 -270 192 -208 c 0,17,18
 248 -146 248 -146 272 -20 c 2,19,-1
 567 1493 l 1,0,-1
EndSplineSet
EndChar

StartChar: florin
Encoding: 402 402 338
Width: 1233
Flags: W
LayerCount: 2
Fore
SplineSet
1256 1556 m 1,0,-1
 1226 1403 l 1,1,-1
 1017 1403 l 1,2,-1
 1015 1403 l 2,3,4
 917 1403 917 1403 871 1362 c 0,5,6
 825 1322 825 1322 805 1219 c 2,7,-1
 786 1120 l 1,8,-1
 1171 1120 l 1,9,-1
 1143 977 l 1,10,-1
 758 977 l 1,11,-1
 564 -20 l 2,12,13
 523 -234 523 -234 423 -330 c 0,14,15
 322 -426 322 -426 141 -426 c 2,16,-1
 71 -426 l 1,17,-1
 102 -270 l 1,18,-1
 151 -270 l 2,19,20
 256 -270 256 -270 303 -222 c 0,21,22
 351 -173 351 -173 380 -20 c 2,23,-1
 572 977 l 1,24,-1
 275 977 l 1,25,-1
 303 1120 l 1,26,-1
 599 1120 l 1,27,-1
 614 1198 l 2,28,29
 649 1378 649 1378 754 1470 c 0,30,31
 798 1509 798 1509 863 1530 c 0,32,33
 937 1556 937 1556 1035 1556 c 2,34,-1
 1043 1556 l 1,35,-1
 1047 1556 l 1,36,-1
 1256 1556 l 1,0,-1
EndSplineSet
EndChar

StartChar: uni0193
Encoding: 403 403 339
Width: 1233
Flags: W
LayerCount: 2
Fore
SplineSet
921 123 m 1,0,1
 825 48 825 48 716 9.5 c 128,-1,2
 607 -29 607 -29 489 -29 c 0,3,4
 205 -29 205 -29 86.5 174.5 c 128,-1,5
 -32 378 -32 378 40 745 c 0,6,7
 111 1111 111 1111 310.5 1315.5 c 128,-1,8
 510 1520 510 1520 795 1520 c 0,9,10
 889 1520 889 1520 970 1494 c 0,11,12
 986 1488 986 1488 1002 1482 c 1,13,14
 1022 1508 1022 1508 1048 1533 c 0,15,16
 1159 1639 1159 1639 1324 1639 c 2,17,-1
 1344 1639 l 1,18,-1
 1313 1483 l 1,19,20
 1229 1483 1229 1483 1166 1421 c 0,21,22
 1112 1368 1112 1368 1086 1233 c 2,23,-1
 1080 1206 l 1,24,25
 1014 1283 1014 1283 936.5 1319.5 c 128,-1,26
 859 1356 859 1356 764 1356 c 0,27,28
 567 1356 567 1356 438.5 1203.5 c 128,-1,29
 310 1051 310 1051 251 745 c 0,30,31
 190 434 190 434 256.5 284.5 c 128,-1,32
 323 135 323 135 521 135 c 0,33,34
 588 135 588 135 641.5 150.5 c 128,-1,35
 695 166 695 166 743 199 c 1,36,-1
 821 600 l 1,37,-1
 604 600 l 1,38,-1
 636 766 l 1,39,-1
 1046 766 l 1,40,-1
 921 123 l 1,0,1
EndSplineSet
EndChar

StartChar: uni0194
Encoding: 404 404 340
Width: 1233
Flags: W
LayerCount: 2
Fore
SplineSet
767 650 m 1,0,1
 1007 201 1007 201 927 -194 c 0,2,3
 878 -430 878 -430 465 -430 c 0,4,5
 57 -430 57 -430 71 -194 c 0,6,7
 93 172 93 172 531 657 c 1,8,-1
 201 1353 l 1,9,-1
 418 1353 l 1,10,-1
 681 798 l 1,11,-1
 1162 1353 l 1,12,-1
 1379 1353 l 1,13,-1
 767 650 l 1,0,1
607 495 m 1,14,15
 343 194 343 194 287 -130 c 0,16,17
 263 -268 263 -268 476 -268 c 0,18,19
 681 -268 681 -268 707 -130 c 0,20,21
 768 200 768 200 607 495 c 1,14,15
EndSplineSet
EndChar

StartChar: uni0195
Encoding: 405 405 341
Width: 1233
Flags: W
LayerCount: 2
Fore
SplineSet
739 694 m 2,0,-1
 683 406 l 1,1,-1
 682 406 l 1,2,3
 652 253 652 253 677 204 c 0,4,5
 704 152 704 152 760 156 c 0,6,7
 780 158 780 158 847 231 c 0,8,9
 908 297 908 297 938 453 c 2,10,-1
 1018 864 l 1,11,-1
 1185 864 l 1,12,-1
 1105 453 l 2,13,14
 1060 225 1060 225 962.5 112.5 c 128,-1,15
 865 0 865 0 711 0 c 0,16,17
 584 0 584 0 529 96 c 256,18,19
 474 192 474 192 516 406 c 2,20,-1
 572 694 l 2,21,22
 601 845 601 845 567.5 916 c 128,-1,23
 534 987 534 987 468 987 c 0,24,25
 396 987 396 987 316 895.5 c 128,-1,26
 236 804 236 804 202 633 c 2,27,-1
 79 0 l 1,28,-1
 -86 0 l 1,29,-1
 216 1556 l 1,30,-1
 382 1556 l 1,31,-1
 264 952 l 1,32,33
 368 1086 368 1086 387 1098 c 0,34,35
 472 1147 472 1147 557 1147 c 0,36,37
 674 1147 674 1147 728.5 1034.5 c 128,-1,38
 783 922 783 922 739 694 c 2,0,-1
EndSplineSet
EndChar

StartChar: uni0196
Encoding: 406 406 342
Width: 1233
Flags: W
LayerCount: 2
Fore
SplineSet
626 1323 m 1,0,-1
 313 1323 l 1,1,-1
 346 1493 l 1,2,-1
 1175 1493 l 1,3,-1
 1142 1323 l 1,4,-1
 829 1323 l 1,5,-1
 654 421 l 2,6,7
 629 294 629 294 661 233 c 0,8,9
 694 171 694 171 784 171 c 2,10,-1
 969 171 l 1,11,-1
 937 0 l 1,12,-1
 720 0 l 2,13,14
 550 0 550 0 478 106 c 0,15,16
 409 208 409 208 448 406 c 2,17,-1
 626 1323 l 1,0,-1
EndSplineSet
EndChar

StartChar: uni0197
Encoding: 407 407 343
Width: 1233
Flags: W
LayerCount: 2
Fore
SplineSet
346 1493 m 1,0,-1
 1175 1493 l 1,1,-1
 1142 1323 l 1,2,-1
 829 1323 l 1,3,-1
 717 747 l 1,4,-1
 719 747 l 1,5,-1
 984 747 l 1,6,-1
 951 577 l 1,7,-1
 686 577 l 1,8,-1
 684 577 l 1,9,-1
 605 170 l 1,10,-1
 918 170 l 1,11,-1
 885 0 l 1,12,-1
 56 0 l 1,13,-1
 89 170 l 1,14,-1
 402 170 l 1,15,-1
 481 577 l 1,16,-1
 218 577 l 1,17,-1
 251 747 l 1,18,-1
 514 747 l 1,19,-1
 626 1323 l 1,20,-1
 313 1323 l 1,21,-1
 346 1493 l 1,0,-1
EndSplineSet
EndChar

StartChar: uni0198
Encoding: 408 408 344
Width: 1233
Flags: W
LayerCount: 2
Fore
SplineSet
732 1180 m 1,0,1
 926 1350 926 1350 1034 1362 c 0,2,3
 1190 1380 1190 1380 1274 1266 c 2,4,-1
 1311 1215 l 1,5,-1
 1183 1101 l 1,6,-1
 1157 1138 l 2,7,8
 1112 1204 1112 1204 1025 1185 c 0,9,10
 956 1170 956 1170 825 1055 c 2,11,-1
 628 883 l 1,12,-1
 1054 0 l 1,13,-1
 810 0 l 1,14,-1
 468 748 l 1,15,-1
 282 584 l 1,16,-1
 169 0 l 1,17,-1
 -34 0 l 1,18,-1
 256 1493 l 1,19,-1
 459 1493 l 1,20,-1
 330 829 l 1,21,-1
 732 1180 l 1,22,-1
 732 1180 l 1,0,1
EndSplineSet
EndChar

StartChar: uni0199
Encoding: 409 409 345
Width: 1233
Flags: W
LayerCount: 2
Fore
SplineSet
280 1002 m 1,0,-1
 308 1150 l 2,1,2
 346 1345 346 1345 456 1450 c 0,3,4
 566 1556 566 1556 731 1556 c 2,5,-1
 936 1556 l 1,6,-1
 906 1400 l 1,7,-1
 721 1400 l 2,8,9
 631 1400 631 1400 574 1338 c 0,10,11
 518 1276 518 1276 493 1150 c 1,12,-1
 498 1150 l 1,13,-1
 402 655 l 1,14,-1
 975 1120 l 1,15,-1
 1199 1120 l 1,16,-1
 676 698 l 1,17,-1
 1051 0 l 1,18,-1
 826 0 l 1,19,-1
 524 578 l 1,20,-1
 362 449 l 1,21,-1
 275 0 l 1,22,-1
 85 0 l 1,23,-1
 280 1002 l 1,0,-1
EndSplineSet
EndChar

StartChar: uni019A
Encoding: 410 410 346
Width: 1233
Flags: W
LayerCount: 2
Fore
SplineSet
566 406 m 2,0,1
 542 282 542 282 575 219 c 128,-1,2
 608 156 608 156 697 156 c 2,3,-1
 912 156 l 1,4,-1
 882 0 l 1,5,-1
 649 0 l 2,6,7
 484 0 484 0 414 106 c 128,-1,8
 344 212 344 212 382 406 c 2,9,-1
 420 602 l 1,10,-1
 192 602 l 1,11,-1
 219 744 l 1,12,-1
 447 744 l 1,13,-1
 579 1423 l 1,14,-1
 284 1423 l 1,15,-1
 312 1567 l 1,16,-1
 791 1567 l 1,17,-1
 631 744 l 1,18,-1
 640 744 l 1,19,-1
 861 744 l 1,20,-1
 834 602 l 1,21,-1
 613 602 l 1,22,-1
 604 602 l 1,23,-1
 566 406 l 2,0,1
EndSplineSet
EndChar

StartChar: uni019B
Encoding: 411 411 347
Width: 1233
Flags: W
LayerCount: 2
Fore
SplineSet
670 1213 m 1,0,-1
 1065 1455 l 1,1,-1
 1123 1345 l 1,2,-1
 703 1087 l 1,3,-1
 988 0 l 1,4,-1
 797 0 l 1,5,-1
 612 704 l 1,6,-1
 146 0 l 1,7,-1
 -45 0 l 1,8,-1
 557 913 l 1,9,-1
 538 987 l 1,10,-1
 127 736 l 1,11,-1
 69 847 l 1,12,-1
 505 1113 l 1,13,-1
 405 1493 l 1,14,-1
 596 1493 l 1,15,-1
 670 1213 l 1,0,-1
EndSplineSet
EndChar

StartChar: uni019C
Encoding: 412 412 348
Width: 1233
Flags: W
LayerCount: 2
Fore
SplineSet
448 114 m 1,0,1
 400 42 400 42 340.5 7.5 c 128,-1,2
 281 -27 281 -27 207 -27 c 0,3,4
 72 -27 72 -27 37 77.5 c 128,-1,5
 2 182 2 182 58 471 c 2,6,-1
 257 1493 l 1,7,-1
 425 1493 l 1,8,-1
 228 479 l 2,9,10
 182 242 182 242 197 184.5 c 128,-1,11
 212 127 212 127 282 127 c 0,12,13
 362 127 362 127 403.5 188.5 c 128,-1,14
 445 250 445 250 490 479 c 2,15,-1
 687 1493 l 1,16,-1
 855 1493 l 1,17,-1
 658 479 l 2,18,19
 611 239 611 239 628.5 183 c 128,-1,20
 646 127 646 127 720 127 c 0,21,22
 793 127 793 127 833.5 188.5 c 128,-1,23
 874 250 874 250 919 479 c 2,24,-1
 1116 1493 l 1,25,-1
 1283 1493 l 1,26,-1
 993 0 l 1,27,-1
 826 0 l 1,28,-1
 844 96 l 1,29,30
 800 36 800 36 744 4.5 c 128,-1,31
 688 -27 688 -27 625 -27 c 0,32,33
 549 -27 549 -27 505.5 8 c 128,-1,34
 462 43 462 43 448 114 c 1,0,1
EndSplineSet
EndChar

StartChar: uni019D
Encoding: 413 413 349
Width: 1233
Flags: W
LayerCount: 2
Fore
SplineSet
377 1493 m 1,0,-1
 607 1493 l 1,1,-1
 822 264 l 1,2,-1
 1061 1493 l 1,3,-1
 1236 1493 l 1,4,-1
 946 0 l 1,5,-1
 715 0 l 1,6,-1
 501 1229 l 1,7,-1
 258 -20 l 2,8,9
 220 -215 220 -215 119 -320 c 0,10,11
 18 -426 18 -426 -131 -426 c 2,12,-1
 -158 -426 l 1,13,-1
 -127 -270 l 1,14,15
 -46 -270 -46 -270 6 -208 c 256,16,17
 58 -146 58 -146 82 -20 c 2,18,-1
 377 1493 l 1,0,-1
EndSplineSet
EndChar

StartChar: uni019E
Encoding: 414 414 350
Width: 1233
Flags: W
LayerCount: 2
Fore
SplineSet
1116 694 m 2,0,-1
 898 -430 l 1,1,-1
 713 -430 l 1,2,-1
 931 694 l 2,3,4
 961 845 961 845 921.5 916 c 128,-1,5
 882 987 882 987 769 987 c 0,6,7
 640 987 640 987 553 895.5 c 128,-1,8
 466 804 466 804 432 633 c 2,9,-1
 309 0 l 1,10,-1
 125 0 l 1,11,-1
 343 1120 l 1,12,-1
 527 1120 l 1,13,-1
 494 952 l 1,14,15
 562 1048 562 1048 655.5 1097.5 c 128,-1,16
 749 1147 749 1147 864 1147 c 0,17,18
 1035 1147 1035 1147 1098 1034.5 c 128,-1,19
 1161 922 1161 922 1116 694 c 2,0,-1
EndSplineSet
EndChar

StartChar: uni019F
Encoding: 415 415 351
Width: 1233
Flags: W
LayerCount: 2
Fore
SplineSet
1116 745 m 0,0,1
 1040 355 1040 355 879 163 c 128,-1,2
 718 -29 718 -29 465 -29 c 128,-1,3
 212 -29 212 -29 126.5 162 c 128,-1,4
 41 353 41 353 117 745 c 0,5,6
 193 1136 193 1136 354 1328 c 128,-1,7
 515 1520 515 1520 767 1520 c 0,8,9
 1020 1520 1020 1520 1106 1328 c 128,-1,10
 1192 1136 1192 1136 1116 745 c 0,0,1
920 828 m 1,11,12
 964 1092 964 1092 929 1215 c 0,13,14
 889 1356 889 1356 735 1356 c 0,15,16
 582 1356 582 1356 487 1215 c 0,17,18
 404 1092 404 1092 345 828 c 1,19,-1
 920 828 l 1,11,12
310 644 m 1,20,21
 271 394 271 394 304 276 c 0,22,23
 344 135 344 135 497 135 c 0,24,25
 651 135 651 135 746 276 c 0,26,27
 826 393 826 393 884 644 c 1,28,-1
 310 644 l 1,20,21
EndSplineSet
EndChar

StartChar: uni01A2
Encoding: 418 418 354
Width: 1233
Flags: W
LayerCount: 2
Fore
SplineSet
45 745 m 0,0,1
 175 1417 175 1417 526 1506 c 0,2,3
 582 1520 582 1520 644 1520 c 0,4,5
 851 1520 851 1520 931 1362 c 1,6,-1
 1103 1493 l 1,7,-1
 1334 1493 l 1,8,-1
 1043 0 l 1,9,-1
 868 0 l 1,10,-1
 1107 1229 l 1,11,-1
 896 1069 l 1,12,-1
 719 163 l 1,13,14
 571 -29 571 -29 343.5 -29 c 128,-1,15
 116 -29 116 -29 42 162 c 128,-1,16
 -32 353 -32 353 45 745 c 0,0,1
784 1215 m 1,17,18
 751 1356 751 1356 613 1356 c 256,19,20
 475 1356 475 1356 387 1215 c 128,-1,21
 299 1074 299 1074 235 745 c 0,22,23
 171 417 171 417 204.5 276 c 128,-1,24
 238 135 238 135 375 135 c 0,25,26
 514 135 514 135 602 276 c 1,27,-1
 784 1215 l 1,17,18
EndSplineSet
EndChar

StartChar: uni01A3
Encoding: 419 419 355
Width: 1233
Flags: W
LayerCount: 2
Fore
SplineSet
125 559 m 0,0,1
 210 995 210 995 482 1110 c 0,2,3
 569 1147 569 1147 670 1147 c 0,4,5
 880 1147 880 1147 962 996 c 1,6,-1
 954 953 l 1,7,-1
 1101 1063 l 1,8,-1
 1332 1063 l 1,9,-1
 1042 -430 l 1,10,-1
 866 -430 l 1,11,-1
 1105 799 l 1,12,-1
 893 642 l 1,13,-1
 792 122 l 1,14,15
 652 -29 652 -29 442 -29 c 0,16,17
 207 -29 207 -29 134 159 c 0,18,19
 76 305 76 305 125 559 c 0,0,1
301 559 m 0,20,21
 224 164 224 164 433 130 c 0,22,23
 451 127 451 127 472 127 c 0,24,25
 599 127 599 127 685 236 c 1,26,-1
 811 882 l 1,27,28
 767 991 767 991 640 991 c 0,29,30
 434 991 434 991 338 705 c 0,31,32
 316 639 316 639 301 559 c 0,20,21
EndSplineSet
EndChar

StartChar: uni01A4
Encoding: 420 420 356
Width: 1233
Flags: W
LayerCount: 2
Fore
SplineSet
1236 1047 m 0,0,1
 1168 699 1168 699 841 622 c 0,2,3
 750 600 750 600 641 600 c 2,4,-1
 547 600 l 1,5,-1
 431 0 l 1,6,-1
 229 0 l 1,7,-1
 487 1327 l 1,8,9
 433 1327 433 1327 364 1280 c 0,10,11
 308 1242 308 1242 286 1128 c 2,12,-1
 276 1079 l 1,13,-1
 120 1079 l 1,14,-1
 134 1149 l 2,15,16
 169 1330 169 1330 281 1411.5 c 128,-1,17
 393 1493 393 1493 519 1493 c 2,18,-1
 814 1493 l 2,19,20
 1220 1493 1220 1493 1246 1201 c 0,21,22
 1252 1132 1252 1132 1236 1047 c 0,0,1
673 766 m 2,23,24
 884 766 884 766 978 923 c 0,25,26
 1011 979 1011 979 1025 1047 c 0,27,28
 1051 1180 1051 1180 987 1253.5 c 128,-1,29
 923 1327 923 1327 782 1327 c 2,30,-1
 689 1327 l 1,31,-1
 580 766 l 1,32,-1
 673 766 l 2,23,24
EndSplineSet
EndChar

StartChar: uni01A5
Encoding: 421 421 357
Width: 1233
Flags: W
LayerCount: 2
Fore
SplineSet
386 559 m 0,0,1
 313 184 313 184 512 134 c 0,2,3
 540 127 540 127 574 127 c 0,4,5
 707 127 707 127 795.5 236 c 128,-1,6
 884 345 884 345 926 559 c 0,7,8
 1007 977 1007 977 759 991 c 0,9,10
 750 991 750 991 742 991 c 0,11,12
 527 991 527 991 429 718 c 0,13,14
 403 648 403 648 386 559 c 0,0,1
467 977 m 1,15,16
 590 1141 590 1141 785 1147 c 0,17,18
 792 1147 792 1147 799 1147 c 0,19,20
 1002 1147 1002 1147 1087 990 c 128,-1,21
 1172 833 1172 833 1118 555 c 0,22,23
 1065 282 1065 282 919 126.5 c 128,-1,24
 773 -29 773 -29 571 -29 c 0,25,26
 469 -29 469 -29 401 14.5 c 128,-1,27
 333 58 333 58 305 141 c 1,28,-1
 194 -426 l 1,29,-1
 9 -426 l 1,30,-1
 292 1026 l 2,31,32
 350 1328 350 1328 569 1407 c 0,33,34
 637 1432 637 1432 715 1432 c 2,35,-1
 920 1432 l 1,36,-1
 889 1276 l 1,37,-1
 704 1276 l 2,38,39
 536 1276 536 1276 483 1055 c 0,40,41
 480 1041 480 1041 477 1026 c 2,42,-1
 467 977 l 1,15,16
EndSplineSet
EndChar

StartChar: uni01A6
Encoding: 422 422 358
Width: 1233
Flags: W
LayerCount: 2
Fore
SplineSet
726 441 m 1,0,1
 800 421 800 421 844 366 c 128,-1,2
 888 311 888 311 939 144 c 2,3,-1
 1062 -264 l 1,4,-1
 845 -264 l 1,5,-1
 741 113 l 2,6,7
 695 274 695 274 642.5 320.5 c 128,-1,8
 590 367 590 367 491 367 c 2,9,-1
 298 367 l 1,10,-1
 227 0 l 1,11,-1
 24 0 l 1,12,-1
 314 1493 l 1,13,-1
 517 1493 l 1,14,-1
 465 1229 l 1,15,-1
 678 1229 l 2,16,17
 924 1229 924 1229 1034 1118 c 0,18,19
 1114 1037 1114 1037 1114 904 c 0,20,21
 1114 687 1114 687 975 556 c 0,22,23
 876 462 876 462 726 441 c 1,0,1
433 1063 m 1,24,-1
 330 533 l 1,25,-1
 551 533 l 2,26,27
 838 533 838 533 889 797 c 0,28,29
 897 834 897 834 897 866 c 0,30,31
 897 946 897 946 852 994 c 0,32,33
 790 1063 790 1063 646 1063 c 2,34,-1
 433 1063 l 1,24,-1
EndSplineSet
EndChar

StartChar: uni01A7
Encoding: 423 423 359
Width: 1233
Flags: W
LayerCount: 2
Fore
SplineSet
360 1442 m 1,0,1
 473 1481 473 1481 572 1500.5 c 128,-1,2
 671 1520 671 1520 757 1520 c 0,3,4
 980 1520 980 1520 1091 1399.5 c 128,-1,5
 1202 1279 1202 1279 1163 1079 c 0,6,7
 1132 919 1132 919 1019.5 824 c 128,-1,8
 907 729 907 729 690 682 c 2,9,-1
 577 657 l 2,10,11
 426 625 426 625 356 566 c 128,-1,12
 286 507 286 507 264 395 c 0,13,14
 240 272 240 272 311.5 203.5 c 128,-1,15
 383 135 383 135 536 135 c 0,16,17
 640 135 640 135 749.5 169 c 128,-1,18
 859 203 859 203 988 276 c 1,19,-1
 946 61 l 1,20,21
 830 16 830 16 719.5 -6.5 c 128,-1,22
 609 -29 609 -29 504 -29 c 0,23,24
 252 -29 252 -29 142 83 c 128,-1,25
 32 195 32 195 73 408 c 0,26,27
 109 589 109 589 225 694 c 128,-1,28
 341 799 341 799 561 848 c 2,29,-1
 672 872 l 2,30,31
 827 907 827 907 892 959 c 128,-1,32
 957 1011 957 1011 976 1110 c 0,33,34
 998 1223 998 1223 928 1289.5 c 128,-1,35
 858 1356 858 1356 715 1356 c 0,36,37
 621 1356 621 1356 522.5 1326 c 128,-1,38
 424 1296 424 1296 321 1237 c 1,39,-1
 360 1442 l 1,0,1
EndSplineSet
EndChar

StartChar: uni01A8
Encoding: 424 424 360
Width: 1233
Flags: W
LayerCount: 2
Fore
SplineSet
371 1081 m 1,0,1
 458 1114 458 1114 544 1130.5 c 128,-1,2
 630 1147 630 1147 720 1147 c 0,3,4
 922 1147 922 1147 1014 1059.5 c 128,-1,5
 1106 972 1106 972 1075 811 c 0,6,7
 1050 684 1050 684 963 610.5 c 128,-1,8
 876 537 876 537 711 506 c 2,9,-1
 639 492 l 1,10,-1
 631 490 l 1,11,12
 376 441 376 441 351 313 c 0,13,14
 334 224 334 224 391.5 174.5 c 128,-1,15
 449 125 449 125 571 125 c 0,16,17
 655 125 655 125 754 151.5 c 128,-1,18
 853 178 853 178 966 231 c 1,19,-1
 929 41 l 1,20,21
 817 6 817 6 722.5 -11.5 c 128,-1,22
 628 -29 628 -29 545 -29 c 0,23,24
 335 -29 335 -29 235 64.5 c 128,-1,25
 135 158 135 158 167 324 c 0,26,27
 192 449 192 449 277.5 527 c 128,-1,28
 363 605 363 605 505 631 c 2,29,-1
 582 645 l 2,30,31
 772 680 772 680 825 717 c 128,-1,32
 878 754 878 754 892 829 c 0,33,34
 909 912 909 912 855 952.5 c 128,-1,35
 801 993 801 993 676 993 c 0,36,37
 593 993 593 993 508.5 970 c 128,-1,38
 424 947 424 947 336 901 c 1,39,-1
 371 1081 l 1,0,1
EndSplineSet
EndChar

StartChar: uni01AA
Encoding: 426 426 362
Width: 1233
Flags: W
LayerCount: 2
Fore
SplineSet
708 1284 m 1,0,1
 709 1329 709 1329 696 1352 c 0,2,3
 672 1400 672 1400 562 1400 c 0,4,5
 438 1400 438 1400 423 1335 c 0,6,7
 410 1284 410 1284 529 1284 c 2,8,-1
 708 1284 l 1,0,1
875 1130 m 1,9,-1
 636 -89 l 2,10,11
 616 -192 616 -192 647 -233 c 0,12,13
 676 -273 676 -273 776 -273 c 2,14,-1
 952 -273 l 1,15,-1
 922 -426 l 1,16,-1
 748 -426 l 2,17,18
 554 -426 554 -426 489 -340 c 0,19,20
 420 -248 420 -248 455 -68 c 2,21,-1
 688 1130 l 1,22,-1
 498 1130 l 2,23,24
 228 1130 228 1130 269 1340 c 0,25,26
 311 1556 311 1556 614 1556 c 0,27,28
 794 1556 794 1556 858 1460 c 0,29,30
 899 1396 899 1396 895 1285 c 1,31,-1
 1086 1285 l 1,32,-1
 1056 1130 l 1,33,-1
 875 1130 l 1,9,-1
EndSplineSet
EndChar

StartChar: uni01AB
Encoding: 427 427 363
Width: 1233
Flags: W
LayerCount: 2
Fore
SplineSet
795 1438 m 1,0,-1
 733 1120 l 1,1,-1
 1151 1120 l 1,2,-1
 1124 977 l 1,3,-1
 706 977 l 1,4,-1
 587 369 l 2,5,6
 563 245 563 245 600.5 196 c 128,-1,7
 638 147 638 147 755 147 c 2,8,-1
 962 147 l 1,9,-1
 934 0 l 1,10,-1
 930 -20 l 2,11,12
 892 -215 892 -215 782 -320 c 0,13,14
 672 -426 672 -426 507 -426 c 2,15,-1
 302 -426 l 1,16,-1
 332 -270 l 1,17,-1
 517 -270 l 2,18,19
 607 -270 607 -270 664 -208 c 0,20,21
 720 -146 720 -146 745 -20 c 2,22,-1
 749 0 l 1,23,-1
 709 0 l 2,24,25
 502 0 502 0 433 83 c 128,-1,26
 364 166 364 166 403 369 c 2,27,-1
 522 977 l 1,28,-1
 223 977 l 1,29,-1
 250 1120 l 1,30,-1
 549 1120 l 1,31,-1
 611 1438 l 1,32,-1
 795 1438 l 1,0,-1
EndSplineSet
EndChar

StartChar: uni01AC
Encoding: 428 428 364
Width: 1233
Flags: W
LayerCount: 2
Fore
SplineSet
566 1327 m 2,0,1
 437 1335 437 1335 355 1280 c 0,2,3
 299 1242 299 1242 277 1128 c 2,4,-1
 268 1079 l 1,5,-1
 112 1079 l 1,6,-1
 125 1149 l 2,7,8
 160 1330 160 1330 272 1411.5 c 128,-1,9
 384 1493 384 1493 598 1493 c 2,10,-1
 1331 1493 l 1,11,-1
 1298 1323 l 1,12,-1
 831 1323 l 1,13,-1
 574 0 l 1,14,-1
 371 0 l 1,15,-1
 628 1323 l 1,16,-1
 566 1327 l 2,0,1
EndSplineSet
EndChar

StartChar: uni01AD
Encoding: 429 429 365
Width: 1233
Flags: W
LayerCount: 2
Fore
SplineSet
680 1120 m 1,0,-1
 1098 1120 l 1,1,-1
 1071 977 l 1,2,-1
 653 977 l 1,3,-1
 534 369 l 2,4,5
 510 245 510 245 547.5 196 c 128,-1,6
 585 147 585 147 702 147 c 2,7,-1
 909 147 l 1,8,-1
 881 0 l 1,9,-1
 656 0 l 2,10,11
 449 0 449 0 380 83 c 128,-1,12
 311 166 311 166 350 369 c 2,13,-1
 469 977 l 1,14,-1
 170 977 l 1,15,-1
 197 1120 l 1,16,-1
 495 1120 l 1,17,-1
 501 1150 l 2,18,19
 539 1345 539 1345 649 1450 c 0,20,21
 759 1556 759 1556 924 1556 c 2,22,-1
 1129 1556 l 1,23,-1
 1099 1400 l 1,24,-1
 914 1400 l 2,25,26
 824 1400 824 1400 767 1338 c 0,27,28
 711 1276 711 1276 686 1150 c 2,29,-1
 680 1120 l 1,0,-1
EndSplineSet
EndChar

StartChar: uni01AE
Encoding: 430 430 366
Width: 1233
Flags: W
LayerCount: 2
Fore
SplineSet
560 -117 m 0,0,1
 560 -270 560 -270 701 -270 c 2,2,-1
 886 -270 l 1,3,-1
 856 -426 l 1,4,-1
 633 -426 l 2,5,6
 468 -426 468 -426 399 -320 c 0,7,8
 354 -252 354 -252 354 -170.5 c 128,-1,9
 354 -89 354 -89 368 -20 c 2,10,-1
 629 1323 l 1,11,-1
 160 1323 l 1,12,-1
 193 1493 l 1,13,-1
 1332 1493 l 1,14,-1
 1299 1323 l 1,15,-1
 832 1323 l 1,16,-1
 571 -20 l 2,17,18
 560 -75 560 -75 560 -117 c 0,0,1
EndSplineSet
EndChar

StartChar: uni01B1
Encoding: 433 433 369
Width: 1233
Flags: W
LayerCount: 2
Fore
SplineSet
1301 1460 m 1,0,-1
 1267 1288 l 1,1,-1
 1022 1288 l 1,2,3
 1119 1154 1119 1154 1146 1010 c 128,-1,4
 1173 866 1173 866 1137 678 c 0,5,6
 1076 367 1076 367 896.5 183.5 c 128,-1,7
 717 0 717 0 477 0 c 0,8,9
 235 0 235 0 126 183 c 128,-1,10
 17 366 17 366 78 678 c 0,11,12
 114 866 114 866 198 1010.5 c 128,-1,13
 282 1155 282 1155 430 1288 c 1,14,-1
 182 1288 l 1,15,-1
 216 1460 l 1,16,-1
 679 1460 l 1,17,-1
 645 1288 l 1,18,19
 511 1212 511 1212 412 1047.5 c 128,-1,20
 313 883 313 883 270 661 c 0,21,22
 225 431 225 431 289 298.5 c 128,-1,23
 353 166 353 166 507 166 c 128,-1,24
 661 166 661 166 776.5 298.5 c 128,-1,25
 892 431 892 431 937 661 c 0,26,27
 980 883 980 883 945 1047.5 c 128,-1,28
 910 1212 910 1212 804 1288 c 1,29,-1
 838 1460 l 1,30,-1
 1301 1460 l 1,0,-1
EndSplineSet
EndChar

StartChar: uni01B2
Encoding: 434 434 370
Width: 1233
Flags: W
LayerCount: 2
Fore
SplineSet
360 0 m 0,0,1
 191 0 191 0 119 106 c 0,2,3
 50 208 50 208 88 406 c 2,4,-1
 300 1493 l 1,5,-1
 503 1493 l 1,6,-1
 294 421 l 2,7,8
 270 295 270 295 302 233 c 0,9,10
 335 171 335 171 425 171 c 0,11,12
 579 171 579 171 694 303.5 c 128,-1,13
 809 436 809 436 854 666 c 0,14,15
 897 888 897 888 862 1052.5 c 128,-1,16
 827 1217 827 1217 722 1293 c 1,17,-1
 940 1293 l 1,18,19
 1037 1159 1037 1159 1064 1015 c 128,-1,20
 1091 871 1091 871 1054 683 c 0,21,22
 994 372 994 372 814 188 c 0,23,24
 629 0 629 0 360 0 c 0,0,1
EndSplineSet
EndChar

StartChar: uni01B3
Encoding: 435 435 371
Width: 1233
Flags: W
LayerCount: 2
Fore
SplineSet
951 1140 m 2,0,-1
 614 670 l 1,1,-1
 483 0 l 1,2,-1
 301 0 l 1,3,-1
 431 670 l 1,4,-1
 162 1493 l 1,5,-1
 355 1493 l 1,6,-1
 555 834 l 1,7,-1
 831 1235 l 2,8,9
 970 1435 970 1435 1087 1477 c 0,10,11
 1137 1495 1137 1495 1182 1495 c 0,12,13
 1262 1495 1262 1495 1325 1438 c 2,14,-1
 1347 1419 l 1,15,-1
 1249 1285 l 1,16,-1
 1241 1294 l 2,17,18
 1214 1325 1214 1325 1174 1325 c 0,19,20
 1145 1325 1145 1325 1111 1309 c 0,21,22
 1055 1285 1055 1285 951 1140 c 2,0,-1
EndSplineSet
EndChar

StartChar: uni01B4
Encoding: 436 436 372
Width: 1233
Flags: W
LayerCount: 2
Fore
SplineSet
533 -104 m 2,0,1
 413 -307 413 -307 330 -365 c 0,2,3
 245 -426 245 -426 121 -426 c 2,4,-1
 -26 -426 l 1,5,-1
 3 -272 l 1,6,-1
 111 -272 l 2,7,8
 187 -272 187 -272 236 -236 c 128,-1,9
 285 -200 285 -200 363 -66 c 2,10,-1
 412 18 l 1,11,-1
 173 1120 l 1,12,-1
 368 1120 l 1,13,-1
 548 244 l 1,14,-1
 963 943 l 2,15,16
 1037 1069 1037 1069 1126 1110 c 0,17,18
 1219 1153 1219 1153 1325 1112 c 2,19,-1
 1369 1095 l 1,20,-1
 1288 948 l 1,21,-1
 1261 958 l 2,22,23
 1183 989 1183 989 1147 928 c 2,24,-1
 533 -104 l 2,0,1
EndSplineSet
EndChar

StartChar: uni01B5
Encoding: 437 437 373
Width: 1233
Flags: W
LayerCount: 2
Fore
SplineSet
323 1493 m 1,0,-1
 1292 1493 l 1,1,-1
 1262 1339 l 1,2,-1
 752 747 l 1,3,-1
 984 747 l 1,4,-1
 951 577 l 1,5,-1
 686 577 l 1,6,-1
 606 577 l 1,7,-1
 255 170 l 1,8,-1
 1057 170 l 1,9,-1
 1024 0 l 1,10,-1
 11 0 l 1,11,-1
 41 154 l 1,12,-1
 398 577 l 1,13,-1
 218 577 l 1,14,-1
 251 747 l 1,15,-1
 541 747 l 1,16,-1
 1027 1323 l 1,17,-1
 290 1323 l 1,18,-1
 323 1493 l 1,0,-1
EndSplineSet
EndChar

StartChar: uni01B6
Encoding: 438 438 374
Width: 1233
Flags: W
LayerCount: 2
Fore
SplineSet
331 1122 m 1,0,-1
 1144 1122 l 1,1,-1
 1111 954 l 1,2,-1
 775 616 l 1,3,-1
 1087 616 l 1,4,-1
 1056 452 l 1,5,-1
 702 452 l 1,6,-1
 612 452 l 1,7,-1
 312 150 l 1,8,-1
 955 150 l 1,9,-1
 926 0 l 1,10,-1
 89 0 l 1,11,-1
 122 170 l 1,12,-1
 402 452 l 1,13,-1
 135 452 l 1,14,-1
 167 616 l 1,15,-1
 565 616 l 1,16,-1
 921 975 l 1,17,-1
 302 975 l 1,18,-1
 331 1122 l 1,0,-1
EndSplineSet
EndChar

StartChar: uni01B7
Encoding: 439 439 375
Width: 1233
Flags: W
LayerCount: 2
Fore
SplineSet
170 435 m 1,0,1
 142 292 142 292 227 217 c 256,2,3
 312 142 312 142 501.5 142 c 128,-1,4
 691 142 691 142 805 217 c 0,5,6
 920 292 920 292 948 435 c 0,7,8
 974 569 974 569 896 642 c 0,9,10
 817 716 817 716 652 716 c 2,11,-1
 478 716 l 1,12,-1
 511 882 l 1,13,-1
 966 1323 l 1,14,-1
 229 1323 l 1,15,-1
 262 1493 l 1,16,-1
 1231 1493 l 1,17,-1
 1199 1325 l 1,18,-1
 737 884 l 1,19,20
 842 884 842 884 960 828 c 0,21,22
 1050 785 1050 785 1115 677 c 0,23,24
 1176 573 1176 573 1149 435 c 0,25,26
 1106 214 1106 214 930.5 93 c 128,-1,27
 755 -28 755 -28 475 -28 c 0,28,29
 183 -28 183 -28 54.5 93 c 128,-1,30
 -74 214 -74 214 -31 435 c 1,31,-1
 170 435 l 1,0,1
EndSplineSet
EndChar

StartChar: uni01B8
Encoding: 440 440 376
Width: 1233
Flags: W
LayerCount: 2
Fore
SplineSet
948 435 m 1,0,-1
 1149 435 l 1,1,2
 1106 214 1106 214 930.5 93 c 128,-1,3
 755 -28 755 -28 463 -28 c 0,4,5
 183 -28 183 -28 54.5 93 c 128,-1,6
 -74 214 -74 214 -31 435 c 0,7,8
 -5 573 -5 573 97 677 c 0,9,10
 203 785 203 785 310 828 c 0,11,12
 450 884 450 884 555 884 c 1,13,-1
 265 1325 l 1,14,-1
 297 1493 l 1,15,-1
 1266 1493 l 1,16,-1
 1233 1323 l 1,17,-1
 496 1323 l 1,18,-1
 781 882 l 1,19,-1
 748 716 l 1,20,-1
 574 716 l 2,21,22
 409 716 409 716 302 642 c 0,23,24
 196 569 196 569 170 435 c 0,25,26
 142 292 142 292 227 217 c 256,27,28
 312 142 312 142 501.5 142 c 128,-1,29
 691 142 691 142 805 217 c 0,30,31
 920 292 920 292 948 435 c 1,0,-1
EndSplineSet
EndChar

StartChar: uni01B9
Encoding: 441 441 377
Width: 1233
Flags: W
LayerCount: 2
Fore
SplineSet
676 476 m 1,0,-1
 450 952 l 1,1,-1
 515 1120 l 1,2,-1
 1389 1120 l 1,3,-1
 1332 973 l 1,4,-1
 665 973 l 1,5,-1
 901 474 l 1,6,-1
 837 308 l 1,7,-1
 663 308 l 2,8,9
 498 308 498 308 376 234 c 0,10,11
 255 159 255 159 204 27 c 0,12,13
 148 -116 148 -116 219 -191 c 0,14,15
 289 -266 289 -266 479 -266 c 0,16,17
 588 -266 588 -266 697.5 -241 c 128,-1,18
 807 -216 807 -216 910 -167 c 1,19,-1
 834 -362 l 1,20,21
 714 -399 714 -399 607 -418 c 0,22,23
 501 -436 501 -436 407 -436 c 0,24,25
 127 -436 127 -436 22 -315 c 128,-1,26
 -83 -194 -83 -194 3 27 c 0,27,28
 56 165 56 165 178 269 c 0,29,30
 306 378 306 378 420 420 c 0,31,32
 570 476 570 476 676 476 c 1,0,-1
EndSplineSet
EndChar

StartChar: uni01BA
Encoding: 442 442 378
Width: 1233
Flags: W
LayerCount: 2
Fore
SplineSet
472 -274 m 0,0,1
 556 -274 556 -274 637 -253 c 0,2,3
 720 -232 720 -232 810 -188 c 1,4,-1
 775 -367 l 1,5,6
 681 -399 681 -399 599 -412 c 0,7,8
 510 -426 510 -426 413 -426 c 0,9,10
 -18 -426 -18 -426 -18 -199 c 0,11,12
 -18 -174 -18 -174 -12 -145 c 0,13,14
 34 93 34 93 450 146 c 0,15,16
 742 183 742 183 761 281 c 0,17,18
 763 293 763 293 763 303 c 0,19,20
 763 405 763 405 550 405 c 2,21,-1
 260 405 l 1,22,-1
 855 973 l 1,23,-1
 188 973 l 1,24,-1
 217 1120 l 1,25,-1
 1091 1120 l 1,26,-1
 1058 952 l 1,27,-1
 624 540 l 1,28,29
 951 540 951 540 951 358 c 0,30,31
 951 336 951 336 947 311 c 0,32,33
 893 35 893 35 419 -14 c 0,34,35
 189 -38 189 -38 170 -135 c 0,36,37
 168 -146 168 -146 168 -155 c 0,38,39
 168 -274 168 -274 472 -274 c 0,0,1
EndSplineSet
EndChar

StartChar: uni01BB
Encoding: 443 443 379
Width: 1233
Flags: W
LayerCount: 2
Fore
SplineSet
292 1421 m 1,0,1
 520 1520 520 1520 711 1520 c 0,2,3
 930 1520 930 1520 1040.5 1403.5 c 128,-1,4
 1151 1287 1151 1287 1115 1098 c 0,5,6
 1096 1002 1096 1002 1033 906 c 0,7,8
 984 832 984 832 901 747 c 1,9,-1
 981 747 l 1,10,-1
 948 577 l 1,11,-1
 719 577 l 1,12,-1
 650 514 l 1,13,-1
 258 170 l 1,14,-1
 944 170 l 1,15,-1
 911 0 l 1,16,-1
 4 0 l 1,17,-1
 37 170 l 1,18,-1
 498 577 l 1,19,-1
 215 577 l 1,20,-1
 248 747 l 1,21,-1
 682 747 l 1,22,23
 812 877 812 877 859 961 c 0,24,25
 893 1021 893 1021 905 1083 c 0,26,27
 941 1268 941 1268 802 1328 c 0,28,29
 750 1350 750 1350 682 1350 c 0,30,31
 501 1350 501 1350 253 1217 c 1,32,-1
 292 1421 l 1,0,1
EndSplineSet
EndChar

StartChar: uni01BC
Encoding: 444 444 380
Width: 1233
Flags: W
LayerCount: 2
Fore
SplineSet
501 142 m 0,0,1
 817 142 817 142 917 341 c 0,2,3
 938 384 938 384 948 435 c 0,4,5
 974 569 974 569 896 642 c 0,6,7
 817 716 817 716 653 716 c 2,8,-1
 212 716 l 1,9,-1
 363 1493 l 1,10,-1
 1287 1493 l 1,11,-1
 1254 1323 l 1,12,-1
 533 1323 l 1,13,-1
 447 884 l 1,14,-1
 737 884 l 2,15,16
 842 884 842 884 961 828 c 0,17,18
 1051 785 1051 785 1115 677 c 0,19,20
 1176 576 1176 576 1148 435 c 0,21,22
 1105 214 1105 214 929.5 93 c 128,-1,23
 754 -28 754 -28 474 -28 c 0,24,25
 44 -28 44 -28 -29 228 c 0,26,27
 -54 319 -54 319 -32 435 c 1,28,-1
 170 435 l 1,29,30
 135 254 135 254 279 183 c 0,31,32
 362 142 362 142 501 142 c 0,0,1
EndSplineSet
EndChar

StartChar: uni01BD
Encoding: 445 445 381
Width: 1233
Flags: W
LayerCount: 2
Fore
SplineSet
400 -266 m 0,0,1
 711 -266 711 -266 812 -71 c 0,2,3
 835 -26 835 -26 846 27 c 0,4,5
 872 161 872 161 794 234 c 0,6,7
 715 308 715 308 550 308 c 2,8,-1
 250 308 l 1,9,-1
 408 1120 l 1,10,-1
 1160 1120 l 1,11,-1
 1124 936 l 1,12,-1
 556 936 l 1,13,-1
 467 475 l 1,14,-1
 635 476 l 2,15,16
 738 477 738 477 858 420 c 0,17,18
 948 377 948 377 1013 269 c 0,19,20
 1074 165 1074 165 1047 27 c 0,21,22
 1004 -194 1004 -194 828.5 -315 c 128,-1,23
 653 -436 653 -436 373 -436 c 0,24,25
 186 -436 186 -436 -12 -362 c 1,26,-1
 26 -167 l 1,27,28
 177 -266 177 -266 400 -266 c 0,0,1
EndSplineSet
EndChar

StartChar: uni01BE
Encoding: 446 446 382
Width: 1233
Flags: W
LayerCount: 2
Fore
SplineSet
793 439 m 0,0,1
 816 553 816 553 757 632 c 0,2,3
 687 727 687 727 513 727 c 2,4,-1
 451 727 l 1,5,-1
 504 998 l 1,6,-1
 275 998 l 1,7,-1
 307 1162 l 1,8,-1
 536 1162 l 1,9,-1
 590 1438 l 1,10,-1
 792 1438 l 1,11,-1
 738 1162 l 1,12,-1
 969 1162 l 1,13,-1
 937 998 l 1,14,-1
 706 998 l 1,15,-1
 682 873 l 1,16,17
 841 844 841 844 928 734 c 0,18,19
 1022 615 1022 615 987 439 c 0,20,21
 951 254 951 254 817 128 c 0,22,23
 649 -29 649 -29 374 -29 c 0,24,25
 203 -29 203 -29 65 41 c 1,26,-1
 98 213 l 1,27,28
 238 127 238 127 397 127 c 0,29,30
 575 127 575 127 697 241 c 0,31,32
 767 306 767 306 793 439 c 0,0,1
EndSplineSet
EndChar

StartChar: uni01BF
Encoding: 447 447 383
Width: 1233
Flags: W
LayerCount: 2
Fore
SplineSet
213 -122 m 1,0,-1
 154 -426 l 1,1,-1
 -31 -426 l 1,2,-1
 270 1120 l 1,3,-1
 455 1120 l 1,4,-1
 422 950 l 1,5,6
 490 1020 490 1020 638 1098 c 0,7,8
 728 1147 728 1147 938 1147 c 0,9,10
 1122 1147 1122 1147 1177 1035 c 0,11,12
 1214 961 1214 961 1214 870 c 0,13,14
 1214 822 1214 822 1204 769 c 0,15,16
 1121 344 1121 344 213 -122 c 1,0,-1
249 60 m 1,17,18
 953 460 953 460 1001 709 c 0,19,20
 1011 759 1011 759 1011 799 c 0,21,22
 1011 868 1011 868 983 908 c 0,23,24
 941 973 941 973 823 973 c 2,25,-1
 819 973 l 2,26,27
 599 973 599 973 380 734 c 1,28,29
 314 397 314 397 249 60 c 1,17,18
EndSplineSet
EndChar

StartChar: uni01C0
Encoding: 448 448 384
Width: 1233
Flags: W
LayerCount: 2
Fore
SplineSet
661 1493 m 1,0,-1
 863 1493 l 1,1,-1
 572 0 l 1,2,-1
 370 0 l 1,3,-1
 661 1493 l 1,0,-1
EndSplineSet
EndChar

StartChar: uni01C2
Encoding: 450 450 386
Width: 1233
Flags: W
LayerCount: 2
Fore
SplineSet
661 1493 m 1,0,-1
 863 1493 l 1,1,-1
 784 1089 l 1,2,-1
 1135 1089 l 1,3,-1
 1102 921 l 1,4,-1
 751 921 l 1,5,-1
 705 681 l 1,6,-1
 1056 681 l 1,7,-1
 1023 511 l 1,8,-1
 672 511 l 1,9,-1
 572 0 l 1,10,-1
 370 0 l 1,11,-1
 470 511 l 1,12,-1
 119 511 l 1,13,-1
 152 681 l 1,14,-1
 503 681 l 1,15,-1
 549 921 l 1,16,-1
 198 921 l 1,17,-1
 231 1089 l 1,18,-1
 582 1089 l 1,19,-1
 661 1493 l 1,0,-1
EndSplineSet
EndChar

StartChar: uni01F6
Encoding: 502 502 422
Width: 1233
Flags: W
LayerCount: 2
Fore
SplineSet
761 135 m 0,0,1
 815 135 815 135 856 214 c 0,2,3
 908 316 908 316 960 586 c 2,4,-1
 1018 881 l 1,5,-1
 1200 881 l 1,6,-1
 1138 561 l 2,7,8
 1066 188 1066 188 934 48 c 0,9,10
 862 -29 862 -29 729 -29 c 0,11,12
 601 -29 601 -29 545 54 c 0,13,14
 441 207 441 207 510 561 c 2,15,-1
 539 711 l 1,16,-1
 240 711 l 1,17,-1
 102 0 l 1,18,-1
 -81 0 l 1,19,-1
 210 1493 l 1,20,-1
 392 1493 l 1,21,-1
 273 881 l 1,22,-1
 572 881 l 1,23,-1
 691 1493 l 1,24,-1
 874 1493 l 1,25,-1
 697 586 l 2,26,27
 644 313 644 313 699 174 c 0,28,29
 715 135 715 135 761 135 c 0,0,1
EndSplineSet
EndChar

StartChar: uni021C
Encoding: 540 540 457
Width: 1233
Flags: W
LayerCount: 2
Fore
SplineSet
1323 1200 m 0,0,1
 1323 1153 1323 1153 1313.5 1107 c 128,-1,2
 1304 1061 1304 1061 1288.5 1023.5 c 128,-1,3
 1273 986 1273 986 1250 949 c 128,-1,4
 1227 912 1227 912 1204 883.5 c 128,-1,5
 1181 855 1181 855 1151.5 826.5 c 128,-1,6
 1122 798 1122 798 1099 779 c 128,-1,7
 1076 760 1076 760 1047.5 740 c 128,-1,8
 1019 720 1019 720 1002.5 710 c 128,-1,9
 986 700 986 700 965.5 688 c 128,-1,10
 945 676 945 676 943 674 c 1,11,12
 1013 658 1013 658 1063 626.5 c 128,-1,13
 1113 595 1113 595 1138 553.5 c 128,-1,14
 1163 512 1163 512 1174 472 c 128,-1,15
 1185 432 1185 432 1185 388 c 0,16,17
 1185 129 1185 129 886 -92 c 128,-1,18
 587 -313 587 -313 34 -430 c 1,19,-1
 68 -270 l 1,20,21
 266 -219 266 -219 423.5 -156 c 128,-1,22
 581 -93 581 -93 683.5 -29.5 c 128,-1,23
 786 34 786 34 854 102 c 128,-1,24
 922 170 922 170 951 232.5 c 128,-1,25
 980 295 980 295 980 356 c 0,26,27
 980 441 980 441 932.5 490.5 c 128,-1,28
 885 540 885 540 793 545 c 128,-1,29
 701 550 701 550 565 496 c 2,30,-1
 387 424 l 1,31,-1
 423 595 l 1,32,-1
 694 701 l 2,33,34
 803 744 803 744 887 803 c 128,-1,35
 971 862 971 862 1019 925 c 128,-1,36
 1067 988 1067 988 1091 1050.5 c 128,-1,37
 1115 1113 1115 1113 1115 1173 c 0,38,39
 1115 1223 1115 1223 1094 1259.5 c 128,-1,40
 1073 1296 1073 1296 1037.5 1314.5 c 128,-1,41
 1002 1333 1002 1333 964 1341.5 c 128,-1,42
 926 1350 926 1350 884 1350 c 0,43,44
 699 1350 699 1350 418 1166 c 1,45,-1
 458 1356 l 1,46,47
 732 1520 732 1520 938 1520 c 0,48,49
 1109 1520 1109 1520 1216 1434 c 128,-1,50
 1323 1348 1323 1348 1323 1200 c 0,0,1
EndSplineSet
EndChar

StartChar: uni021D
Encoding: 541 541 458
Width: 1233
Flags: W
LayerCount: 2
Fore
SplineSet
880 461 m 1,0,1
 927 455 927 455 965.5 436.5 c 128,-1,2
 1004 418 1004 418 1028.5 392.5 c 128,-1,3
 1053 367 1053 367 1069.5 335.5 c 128,-1,4
 1086 304 1086 304 1092.5 273.5 c 128,-1,5
 1099 243 1099 243 1099 213 c 0,6,7
 1099 116 1099 116 1029 20 c 128,-1,8
 959 -76 959 -76 830 -160.5 c 128,-1,9
 701 -245 701 -245 508.5 -316 c 128,-1,10
 316 -387 316 -387 82 -433 c 1,11,-1
 110 -303 l 1,12,13
 526 -191 526 -191 722.5 -65 c 128,-1,14
 919 61 919 61 919 216 c 0,15,16
 919 286 919 286 872.5 328 c 128,-1,17
 826 370 826 370 746 370 c 0,18,19
 687 370 687 370 618 345 c 2,20,-1
 384 259 l 1,21,-1
 414 398 l 1,22,-1
 655 483 l 2,23,24
 833 547 833 547 928.5 650.5 c 128,-1,25
 1024 754 1024 754 1024 862 c 0,26,27
 1024 903 1024 903 1005.5 933.5 c 128,-1,28
 987 964 987 964 954.5 979.5 c 128,-1,29
 922 995 922 995 887.5 1002 c 128,-1,30
 853 1009 853 1009 813 1009 c 0,31,32
 745 1009 745 1009 654.5 979.5 c 128,-1,33
 564 950 564 950 398 860 c 1,34,-1
 431 1014 l 1,35,36
 725 1147 725 1147 859 1147 c 0,37,38
 958 1147 958 1147 1037 1118 c 128,-1,39
 1116 1089 1116 1089 1163.5 1031 c 128,-1,40
 1211 973 1211 973 1211 894 c 0,41,42
 1211 859 1211 859 1203.5 825.5 c 128,-1,43
 1196 792 1196 792 1185 764 c 128,-1,44
 1174 736 1174 736 1154.5 706.5 c 128,-1,45
 1135 677 1135 677 1118.5 655.5 c 128,-1,46
 1102 634 1102 634 1075.5 609 c 128,-1,47
 1049 584 1049 584 1032.5 569 c 128,-1,48
 1016 554 1016 554 987 533.5 c 128,-1,49
 958 513 958 513 946 504.5 c 128,-1,50
 934 496 934 496 908.5 479.5 c 128,-1,51
 883 463 883 463 880 461 c 1,0,1
EndSplineSet
EndChar

StartChar: uni0221
Encoding: 545 545 461
Width: 1233
Flags: W
LayerCount: 2
Fore
SplineSet
768 144 m 1,0,1
 776 126 776 126 843 127 c 0,2,3
 966 127 966 127 999 282 c 0,4,5
 1015 344 1015 344 951 344 c 128,-1,6
 887 344 887 344 768 144 c 1,0,1
730 406 m 2,7,8
 707 290 707 290 714 255 c 1,9,10
 875 499 875 499 979 500 c 0,11,12
 1144 502 1144 502 1101 284 c 0,13,14
 1041 -29 1041 -29 791 -29 c 0,15,16
 720 -29 720 -29 674 -12 c 1,17,18
 629 -91 629 -91 599 -148 c 1,19,-1
 480 -148 l 1,20,-1
 585 46 l 1,21,22
 556 59 556 59 535 148 c 2,23,-1
 526 185 l 1,24,25
 481 95 481 95 414 42 c 0,26,27
 323 -30 323 -30 223 -29 c 0,28,29
 61 -27 61 -27 -1 128 c 0,30,31
 -63 286 -63 286 -9 563 c 0,32,33
 44 836 44 836 167.5 991.5 c 128,-1,34
 291 1147 291 1147 452 1147 c 0,35,36
 532 1147 532 1147 585 1103.5 c 128,-1,37
 638 1060 638 1060 657 977 c 1,38,-1
 770 1556 l 1,39,-1
 954 1556 l 1,40,-1
 730 406 l 2,7,8
144.5 559 m 128,-1,42
 103 345 103 345 136 236 c 128,-1,43
 169 127 169 127 275 127 c 128,-1,44
 381 127 381 127 458 237 c 128,-1,45
 535 347 535 347 576 559 c 0,46,47
 617 772 617 772 583 881.5 c 128,-1,48
 549 991 549 991 443 991 c 128,-1,49
 337 991 337 991 261.5 882 c 128,-1,41
 186 773 186 773 144.5 559 c 128,-1,42
EndSplineSet
EndChar

StartChar: uni0224
Encoding: 548 548 462
Width: 1233
Flags: W
LayerCount: 2
Fore
SplineSet
365 1493 m 1,0,-1
 1334 1493 l 1,1,-1
 1304 1339 l 1,2,-1
 296 170 l 1,3,-1
 1098 170 l 1,4,-1
 1090 128 l 1,5,-1
 1091 128 l 1,6,-1
 1062 -20 l 2,7,8
 1025 -215 1025 -215 915 -320 c 0,9,10
 804 -426 804 -426 639 -426 c 2,11,-1
 434 -426 l 1,12,-1
 465 -270 l 1,13,-1
 650 -270 l 2,14,15
 740 -270 740 -270 797 -208 c 0,16,17
 853 -146 853 -146 877 -20 c 2,18,-1
 881 0 l 1,19,-1
 52 0 l 1,20,-1
 82 154 l 1,21,-1
 1068 1323 l 1,22,-1
 331 1323 l 1,23,-1
 365 1493 l 1,0,-1
EndSplineSet
EndChar

StartChar: uni0225
Encoding: 549 549 463
Width: 1233
Flags: W
LayerCount: 2
Fore
SplineSet
377 1122 m 1,0,-1
 1190 1122 l 1,1,-1
 1158 954 l 1,2,-1
 359 150 l 1,3,-1
 1002 150 l 1,4,-1
 972 0 l 1,5,-1
 964 0 l 1,6,-1
 960 -20 l 2,7,8
 923 -215 923 -215 813 -320 c 0,9,10
 703 -426 703 -426 538 -426 c 2,11,-1
 333 -426 l 1,12,-1
 363 -270 l 1,13,-1
 548 -270 l 2,14,15
 638 -270 638 -270 695 -208 c 0,16,17
 751 -146 751 -146 775 -20 c 2,18,-1
 779 0 l 1,19,-1
 135 0 l 1,20,-1
 168 170 l 1,21,-1
 968 975 l 1,22,-1
 349 975 l 1,23,-1
 377 1122 l 1,0,-1
EndSplineSet
EndChar

StartChar: uni0234
Encoding: 564 564 478
Width: 1233
Flags: W
LayerCount: 2
Fore
SplineSet
618 144 m 1,0,1
 626 126 626 126 693 127 c 0,2,3
 816 127 816 127 849 282 c 0,4,5
 865 344 865 344 801 344 c 128,-1,6
 737 344 737 344 618 144 c 1,0,1
524 -12 m 1,7,8
 479 -91 479 -91 449 -148 c 1,9,-1
 330 -148 l 1,10,-1
 435 46 l 1,11,12
 417 51 417 51 385 148 c 0,13,14
 360 222 360 222 396 406 c 2,15,-1
 594 1423 l 1,16,-1
 299 1423 l 1,17,-1
 327 1567 l 1,18,-1
 806 1567 l 1,19,-1
 580 406 l 2,20,21
 557 290 557 290 564 255 c 1,22,23
 725 499 725 499 829 500 c 0,24,25
 994 502 994 502 951 284 c 0,26,27
 890 -29 890 -29 640 -29 c 0,28,29
 570 -29 570 -29 524 -12 c 1,7,8
EndSplineSet
EndChar

StartChar: uni0235
Encoding: 565 565 479
Width: 1233
Flags: W
LayerCount: 2
Fore
SplineSet
751 144 m 1,0,1
 759 126 759 126 826 127 c 0,2,3
 948 127 948 127 982 282 c 0,4,5
 998 344 998 344 934 344 c 128,-1,6
 870 344 870 344 751 144 c 1,0,1
697 406 m 2,7,8
 675 292 675 292 688 246 c 1,9,10
 859 498 859 498 962 500 c 0,11,12
 1122 502 1122 502 1086 296 c 0,13,14
 1085 290 1085 290 1084 284 c 0,15,16
 1024 -28 1024 -28 773 -29 c 0,17,18
 703 -29 703 -29 657 -12 c 1,19,20
 612 -91 612 -91 581 -148 c 1,21,-1
 462 -148 l 1,22,-1
 568 46 l 1,23,24
 550 51 550 51 518 148 c 0,25,26
 493 222 493 222 529 406 c 2,27,-1
 575 641 l 2,28,29
 621 878 621 878 605.5 935.5 c 128,-1,30
 590 993 590 993 500 993 c 0,31,32
 427 993 427 993 386.5 931.5 c 128,-1,33
 346 870 346 870 302 641 c 2,34,-1
 177 0 l 1,35,-1
 10 0 l 1,36,-1
 228 1120 l 1,37,-1
 395 1120 l 1,38,-1
 376 1024 l 1,39,40
 421 1084 421 1084 476.5 1115.5 c 128,-1,41
 532 1147 532 1147 595 1147 c 0,42,43
 728 1147 728 1147 765 1042 c 0,44,45
 801 941 801 941 744 649 c 2,46,-1
 697 406 l 2,7,8
EndSplineSet
EndChar

StartChar: uni0236
Encoding: 566 566 480
Width: 1233
Flags: W
LayerCount: 2
Fore
SplineSet
606 144 m 1,0,1
 614 126 614 126 680 127 c 0,2,3
 803 127 803 127 836 282 c 0,4,5
 852 344 852 344 788 344 c 128,-1,6
 724 344 724 344 606 144 c 1,0,1
568 406 m 2,7,8
 545 290 545 290 551 255 c 1,9,10
 712 499 712 499 817 500 c 0,11,12
 981 502 981 502 939 284 c 0,13,14
 878 -29 878 -29 628 -29 c 0,15,16
 557 -29 557 -29 512 -12 c 1,17,18
 467 -91 467 -91 436 -148 c 1,19,-1
 317 -148 l 1,20,-1
 423 46 l 1,21,22
 405 51 405 51 372 148 c 0,23,24
 348 222 348 222 384 406 c 2,25,-1
 495 977 l 1,26,-1
 196 977 l 1,27,-1
 223 1120 l 1,28,-1
 522 1120 l 1,29,-1
 584 1438 l 1,30,-1
 768 1438 l 1,31,-1
 706 1120 l 1,32,-1
 1124 1120 l 1,33,-1
 1097 977 l 1,34,-1
 679 977 l 1,35,-1
 568 406 l 2,7,8
EndSplineSet
EndChar

StartChar: dotlessj
Encoding: 567 567 481
Width: 1233
Flags: W
LayerCount: 2
Fore
SplineSet
498 -20 m 2,0,-1
 690 977 l 1,1,-1
 373 977 l 1,2,-1
 401 1120 l 1,3,-1
 903 1120 l 1,4,-1
 682 -20 l 2,5,6
 641 -233 641 -233 540 -329.5 c 128,-1,7
 439 -426 439 -426 258 -426 c 2,8,-1
 4 -426 l 1,9,-1
 35 -270 l 1,10,-1
 268 -270 l 2,11,12
 363 -270 363 -270 418 -210.5 c 128,-1,13
 473 -151 473 -151 498 -20 c 2,0,-1
EndSplineSet
EndChar

StartChar: uni0238
Encoding: 568 568 482
Width: 1233
Flags: W
LayerCount: 2
Fore
SplineSet
197 559 m 128,-1,1
 155 345 155 345 175 236 c 128,-1,2
 195 127 195 127 274.5 127 c 128,-1,3
 354 127 354 127 417 237 c 128,-1,4
 480 347 480 347 522 559 c 0,5,6
 563 772 563 772 542.5 881.5 c 128,-1,7
 522 991 522 991 442.5 991 c 128,-1,8
 363 991 363 991 301 882 c 128,-1,0
 239 773 239 773 197 559 c 128,-1,1
956.5 559 m 128,-1,10
 998 773 998 773 978.5 882 c 128,-1,11
 959 991 959 991 879 991 c 256,12,13
 799 991 799 991 736 881.5 c 128,-1,14
 673 772 673 772 632 559 c 0,15,16
 591 347 591 347 611 237 c 128,-1,17
 631 127 631 127 711 127 c 256,18,19
 791 127 791 127 853 236 c 128,-1,9
 915 345 915 345 956.5 559 c 128,-1,10
713 977 m 1,20,21
 756 1059 756 1059 811 1103 c 128,-1,22
 866 1147 866 1147 927 1147 c 0,23,24
 1048 1147 1048 1147 1087.5 991.5 c 128,-1,25
 1127 836 1127 836 1074 563 c 0,26,27
 1020 286 1020 286 919.5 128.5 c 128,-1,28
 819 -29 819 -29 697 -29 c 0,29,30
 637 -29 637 -29 599.5 14.5 c 128,-1,31
 562 58 562 58 551 141 c 1,32,-1
 523 0 l 1,33,-1
 413 0 l 1,34,-1
 440 141 l 1,35,36
 397 58 397 58 342.5 14.5 c 128,-1,37
 288 -29 288 -29 228 -29 c 0,38,39
 106 -29 106 -29 66.5 128.5 c 128,-1,40
 27 286 27 286 81 563 c 0,41,42
 134 836 134 836 234.5 991.5 c 128,-1,43
 335 1147 335 1147 456 1147 c 0,44,45
 517 1147 517 1147 555 1103.5 c 128,-1,46
 593 1060 593 1060 603 977 c 1,47,-1
 715 1556 l 1,48,-1
 826 1556 l 1,49,-1
 713 977 l 1,20,21
EndSplineSet
EndChar

StartChar: uni0239
Encoding: 569 569 483
Width: 1233
Flags: W
LayerCount: 2
Fore
SplineSet
1036 559 m 128,-1,1
 1078 773 1078 773 1058 882 c 128,-1,2
 1038 991 1038 991 958.5 991 c 128,-1,3
 879 991 879 991 816 881 c 128,-1,4
 753 771 753 771 711 559 c 0,5,6
 670 346 670 346 690.5 236.5 c 128,-1,7
 711 127 711 127 790.5 127 c 128,-1,8
 870 127 870 127 932 236 c 128,-1,0
 994 345 994 345 1036 559 c 128,-1,1
276.5 559 m 128,-1,10
 235 345 235 345 254.5 236 c 128,-1,11
 274 127 274 127 354 127 c 256,12,13
 434 127 434 127 497 236.5 c 128,-1,14
 560 346 560 346 601 559 c 0,15,16
 642 771 642 771 622 881 c 128,-1,17
 602 991 602 991 522 991 c 256,18,19
 442 991 442 991 380 882 c 128,-1,9
 318 773 318 773 276.5 559 c 128,-1,10
520 141 m 1,20,21
 477 59 477 59 422 15 c 128,-1,22
 367 -29 367 -29 306 -29 c 0,23,24
 185 -29 185 -29 145.5 126.5 c 128,-1,25
 106 282 106 282 159 555 c 0,26,27
 213 832 213 832 313.5 989.5 c 128,-1,28
 414 1147 414 1147 536 1147 c 0,29,30
 596 1147 596 1147 633.5 1103.5 c 128,-1,31
 671 1060 671 1060 682 977 c 1,32,-1
 710 1118 l 1,33,-1
 820 1118 l 1,34,-1
 793 977 l 1,35,36
 836 1060 836 1060 890.5 1103.5 c 128,-1,37
 945 1147 945 1147 1005 1147 c 0,38,39
 1127 1147 1127 1147 1166.5 989.5 c 128,-1,40
 1206 832 1206 832 1152 555 c 0,41,42
 1099 282 1099 282 998.5 126.5 c 128,-1,43
 898 -29 898 -29 777 -29 c 0,44,45
 716 -29 716 -29 678 14.5 c 128,-1,46
 640 58 640 58 630 141 c 1,47,-1
 518 -438 l 1,48,-1
 407 -438 l 1,49,-1
 520 141 l 1,20,21
EndSplineSet
EndChar

StartChar: uni023A
Encoding: 570 570 484
Width: 1233
Flags: W
LayerCount: 2
Fore
SplineSet
639 1493 m 1,0,-1
 884 1493 l 1,1,-1
 919 1180 l 1,2,-1
 1258 1559 l 1,3,-1
 1344 1485 l 1,4,-1
 936 1029 l 1,5,-1
 1051 0 l 1,6,-1
 842 0 l 1,7,-1
 808 389 l 1,8,-1
 363 389 l 1,9,-1
 197 203 l 1,10,-1
 101 0 l 1,11,-1
 15 0 l 1,12,-1
 -47 -70 l 1,13,-1
 -137 0 l 1,14,-1
 -71 74 l 1,15,-1
 639 1493 l 1,0,-1
508 551 m 1,16,-1
 791 551 l 1,17,-1
 767 840 l 1,18,-1
 508 551 l 1,16,-1
754 995 m 1,19,-1
 727 1315 l 1,20,-1
 376 572 l 1,21,-1
 754 995 l 1,19,-1
EndSplineSet
EndChar

StartChar: uni023B
Encoding: 571 571 485
Width: 1233
Flags: W
LayerCount: 2
Fore
SplineSet
323 514 m 1,0,-1
 1043 1318 l 1,1,-1
 1027 1324 l 2,2,3
 948 1356 948 1356 862 1356 c 0,4,5
 665 1356 665 1356 537.5 1204 c 128,-1,6
 410 1052 410 1052 350 745 c 0,7,8
 326 619 326 619 323 514 c 1,0,-1
939 53 m 1,9,10
 854 12 854 12 769 -8.5 c 128,-1,11
 684 -29 684 -29 593 -29 c 0,12,13
 306 -29 306 -29 187 174 c 1,14,-1
 181 185 l 1,15,-1
 -47 -70 l 1,16,-1
 -137 0 l 1,17,-1
 134 303 l 1,18,19
 88 482 88 482 139 745 c 0,20,21
 210 1111 210 1111 409.5 1315.5 c 128,-1,22
 609 1520 609 1520 894 1520 c 0,23,24
 985 1520 985 1520 1062 1500 c 0,25,26
 1117 1485 1117 1485 1169 1459 c 1,27,-1
 1258 1559 l 1,28,-1
 1344 1485 l 1,29,-1
 1182 1304 l 1,30,-1
 1168 1231 l 1,31,32
 1154 1244 1154 1244 1139 1256 c 1,33,-1
 336 358 l 1,34,35
 345 319 345 319 359 287 c 0,36,37
 428 135 428 135 625 135 c 0,38,39
 713 135 713 135 803.5 167 c 128,-1,40
 894 199 894 199 979 260 c 1,41,-1
 939 53 l 1,9,10
EndSplineSet
EndChar

StartChar: uni023C
Encoding: 572 572 486
Width: 1233
Flags: W
LayerCount: 2
Fore
SplineSet
375 406 m 1,0,-1
 961 973 l 1,1,2
 904 991 904 991 832 991 c 0,3,4
 659 991 659 991 544.5 879 c 128,-1,5
 430 767 430 767 389 559 c 0,6,7
 373 476 373 476 375 406 c 1,0,-1
964 57 m 1,8,9
 881 14 881 14 798.5 -7.5 c 128,-1,10
 716 -29 716 -29 634 -29 c 0,11,12
 374 -29 374 -29 258 127 c 1,13,-1
 252 136 l 1,14,-1
 12 -96 l 1,15,-1
 -65 -20 l 1,16,-1
 201 238 l 1,17,18
 159 370 159 370 195 559 c 0,19,20
 249 835 249 835 425.5 991 c 128,-1,21
 602 1147 602 1147 862 1147 c 0,22,23
 943 1147 943 1147 1016 1126 c 0,24,25
 1054 1115 1054 1115 1091 1098 c 1,26,-1
 1208 1212 l 1,27,-1
 1286 1135 l 1,28,-1
 1147 1001 l 1,29,-1
 1121 868 l 1,30,31
 1093 898 1093 898 1064 920 c 1,32,-1
 400 279 l 1,33,34
 409 258 409 258 421 240 c 0,35,36
 492 127 492 127 664 127 c 0,37,38
 760 127 760 127 842 156.5 c 128,-1,39
 924 186 924 186 1001 248 c 1,40,-1
 964 57 l 1,8,9
EndSplineSet
EndChar

StartChar: uni023D
Encoding: 573 573 487
Width: 1233
Flags: W
LayerCount: 2
Fore
SplineSet
433 1493 m 1,0,-1
 636 1493 l 1,1,-1
 491 747 l 1,2,-1
 754 747 l 1,3,-1
 721 577 l 1,4,-1
 458 577 l 1,5,-1
 379 170 l 1,6,-1
 1100 170 l 1,7,-1
 1067 0 l 1,8,-1
 143 0 l 1,9,-1
 255 577 l 1,10,-1
 -12 577 l 1,11,-1
 21 747 l 1,12,-1
 288 747 l 1,13,-1
 433 1493 l 1,0,-1
EndSplineSet
EndChar

StartChar: uni023E
Encoding: 574 574 488
Width: 1233
Flags: W
LayerCount: 2
Fore
SplineSet
762 976 m 1,0,-1
 1072 1323 l 1,1,-1
 829 1323 l 1,2,-1
 762 976 l 1,0,-1
503 687 m 1,3,-1
 626 1323 l 1,4,-1
 159 1323 l 1,5,-1
 192 1493 l 1,6,-1
 1224 1493 l 1,7,-1
 1283 1559 l 1,8,-1
 1369 1485 l 1,9,-1
 1319 1429 l 1,10,-1
 1298 1323 l 1,11,-1
 1224 1323 l 1,12,-1
 720 760 l 1,13,-1
 572 0 l 1,14,-1
 369 0 l 1,15,-1
 461 470 l 1,16,-1
 -22 -70 l 1,17,-1
 -112 0 l 1,18,-1
 503 687 l 1,3,-1
EndSplineSet
EndChar

StartChar: uni023F
Encoding: 575 575 489
Width: 1233
Flags: W
LayerCount: 2
Fore
SplineSet
1120 1081 m 1,0,-1
 1085 901 l 1,1,2
 1015 947 1015 947 939.5 970 c 128,-1,3
 864 993 864 993 781 993 c 0,4,5
 656 993 656 993 586.5 952.5 c 128,-1,6
 517 912 517 912 501 829 c 0,7,8
 486 754 486 754 525 717 c 128,-1,9
 564 680 564 680 740 645 c 2,10,-1
 811 631 l 2,11,12
 943 605 943 605 998.5 527 c 128,-1,13
 1054 449 1054 449 1030 324 c 0,14,15
 997 158 997 158 861 64 c 0,16,17
 741 -18 741 -18 563 -28 c 1,18,-1
 686 -180 l 1,19,-1
 808 -306 l 2,20,21
 843 -342 843 -342 919 -342 c 1,22,-1
 889 -496 l 1,23,-1
 850 -496 l 2,24,25
 766 -496 766 -496 664 -435 c 0,26,27
 600 -397 600 -397 529 -306 c 2,28,-1
 339 -63 l 2,29,30
 298 -10 298 -10 204 25 c 2,31,-1
 158 41 l 1,32,-1
 195 231 l 1,33,34
 318 236 318 236 422 140 c 1,35,36
 487 125 487 125 549 125 c 0,37,38
 671 125 671 125 747.5 174.5 c 128,-1,39
 824 224 824 224 842 313 c 0,40,41
 866 441 866 441 631 490 c 1,42,-1
 623 492 l 1,43,-1
 557 506 l 2,44,45
 403 539 403 539 345 610 c 0,46,47
 287 684 287 684 311 811 c 0,48,49
 343 972 343 972 469 1059.5 c 128,-1,50
 595 1147 595 1147 797 1147 c 0,51,52
 887 1147 887 1147 966.5 1130.5 c 128,-1,53
 1046 1114 1046 1114 1120 1081 c 1,0,-1
EndSplineSet
EndChar

StartChar: uni0240
Encoding: 576 576 490
Width: 1233
Flags: W
LayerCount: 2
Fore
SplineSet
384 1122 m 1,0,-1
 1197 1122 l 1,1,-1
 1165 954 l 1,2,-1
 343 133 l 1,3,4
 389 116 389 116 414 84 c 2,5,-1
 627 -180 l 1,6,-1
 750 -306 l 2,7,8
 785 -342 785 -342 861 -342 c 2,9,-1
 913 -342 l 1,10,-1
 883 -496 l 1,11,-1
 792 -496 l 2,12,13
 708 -496 708 -496 606 -435 c 0,14,15
 542 -397 542 -397 471 -306 c 2,16,-1
 281 -63 l 2,17,18
 232 0 232 0 142 0 c 1,19,-1
 172 156 l 1,20,-1
 175 170 l 1,21,-1
 975 975 l 1,22,-1
 356 975 l 1,23,-1
 384 1122 l 1,0,-1
EndSplineSet
EndChar

StartChar: uni0241
Encoding: 577 577 491
Width: 1233
Flags: W
LayerCount: 2
Fore
SplineSet
487 1327 m 2,0,1
 433 1327 433 1327 364 1280 c 0,2,3
 308 1242 308 1242 286 1128 c 2,4,-1
 276 1079 l 1,5,-1
 120 1079 l 1,6,-1
 134 1149 l 2,7,8
 169 1330 169 1330 281 1411.5 c 128,-1,9
 393 1493 393 1493 519 1493 c 2,10,-1
 814 1493 l 2,11,12
 1064 1493 1064 1493 1171 1379.5 c 128,-1,13
 1278 1266 1278 1266 1236 1047 c 0,14,15
 1193 826 1193 826 1042.5 713 c 128,-1,16
 892 600 892 600 641 600 c 1,17,-1
 524 0 l 1,18,-1
 322 0 l 1,19,-1
 471 766 l 1,20,-1
 673 766 l 2,21,22
 813 766 813 766 906 840 c 128,-1,23
 999 914 999 914 1025 1047 c 128,-1,24
 1051 1180 1051 1180 987 1253.5 c 128,-1,25
 923 1327 923 1327 782 1327 c 2,26,-1
 487 1327 l 2,0,1
EndSplineSet
EndChar

StartChar: uni0244
Encoding: 580 580 492
Width: 1233
Flags: W
LayerCount: 2
Fore
SplineSet
80 317 m 1,0,1
 86 440 86 440 116 577 c 1,2,-1
 -9 577 l 1,3,-1
 24 747 l 1,4,-1
 149 747 l 1,5,-1
 293 1493 l 1,6,-1
 496 1493 l 1,7,-1
 351 747 l 1,8,-1
 884 747 l 1,9,-1
 1028 1493 l 1,10,-1
 1231 1493 l 1,11,-1
 1087 747 l 1,12,-1
 1215 747 l 1,13,-1
 1182 577 l 1,14,-1
 1054 577 l 1,15,16
 1011 355 1011 355 963.5 252 c 128,-1,17
 916 149 916 149 842 90 c 0,18,19
 693 -29 693 -29 490 -29 c 128,-1,20
 287 -29 287 -29 183.5 61 c 128,-1,21
 80 151 80 151 80 317 c 1,0,1
279 319 m 1,22,23
 279 135 279 135 498 135 c 0,24,25
 670 135 670 135 756 254 c 0,26,27
 800 318 800 318 851 577 c 1,28,-1
 318 577 l 1,29,30
 284 413 284 413 279 319 c 1,22,23
EndSplineSet
EndChar

StartChar: uni0245
Encoding: 581 581 493
Width: 1233
Flags: W
LayerCount: 2
Fore
SplineSet
723 1303 m 1,0,-1
 125 0 l 1,1,-1
 -90 0 l 1,2,-1
 629 1493 l 1,3,-1
 887 1493 l 1,4,-1
 1034 0 l 1,5,-1
 836 0 l 1,6,-1
 723 1303 l 1,0,-1
EndSplineSet
EndChar

StartChar: uni024C
Encoding: 588 588 494
Width: 1233
Flags: W
LayerCount: 2
Fore
SplineSet
547 1327 m 1,0,-1
 445 797 l 1,1,-1
 590 797 l 2,2,3
 753 797 753 797 850.5 882.5 c 128,-1,4
 948 968 948 968 948 1110 c 0,5,6
 948 1222 948 1222 885 1274.5 c 128,-1,7
 822 1327 822 1327 686 1327 c 2,8,-1
 547 1327 l 1,0,-1
766 705 m 1,9,10
 838 691 838 691 881.5 638 c 128,-1,11
 925 585 925 585 979 408 c 2,12,-1
 1100 0 l 1,13,-1
 899 0 l 1,14,-1
 793 377 l 2,15,16
 749 533 749 533 694.5 582 c 128,-1,17
 640 631 640 631 530 631 c 2,18,-1
 412 631 l 1,19,-1
 289 0 l 1,20,-1
 86 0 l 1,21,-1
 208 631 l 1,22,-1
 -1 631 l 1,23,-1
 31 797 l 1,24,-1
 240 797 l 1,25,-1
 375 1493 l 1,26,-1
 717 1493 l 2,27,28
 924 1493 924 1493 1037.5 1403.5 c 128,-1,29
 1151 1314 1151 1314 1151 1151 c 0,30,31
 1151 968 1151 968 1047.5 848 c 128,-1,32
 944 728 944 728 766 705 c 1,9,10
EndSplineSet
EndChar

StartChar: uni024D
Encoding: 589 589 495
Width: 1233
Flags: W
LayerCount: 2
Fore
SplineSet
1184 889 m 1,0,1
 1094 977 1094 977 937 977 c 128,-1,2
 780 977 780 977 673.5 873 c 128,-1,3
 567 769 567 769 524 616 c 1,4,-1
 1070 616 l 1,5,-1
 1038 452 l 1,6,-1
 489 452 l 1,7,-1
 401 0 l 1,8,-1
 217 0 l 1,9,-1
 305 452 l 1,10,-1
 118 452 l 1,11,-1
 150 616 l 1,12,-1
 336 616 l 1,13,-1
 434 1120 l 1,14,-1
 618 1120 l 1,15,-1
 578 901 l 1,16,17
 645 1021 645 1021 751.5 1084 c 128,-1,18
 858 1147 858 1147 997 1147 c 0,19,20
 1137 1147 1137 1147 1219 1075 c 1,21,-1
 1184 889 l 1,0,1
EndSplineSet
EndChar

StartChar: uni0250
Encoding: 592 592 496
Width: 1233
Flags: W
LayerCount: 2
Fore
SplineSet
510 555 m 1,0,-1
 571 555 l 2,1,2
 732 555 732 555 824.5 611.5 c 128,-1,3
 917 668 917 668 938 780 c 0,4,5
 958 881 958 881 908 937 c 128,-1,6
 858 993 858 993 750 993 c 0,7,8
 598 993 598 993 490.5 887.5 c 128,-1,9
 383 782 383 782 346 596 c 2,10,-1
 338 555 l 1,11,-1
 510 555 l 1,0,-1
138 479 m 2,12,-1
 262 1118 l 1,13,-1
 447 1118 l 1,14,-1
 415 952 l 1,15,16
 493 1052 493 1052 592 1099.5 c 128,-1,17
 691 1147 691 1147 819 1147 c 0,18,19
 990 1147 990 1147 1073 1050.5 c 128,-1,20
 1156 954 1156 954 1125 792 c 0,21,22
 1088 605 1088 605 944 508 c 128,-1,23
 800 411 800 411 557 411 c 2,24,-1
 310 411 l 1,25,-1
 304 382 l 2,26,27
 279 248 279 248 334.5 187.5 c 128,-1,28
 390 127 390 127 537 127 c 0,29,30
 631 127 631 127 732 154 c 128,-1,31
 833 181 833 181 934 233 c 1,32,-1
 898 49 l 1,33,34
 789 10 789 10 691.5 -9.5 c 128,-1,35
 594 -29 594 -29 506 -29 c 0,36,37
 367 -29 367 -29 276.5 12 c 128,-1,38
 186 53 186 53 141 135 c 0,39,40
 113 185 113 185 111 258.5 c 128,-1,41
 109 332 109 332 138 479 c 2,12,-1
EndSplineSet
EndChar

StartChar: uni0251
Encoding: 593 593 497
Width: 1233
Flags: W
LayerCount: 2
Fore
SplineSet
973 977 m 1,0,-1
 1000 1116 l 1,1,-1
 1184 1116 l 1,2,-1
 967 0 l 1,3,-1
 783 0 l 1,4,-1
 811 141 l 1,5,6
 749 58 749 58 664 14.5 c 128,-1,7
 579 -29 579 -29 479 -29 c 0,8,9
 276 -29 276 -29 190 128.5 c 128,-1,10
 104 286 104 286 158 563 c 0,11,12
 211 836 211 836 358 991.5 c 128,-1,13
 505 1147 505 1147 707 1147 c 0,14,15
 808 1147 808 1147 876.5 1103.5 c 128,-1,16
 945 1060 945 1060 973 977 c 1,0,-1
351 559 m 128,-1,18
 309 345 309 345 356 236 c 128,-1,19
 403 127 403 127 536 127 c 128,-1,20
 669 127 669 127 760 237 c 128,-1,21
 851 347 851 347 892 559 c 0,22,23
 933 772 933 772 885 881.5 c 128,-1,24
 837 991 837 991 704 991 c 128,-1,25
 571 991 571 991 482 882 c 128,-1,17
 393 773 393 773 351 559 c 128,-1,18
EndSplineSet
EndChar

StartChar: uni0252
Encoding: 594 594 498
Width: 1233
Flags: W
LayerCount: 2
Fore
SplineSet
260 141 m 1,0,-1
 233 2 l 1,1,-1
 49 2 l 1,2,-1
 266 1118 l 1,3,-1
 450 1118 l 1,4,-1
 422 977 l 1,5,6
 484 1060 484 1060 569 1103.5 c 128,-1,7
 654 1147 654 1147 754 1147 c 0,8,9
 957 1147 957 1147 1043 989.5 c 128,-1,10
 1129 832 1129 832 1075 555 c 0,11,12
 1022 282 1022 282 875 126.5 c 128,-1,13
 728 -29 728 -29 526 -29 c 0,14,15
 425 -29 425 -29 356.5 14.5 c 128,-1,16
 288 58 288 58 260 141 c 1,0,-1
882 559 m 128,-1,18
 924 773 924 773 877 882 c 128,-1,19
 830 991 830 991 697 991 c 128,-1,20
 564 991 564 991 473 881 c 128,-1,21
 382 771 382 771 341 559 c 0,22,23
 300 346 300 346 348 236.5 c 128,-1,24
 396 127 396 127 529 127 c 128,-1,25
 662 127 662 127 751 236 c 128,-1,17
 840 345 840 345 882 559 c 128,-1,18
EndSplineSet
EndChar

StartChar: uni0253
Encoding: 595 595 499
Width: 1233
Flags: W
LayerCount: 2
Fore
SplineSet
842.5 559 m 128,-1,1
 884 773 884 773 837 882 c 128,-1,2
 790 991 790 991 657 991 c 0,3,4
 523 991 523 991 433 881.5 c 128,-1,5
 343 772 343 772 301 559 c 0,6,7
 260 347 260 347 307.5 237 c 128,-1,8
 355 127 355 127 489 127 c 0,9,10
 622 127 622 127 711.5 236 c 128,-1,0
 801 345 801 345 842.5 559 c 128,-1,1
384 977 m 1,11,12
 444 1059 444 1059 528 1103 c 0,13,14
 615 1147 615 1147 717 1147 c 0,15,16
 919 1147 919 1147 1004.5 991.5 c 128,-1,17
 1090 836 1090 836 1037 563 c 0,18,19
 983 286 983 286 836 128.5 c 128,-1,20
 689 -29 689 -29 486 -29 c 0,21,22
 386 -29 386 -29 318 14.5 c 128,-1,23
 250 58 250 58 220 141 c 1,24,-1
 193 0 l 1,25,-1
 9 0 l 1,26,-1
 203 1002 l 1,27,-1
 232 1150 l 2,28,29
 270 1345 270 1345 379 1450 c 0,30,31
 491 1556 491 1556 655 1556 c 2,32,-1
 860 1556 l 1,33,-1
 830 1400 l 1,34,-1
 645 1400 l 2,35,36
 555 1400 555 1400 498 1338 c 0,37,38
 442 1278 442 1278 417 1150 c 2,39,-1
 384 977 l 1,11,12
EndSplineSet
EndChar

StartChar: uni0254
Encoding: 596 596 500
Width: 1233
Flags: W
LayerCount: 2
Fore
SplineSet
281 1061 m 1,0,1
 363 1104 363 1104 446 1125.5 c 128,-1,2
 529 1147 529 1147 611 1147 c 0,3,4
 871 1147 871 1147 987 991 c 128,-1,5
 1103 835 1103 835 1049.5 559 c 128,-1,6
 996 283 996 283 819 127 c 128,-1,7
 642 -29 642 -29 382 -29 c 0,8,9
 301 -29 301 -29 228 -8 c 128,-1,10
 155 13 155 13 86 57 c 1,11,-1
 123 250 l 1,12,13
 184 185 184 185 252 156 c 128,-1,14
 320 127 320 127 413 127 c 0,15,16
 586 127 586 127 700.5 239 c 128,-1,17
 815 351 815 351 856 559 c 0,18,19
 896 766 896 766 824 878.5 c 128,-1,20
 752 991 752 991 580 991 c 0,21,22
 484 991 484 991 402.5 961.5 c 128,-1,23
 321 932 321 932 244 870 c 1,24,-1
 281 1061 l 1,0,1
EndSplineSet
EndChar

StartChar: uni0255
Encoding: 597 597 501
Width: 1233
Flags: W
LayerCount: 2
Fore
SplineSet
541 142 m 1,0,1
 597 123 597 123 672 123 c 0,2,3
 818 123 818 123 829 180 c 0,4,5
 842 255 842 255 711 255 c 0,6,7
 610 255 610 255 541 142 c 1,0,1
473 -20 m 1,8,9
 456 -77 456 -77 443 -145 c 1,10,-1
 289 -148 l 1,11,12
 309 -44 309 -44 338 40 c 1,13,14
 288 75 288 75 250 126 c 0,15,16
 133 287 133 287 185 555 c 0,17,18
 238 829 238 829 419 986 c 256,19,20
 600 1143 600 1143 862 1143 c 0,21,22
 947 1143 947 1143 1025 1126 c 0,23,24
 1102 1108 1102 1108 1171 1073 c 1,25,-1
 1138 901 l 1,26,27
 1068 944 1068 944 994 966 c 0,28,29
 920 987 920 987 840 987 c 0,30,31
 661 987 661 987 540 874 c 0,32,33
 419 760 419 760 379 555 c 128,-1,34
 339 350 339 350 416 236 c 0,35,36
 420 229 420 229 426 222 c 1,37,38
 544 398 544 398 740 398 c 0,39,40
 1039 398 1039 398 992 152 c 0,41,42
 957 -37 957 -37 623 -37 c 0,43,44
 541 -37 541 -37 473 -20 c 1,8,9
EndSplineSet
EndChar

StartChar: uni0256
Encoding: 598 598 502
Width: 1233
Flags: W
LayerCount: 2
Fore
SplineSet
330.5 559 m 128,-1,1
 289 345 289 345 322 236 c 128,-1,2
 355 127 355 127 461.5 127 c 128,-1,3
 568 127 568 127 645 237 c 128,-1,4
 722 347 722 347 763 559 c 0,5,6
 805 772 805 772 770.5 881.5 c 128,-1,7
 736 991 736 991 629.5 991 c 128,-1,8
 523 991 523 991 447.5 882 c 128,-1,0
 372 773 372 773 330.5 559 c 128,-1,1
845 977 m 1,9,-1
 957 1556 l 1,10,-1
 1139 1556 l 1,11,-1
 832 -20 l 2,12,13
 808 -146 808 -146 831 -208 c 0,14,15
 855 -270 855 -270 927 -270 c 2,16,-1
 933 -270 l 1,17,-1
 903 -426 l 1,18,-1
 847 -426 l 2,19,20
 714 -426 714 -426 663 -320 c 0,21,22
 612 -215 612 -215 650 -20 c 2,23,-1
 681 141 l 1,24,25
 628 58 628 58 559 14 c 0,26,27
 490 -29 490 -29 410 -29 c 0,28,29
 229 -29 229 -29 156.5 128.5 c 128,-1,30
 84 286 84 286 137 563 c 0,31,32
 191 836 191 836 325 991.5 c 128,-1,33
 459 1147 459 1147 638 1147 c 0,34,35
 719 1147 719 1147 772.5 1103.5 c 128,-1,36
 826 1060 826 1060 845 977 c 1,9,-1
EndSplineSet
EndChar

StartChar: uni0257
Encoding: 599 599 503
Width: 1233
Flags: W
LayerCount: 2
Fore
SplineSet
272.5 559 m 128,-1,1
 231 345 231 345 264 236 c 128,-1,2
 297 127 297 127 403.5 127 c 128,-1,3
 510 127 510 127 587 237 c 128,-1,4
 664 347 664 347 706 559 c 0,5,6
 747 772 747 772 712.5 881.5 c 128,-1,7
 678 991 678 991 571.5 991 c 128,-1,8
 465 991 465 991 389.5 882 c 128,-1,0
 314 773 314 773 272.5 559 c 128,-1,1
791 1002 m 1,9,-1
 820 1150 l 2,10,11
 858 1345 858 1345 949 1450 c 0,12,13
 1042 1556 1042 1556 1174 1556 c 2,14,-1
 1230 1556 l 1,15,-1
 1200 1400 l 1,16,-1
 1195 1400 l 2,17,18
 1123 1400 1123 1400 1075 1338 c 0,19,20
 1028 1276 1028 1276 1003 1150 c 2,21,-1
 780 0 l 1,22,-1
 597 0 l 1,23,-1
 624 141 l 1,24,25
 571 58 571 58 501.5 14.5 c 128,-1,26
 432 -29 432 -29 352 -29 c 0,27,28
 172 -29 172 -29 100 128.5 c 128,-1,29
 28 286 28 286 81 563 c 0,30,31
 134 836 134 836 268 991.5 c 128,-1,32
 402 1147 402 1147 581 1147 c 0,33,34
 661 1147 661 1147 714.5 1103.5 c 128,-1,35
 768 1060 768 1060 787 977 c 1,36,-1
 791 1002 l 1,9,-1
EndSplineSet
EndChar

StartChar: uni0258
Encoding: 600 600 504
Width: 1233
Flags: W
LayerCount: 2
Fore
SplineSet
131 606 m 2,0,1
 180 857 180 857 331.5 1002 c 128,-1,2
 483 1147 483 1147 697 1147 c 0,3,4
 937 1147 937 1147 1050 987 c 128,-1,5
 1163 827 1163 827 1111 559 c 0,6,7
 1058 284 1058 284 880.5 127.5 c 128,-1,8
 703 -29 703 -29 442 -29 c 0,9,10
 351 -29 351 -29 257.5 -7.5 c 128,-1,11
 164 14 164 14 67 57 c 1,12,-1
 103 240 l 1,13,14
 201 183 201 183 291.5 155 c 128,-1,15
 382 127 382 127 470 127 c 0,16,17
 644 127 644 127 759 227 c 128,-1,18
 874 327 874 327 909 510 c 1,19,-1
 911 516 l 1,20,-1
 114 516 l 1,21,-1
 131 606 l 2,0,1
326 660 m 1,22,23
 326 660 326 660 931 659 c 1,24,25
 946 815 946 815 877 903 c 128,-1,26
 808 991 808 991 675 991 c 0,27,28
 539 991 539 991 450 906.5 c 128,-1,29
 361 822 361 822 326 660 c 1,22,23
EndSplineSet
EndChar

StartChar: uni0259
Encoding: 601 601 505
Width: 1233
Flags: W
LayerCount: 2
Fore
SplineSet
113 512 m 2,0,-1
 130 602 l 1,1,-1
 927 602 l 1,2,-1
 929 608 l 1,3,4
 964 791 964 791 888 891 c 128,-1,5
 812 991 812 991 638 991 c 0,6,7
 550 991 550 991 448.5 963 c 128,-1,8
 347 935 347 935 227 878 c 1,9,-1
 263 1061 l 1,10,11
 376 1104 376 1104 477.5 1125.5 c 128,-1,12
 579 1147 579 1147 670 1147 c 0,13,14
 931 1147 931 1147 1047.5 990.5 c 128,-1,15
 1164 834 1164 834 1111 559 c 0,16,17
 1059 291 1059 291 884 131 c 128,-1,18
 709 -29 709 -29 469 -29 c 0,19,20
 255 -29 255 -29 159.5 116 c 128,-1,21
 64 261 64 261 113 512 c 2,0,-1
286 458 m 1,22,23
 259 296 259 296 315 211.5 c 128,-1,24
 371 127 371 127 507 127 c 0,25,26
 640 127 640 127 743 215 c 128,-1,27
 846 303 846 303 893 459 c 1,28,-1
 286 458 l 1,22,23
EndSplineSet
EndChar

StartChar: uni025A
Encoding: 602 602 506
Width: 1233
Flags: W
LayerCount: 2
Fore
SplineSet
511 214 m 1,0,1
 616 352 616 352 654 559 c 0,2,3
 667 621 667 621 670 677 c 1,4,-1
 132 321 l 1,5,6
 141 252 141 252 160 217 c 0,7,8
 204 127 204 127 307 127 c 0,9,10
 435 127 435 127 511 214 c 1,0,1
830 783 m 1,11,12
 835 687 835 687 812 569 c 0,13,14
 758 294 758 294 614 132 c 0,15,16
 470 -29 470 -29 279 -29 c 0,17,18
 106 -29 106 -29 35 116 c 0,19,20
 -16 219 -16 219 -6 375 c 1,21,-1
 663 818 l 1,22,23
 655 857 655 857 642 892 c 0,24,25
 603 992 603 992 444 991 c 0,26,27
 362 990 362 990 283 965 c 0,28,29
 202 939 202 939 118 887 c 1,30,-1
 152 1061 l 1,31,32
 235 1103 235 1103 318 1125 c 128,-1,33
 401 1147 401 1147 482 1147 c 0,34,35
 686 1147 686 1147 775 991 c 0,36,37
 795 956 795 956 808 915 c 1,38,-1
 985 1032 l 1,39,-1
 1125 1032 l 1,40,-1
 1096 884 l 2,41,42
 1066 731 1066 731 1086 682 c 0,43,44
 1105 634 1105 634 1185 634 c 2,45,-1
 1218 634 l 1,46,-1
 1187 478 l 1,47,-1
 1138 478 l 2,48,49
 1006 478 1006 478 958 574 c 0,50,51
 913 664 913 664 952 864 c 1,52,-1
 830 783 l 1,11,12
EndSplineSet
EndChar

StartChar: uni025B
Encoding: 603 603 507
Width: 1233
Flags: W
LayerCount: 2
Fore
SplineSet
458 607 m 1,0,1
 344 632 344 632 291 697 c 0,2,3
 240 761 240 761 258 855 c 0,4,5
 284 989 284 989 421.5 1068 c 128,-1,6
 559 1147 559 1147 768 1147 c 0,7,8
 849 1147 849 1147 937 1135 c 0,9,10
 1027 1123 1027 1123 1127 1099 c 1,11,-1
 1095 932 l 1,12,13
 996 959 996 959 912 972 c 0,14,15
 828 984 828 984 752 984 c 0,16,17
 614 984 614 984 531.5 941 c 128,-1,18
 449 898 449 898 435 824 c 0,19,20
 423 763 423 763 487 720 c 0,21,22
 550 676 550 676 685 676 c 2,23,-1
 851 676 l 1,24,-1
 823 532 l 1,25,-1
 664 532 l 2,26,27
 514 532 514 532 419.5 477 c 128,-1,28
 325 422 325 422 309 341 c 0,29,30
 290 243 290 243 370 190 c 0,31,32
 450 138 450 138 623 138 c 0,33,34
 722 138 722 138 817 156 c 0,35,36
 911 173 911 173 995 207 c 1,37,-1
 961 34 l 1,38,39
 859 6 859 6 766 -8 c 0,40,41
 672 -22 672 -22 586 -22 c 0,42,43
 332 -22 332 -22 211 69 c 0,44,45
 91 161 91 161 123 327 c 0,46,47
 144 436 144 436 232.5 510 c 128,-1,48
 321 584 321 584 458 607 c 1,0,1
EndSplineSet
EndChar

StartChar: uni025C
Encoding: 604 604 508
Width: 1233
Flags: W
LayerCount: 2
Fore
SplineSet
792 607 m 1,0,1
 919 584 919 584 979 510 c 256,2,3
 1039 436 1039 436 1018 327 c 0,4,5
 986 161 986 161 829 69 c 0,6,7
 673 -22 673 -22 418 -22 c 0,8,9
 333 -22 333 -22 245 -8 c 128,-1,10
 157 6 157 6 66 34 c 1,11,-1
 100 207 l 1,12,13
 169 173 169 173 257 156 c 0,14,15
 344 138 344 138 444 138 c 0,16,17
 617 138 617 138 718 190 c 0,18,19
 819 243 819 243 838 341 c 0,20,21
 854 422 854 422 779 477 c 0,22,23
 706 532 706 532 556 532 c 2,24,-1
 398 532 l 1,25,-1
 426 676 l 1,26,-1
 591 676 l 2,27,28
 727 676 727 676 808 720 c 0,29,30
 888 763 888 763 900 824 c 0,31,32
 914 898 914 898 849 941 c 0,33,34
 782 984 782 984 644 984 c 0,35,36
 569 984 569 984 480 972 c 0,37,38
 391 959 391 959 282 932 c 1,39,-1
 314 1099 l 1,40,41
 424 1123 424 1123 517 1135 c 0,42,43
 612 1147 612 1147 692 1147 c 0,44,45
 902 1147 902 1147 1008.5 1068 c 128,-1,46
 1115 989 1115 989 1089 855 c 0,47,48
 1071 761 1071 761 993 697 c 0,49,50
 916 632 916 632 792 607 c 1,0,1
EndSplineSet
EndChar

StartChar: uni025D
Encoding: 605 605 509
Width: 1233
Flags: W
LayerCount: 2
Fore
SplineSet
526 607 m 1,0,1
 620 584 620 584 661 510 c 0,2,3
 703 436 703 436 682 327 c 0,4,5
 650 161 650 161 528 69 c 0,6,7
 407 -22 407 -22 215 -22 c 0,8,9
 152 -22 152 -22 86 -8 c 128,-1,10
 20 6 20 6 -46 34 c 1,11,-1
 -12 207 l 1,12,13
 38 173 38 173 103 156 c 0,14,15
 168 138 168 138 243 138 c 0,16,17
 372 138 372 138 450 190 c 0,18,19
 529 243 529 243 548 341 c 0,20,21
 563 422 563 422 510 477 c 0,22,23
 458 532 458 532 345 532 c 2,24,-1
 227 532 l 1,25,-1
 255 676 l 1,26,-1
 379 676 l 2,27,28
 481 676 481 676 543 720 c 0,29,30
 606 763 606 763 617 824 c 0,31,32
 632 898 632 898 585 941 c 0,33,34
 537 984 537 984 433 984 c 0,35,36
 377 984 377 984 309 972 c 0,37,38
 242 959 242 959 159 932 c 1,39,-1
 192 1099 l 1,40,41
 275 1123 275 1123 346 1135 c 256,42,43
 417 1147 417 1147 477 1147 c 0,44,45
 634 1147 634 1147 711 1068 c 0,46,47
 773 1003 773 1003 767 901 c 1,48,-1
 962 1032 l 1,49,-1
 1100 1032 l 1,50,-1
 1071 884 l 2,51,52
 1041 731 1041 731 1060 682 c 0,53,54
 1079 634 1079 634 1158 634 c 2,55,-1
 1190 634 l 1,56,-1
 1160 478 l 1,57,-1
 1112 478 l 2,58,59
 981 478 981 478 934 574 c 0,60,61
 890 664 890 664 929 864 c 1,62,-1
 688 702 l 1,63,-1
 687 703 l 1,64,-1
 681 697 l 2,65,66
 620 632 620 632 526 607 c 1,0,1
EndSplineSet
EndChar

StartChar: uni025E
Encoding: 606 606 510
Width: 1233
Flags: W
LayerCount: 2
Fore
SplineSet
755 984 m 0,0,1
 416 984 416 984 334 566 c 0,2,3
 247 120 247 120 586 119 c 0,4,5
 704 119 704 119 769 173 c 0,6,7
 846 237 846 237 860 311 c 0,8,9
 875 389 875 389 826 443 c 0,10,11
 800 473 800 473 661 473 c 2,12,-1
 525 473 l 1,13,-1
 555 630 l 1,14,-1
 692 630 l 2,15,16
 831 630 831 630 869 660 c 0,17,18
 939 715 939 715 953.5 792 c 128,-1,19
 968 869 968 869 917 930 c 0,20,21
 870 984 870 984 755 984 c 0,0,1
557 1099 m 0,22,23
 650 1144 650 1144 799 1145 c 0,24,25
 972 1145 972 1145 1056 1059 c 0,26,27
 1139 972 1139 972 1110 824 c 0,28,29
 1090 721 1090 721 1023 650 c 128,-1,30
 956 579 956 579 853 552 c 1,31,32
 946 524 946 524 985.5 453 c 128,-1,33
 1025 382 1025 382 1005 279 c 0,34,35
 976 131 976 131 859 45 c 0,36,37
 741 -42 741 -42 569 -42 c 0,38,39
 421 -44 421 -44 347 18 c 0,40,41
 110 212 110 212 176 556 c 0,42,43
 254 953 254 953 557 1099 c 0,22,23
EndSplineSet
EndChar

StartChar: uni025F
Encoding: 607 607 511
Width: 1233
Flags: W
LayerCount: 2
Fore
SplineSet
1145 616 m 1,0,-1
 1113 452 l 1,1,-1
 759 452 l 1,2,-1
 667 -20 l 2,3,4
 630 -215 630 -215 519.5 -320.5 c 128,-1,5
 409 -426 409 -426 244 -426 c 2,6,-1
 -10 -426 l 1,7,-1
 21 -270 l 1,8,-1
 255 -270 l 2,9,10
 345 -270 345 -270 402 -207.5 c 128,-1,11
 459 -145 459 -145 483 -20 c 2,12,-1
 575 452 l 1,13,-1
 192 452 l 1,14,-1
 224 616 l 1,15,-1
 607 616 l 1,16,-1
 677 977 l 1,17,-1
 360 977 l 1,18,-1
 388 1120 l 1,19,-1
 889 1120 l 1,20,-1
 791 616 l 1,21,-1
 1145 616 l 1,0,-1
EndSplineSet
EndChar

StartChar: uni0260
Encoding: 608 608 512
Width: 1233
Flags: W
LayerCount: 2
Fore
SplineSet
857 1116 m 1,0,-1
 864 1150 l 2,1,2
 902 1345 902 1345 994 1450 c 0,3,4
 1087 1556 1087 1556 1221 1556 c 2,5,-1
 1270 1556 l 1,6,-1
 1240 1400 l 1,7,-1
 1213 1400 l 2,8,9
 1156 1400 1156 1400 1115 1338 c 0,10,11
 1075 1276 1075 1276 1050 1150 c 2,12,-1
 842 72 l 2,13,14
 793 -179 793 -179 662 -310 c 0,15,16
 531 -440 531 -440 327 -440 c 0,17,18
 265 -440 265 -440 201 -426 c 128,-1,19
 137 -412 137 -412 75 -385 c 1,20,-1
 110 -203 l 1,21,22
 180 -249 180 -249 240.5 -271 c 128,-1,23
 301 -293 301 -293 355 -293 c 0,24,25
 476 -293 476 -293 546.5 -212 c 128,-1,26
 617 -131 617 -131 651 45 c 1,27,-1
 653 53 l 1,28,-1
 677 178 l 1,29,30
 623 84 623 84 553 38 c 128,-1,31
 483 -8 483 -8 395 -8 c 0,32,33
 221 -8 221 -8 147.5 149 c 128,-1,34
 74 306 74 306 125 569 c 0,35,36
 171 802 171 802 305 959 c 128,-1,37
 439 1116 439 1116 613 1116 c 2,38,-1
 857 1116 l 1,0,-1
753 569 m 2,39,-1
 836 992 l 1,40,-1
 622 991 l 2,41,42
 513 991 513 991 434.5 883.5 c 128,-1,43
 356 776 356 776 316 569 c 128,-1,44
 276 362 276 362 312.5 253.5 c 128,-1,45
 349 145 349 145 459 145 c 0,46,47
 562 145 562 145 637.5 254 c 128,-1,48
 713 363 713 363 753 569 c 2,39,-1
EndSplineSet
EndChar

StartChar: uni0261
Encoding: 609 609 513
Width: 1233
Flags: W
LayerCount: 2
Fore
SplineSet
937 569 m 2,0,1
 937 569 937 569 1019 992 c 1,2,-1
 755 991 l 2,3,4
 620 991 620 991 528 883.5 c 128,-1,5
 436 776 436 776 396 569 c 128,-1,6
 356 362 356 362 406 253.5 c 128,-1,7
 456 145 456 145 592 145 c 0,8,9
 719 145 719 145 808 254 c 128,-1,10
 897 363 897 363 937 569 c 2,0,1
1024 72 m 2,11,12
 975 -180 975 -180 831 -310 c 128,-1,13
 687 -440 687 -440 456 -440 c 0,14,15
 380 -440 380 -440 299.5 -426 c 128,-1,16
 219 -412 219 -412 141 -385 c 1,17,-1
 177 -203 l 1,18,19
 266 -249 266 -249 341.5 -271 c 128,-1,20
 417 -293 417 -293 484 -293 c 0,21,22
 633 -293 633 -293 717 -212 c 128,-1,23
 801 -131 801 -131 835 45 c 1,24,-1
 837 53 l 1,25,-1
 861 178 l 1,26,27
 799 84 799 84 714 38 c 128,-1,28
 629 -8 629 -8 520 -8 c 0,29,30
 324 -8 324 -8 237.5 149 c 128,-1,31
 151 306 151 306 202 569 c 0,32,33
 246 796 246 796 395 959 c 0,34,35
 538 1116 538 1116 738 1116 c 2,36,37
 738 1116 738 1116 1227 1116 c 1,38,-1
 1024 72 l 2,11,12
EndSplineSet
EndChar

StartChar: uni0262
Encoding: 610 610 514
Width: 1233
Flags: W
LayerCount: 2
Fore
SplineSet
866 178 m 1,0,-1
 921 460 l 1,1,-1
 766 460 l 1,2,-1
 793 600 l 1,3,-1
 1114 600 l 1,4,-1
 1011 72 l 1,5,6
 933 38 933 38 842 18 c 0,7,8
 760 0 760 0 558 0 c 0,9,10
 305 0 305 0 187 159 c 128,-1,11
 69 318 69 318 122 588 c 0,12,13
 175 862 175 862 356 1019 c 256,14,15
 537 1176 537 1176 799 1176 c 0,16,17
 861 1176 861 1176 961 1158 c 0,18,19
 1062 1141 1062 1141 1174 1066 c 1,20,-1
 1141 894 l 1,21,22
 1036 971 1036 971 930 998 c 0,23,24
 847 1020 847 1020 776 1020 c 0,25,26
 597 1020 597 1020 476 906 c 0,27,28
 355 793 355 793 315.5 588 c 128,-1,29
 276 383 276 383 353 270 c 0,30,31
 430 156 430 156 609 156 c 0,32,33
 782 156 782 156 866 178 c 1,0,-1
EndSplineSet
EndChar

StartChar: uni0263
Encoding: 611 611 515
Width: 1233
Flags: W
LayerCount: 2
Fore
SplineSet
782 572 m 1,0,1
 978 126 978 126 916 -194 c 0,2,3
 871 -426 871 -426 486 -430 c 0,4,5
 62 -435 62 -435 108 -194 c 0,6,7
 172 148 172 148 545 579 c 1,8,-1
 253 1120 l 1,9,-1
 470 1120 l 1,10,-1
 695 720 l 1,11,-1
 1064 1120 l 1,12,-1
 1281 1120 l 1,13,-1
 782 572 l 1,0,1
637 452 m 1,14,15
 357 144 357 144 307 -130 c 0,16,17
 283 -268 283 -268 496 -268 c 0,18,19
 700 -268 700 -268 727 -130 c 0,20,21
 777 120 777 120 637 452 c 1,14,15
EndSplineSet
EndChar

StartChar: uni0264
Encoding: 612 612 516
Width: 1233
Flags: W
LayerCount: 2
Fore
SplineSet
506 586 m 1,0,-1
 211 1120 l 1,1,-1
 428 1120 l 1,2,-1
 648 721 l 1,3,-1
 1022 1120 l 1,4,-1
 1239 1120 l 1,5,-1
 728 575 l 1,6,7
 861 334 861 334 828 167 c 0,8,9
 797 0 797 0 510 0 c 0,10,11
 208 0 208 0 240 167 c 0,12,13
 275 344 275 344 506 586 c 1,0,-1
585 440 m 1,14,15
 437 282 437 282 425 223 c 0,16,17
 405 119 405 119 528 119 c 0,18,19
 641 119 641 119 662 223 c 0,20,21
 674 286 674 286 585 440 c 1,14,15
EndSplineSet
EndChar

StartChar: uni0265
Encoding: 613 613 517
Width: 1233
Flags: W
LayerCount: 2
Fore
SplineSet
204 424 m 2,0,-1
 339 1118 l 1,1,-1
 523 1118 l 1,2,-1
 388 424 l 2,3,4
 359 273 359 273 398.5 202 c 128,-1,5
 438 131 438 131 550 131 c 0,6,7
 680 131 680 131 767 222.5 c 128,-1,8
 854 314 854 314 887 485 c 2,9,-1
 1010 1118 l 1,10,-1
 1195 1118 l 1,11,-1
 894 -430 l 1,12,-1
 709 -430 l 1,13,-1
 825 168 l 1,14,15
 757 71 757 71 663 21 c 128,-1,16
 569 -29 569 -29 456 -29 c 0,17,18
 284 -29 284 -29 222 83.5 c 128,-1,19
 160 196 160 196 204 424 c 2,0,-1
EndSplineSet
EndChar

StartChar: uni0266
Encoding: 614 614 518
Width: 1233
Flags: W
LayerCount: 2
Fore
SplineSet
409 962 m 1,0,-1
 406 952 l 1,1,2
 474 1048 474 1048 567.5 1097.5 c 128,-1,3
 661 1147 661 1147 776 1147 c 0,4,5
 947 1147 947 1147 1009.5 1034.5 c 128,-1,6
 1072 922 1072 922 1028 694 c 2,7,-1
 893 0 l 1,8,-1
 708 0 l 1,9,-1
 843 694 l 2,10,11
 873 845 873 845 833.5 916 c 128,-1,12
 794 987 794 987 681 987 c 0,13,14
 552 987 552 987 465 895.5 c 128,-1,15
 378 804 378 804 344 633 c 2,16,-1
 221 0 l 1,17,-1
 37 0 l 1,18,-1
 232 1002 l 1,19,-1
 261 1150 l 2,20,21
 299 1345 299 1345 408 1450 c 0,22,23
 519 1556 519 1556 684 1556 c 2,24,-1
 889 1556 l 1,25,-1
 858 1400 l 1,26,-1
 673 1400 l 2,27,28
 583 1400 583 1400 526 1338 c 0,29,30
 470 1276 470 1276 446 1150 c 2,31,-1
 409 962 l 1,0,-1
EndSplineSet
EndChar

StartChar: uni0267
Encoding: 615 615 519
Width: 1233
Flags: W
LayerCount: 2
Fore
SplineSet
451 962 m 1,0,-1
 448 952 l 1,1,2
 515 1048 515 1048 609 1097.5 c 128,-1,3
 703 1147 703 1147 818 1147 c 0,4,5
 989 1147 989 1147 1051.5 1034.5 c 128,-1,6
 1114 922 1114 922 1070 694 c 2,7,-1
 960 128 l 1,8,-1
 935 0 l 1,9,-1
 931 -20 l 2,10,11
 893 -215 893 -215 783 -320 c 0,12,13
 673 -426 673 -426 508 -426 c 2,14,-1
 303 -426 l 1,15,-1
 333 -270 l 1,16,-1
 518 -270 l 2,17,18
 608 -270 608 -270 665 -208 c 0,19,20
 721 -146 721 -146 746 -20 c 2,21,-1
 750 0 l 1,22,-1
 775 128 l 1,23,-1
 885 694 l 2,24,25
 914 845 914 845 875 916 c 128,-1,26
 836 987 836 987 723 987 c 0,27,28
 594 987 594 987 506.5 895.5 c 128,-1,29
 419 804 419 804 386 633 c 2,30,-1
 263 0 l 1,31,-1
 79 0 l 1,32,-1
 273 1002 l 1,33,-1
 302 1150 l 2,34,35
 340 1345 340 1345 450 1450 c 0,36,37
 560 1556 560 1556 725 1556 c 2,38,-1
 930 1556 l 1,39,-1
 900 1400 l 1,40,-1
 715 1400 l 2,41,42
 625 1400 625 1400 568 1338 c 0,43,44
 512 1276 512 1276 487 1150 c 2,45,-1
 451 962 l 1,0,-1
EndSplineSet
EndChar

StartChar: uni0268
Encoding: 616 616 520
Width: 1233
Flags: W
LayerCount: 2
Fore
SplineSet
676 1556 m 1,0,-1
 860 1556 l 1,1,-1
 814 1323 l 1,2,-1
 630 1323 l 1,3,-1
 676 1556 l 1,0,-1
304 1120 m 1,4,-1
 775 1120 l 1,5,-1
 677 616 l 1,6,-1
 1031 616 l 1,7,-1
 999 452 l 1,8,-1
 645 452 l 1,9,-1
 585 143 l 1,10,-1
 950 143 l 1,11,-1
 922 0 l 1,12,-1
 8 0 l 1,13,-1
 36 143 l 1,14,-1
 401 143 l 1,15,-1
 461 452 l 1,16,-1
 78 452 l 1,17,-1
 110 616 l 1,18,-1
 493 616 l 1,19,-1
 563 977 l 1,20,-1
 276 977 l 1,21,-1
 304 1120 l 1,4,-1
EndSplineSet
EndChar

StartChar: uni0269
Encoding: 617 617 521
Width: 1233
Flags: W
LayerCount: 2
Fore
SplineSet
926 0 m 1,0,-1
 721 0 l 2,1,2
 556 0 556 0 486 106 c 0,3,4
 417 208 417 208 456 406 c 2,5,6
 456 406 456 406 567 977 c 1,7,-1
 280 977 l 1,8,-1
 307 1120 l 1,9,-1
 778 1120 l 1,10,-1
 640 406 l 2,11,12
 614 280 614 280 647 218 c 128,-1,13
 680 156 680 156 770 156 c 2,14,-1
 955 156 l 1,15,-1
 926 0 l 1,0,-1
EndSplineSet
EndChar

StartChar: uni026A
Encoding: 618 618 522
Width: 1233
Flags: W
LayerCount: 2
Fore
SplineSet
268 1120 m 1,0,-1
 1182 1120 l 1,1,-1
 1155 977 l 1,2,-1
 790 977 l 1,3,-1
 627 143 l 1,4,-1
 992 143 l 1,5,-1
 965 0 l 1,6,-1
 51 0 l 1,7,-1
 78 143 l 1,8,-1
 443 143 l 1,9,-1
 606 977 l 1,10,-1
 241 977 l 1,11,-1
 268 1120 l 1,0,-1
EndSplineSet
EndChar

StartChar: uni026B
Encoding: 619 619 523
Width: 1233
Flags: W
LayerCount: 2
Fore
SplineSet
585 406 m 2,0,1
 557 259 557 259 594 219 c 0,2,3
 654 156 654 156 717 156 c 2,4,-1
 932 156 l 1,5,-1
 901 0 l 1,6,-1
 668 0 l 2,7,8
 503 0 503 0 433 106 c 128,-1,9
 363 212 363 212 401 406 c 2,10,-1
 440 604 l 1,11,12
 395 614 395 614 348 614 c 0,13,14
 269 614 269 614 193 584.5 c 128,-1,15
 117 555 117 555 31 492 c 1,16,-1
 65 666 l 1,17,18
 155 726 155 726 233 753 c 128,-1,19
 311 780 311 780 394 780 c 0,20,21
 435 780 435 780 473 774 c 1,22,-1
 599 1423 l 1,23,-1
 304 1423 l 1,24,-1
 332 1567 l 1,25,-1
 811 1567 l 1,26,-1
 644 710 l 1,27,28
 748 657 748 657 839 657 c 0,29,30
 909 657 909 657 983.5 687.5 c 128,-1,31
 1058 718 1058 718 1144 780 c 1,32,-1
 1110 606 l 1,33,34
 1024 547 1024 547 947 519.5 c 128,-1,35
 870 492 870 492 791 492 c 0,36,37
 707 492 707 492 611 537 c 1,38,-1
 585 406 l 2,0,1
EndSplineSet
EndChar

StartChar: uni026C
Encoding: 620 620 524
Width: 1233
Flags: W
LayerCount: 2
Fore
SplineSet
608 406 m 2,0,1
 584 282 584 282 617.5 219 c 128,-1,2
 651 156 651 156 740 156 c 2,3,-1
 955 156 l 1,4,-1
 924 0 l 1,5,-1
 691 0 l 2,6,7
 526 0 526 0 456 106 c 128,-1,8
 386 212 386 212 424 406 c 2,9,-1
 461 596 l 2,10,11
 464 611 464 611 466 626 c 1,12,-1
 405 626 l 2,13,14
 125 626 125 626 163 815 c 0,15,16
 211 1061 211 1061 456 1061 c 0,17,18
 510 1061 510 1061 547 1036 c 1,19,-1
 622 1423 l 1,20,-1
 327 1423 l 1,21,-1
 355 1567 l 1,22,-1
 834 1567 l 1,23,-1
 682 786 l 1,24,-1
 932 786 l 1,25,-1
 901 626 l 1,26,-1
 651 626 l 1,27,-1
 608 406 l 2,0,1
482 786 m 1,28,29
 484 918 484 918 430 918 c 0,30,31
 353 918 353 918 337 843 c 0,32,33
 326 786 326 786 418 786 c 2,34,-1
 482 786 l 1,28,29
EndSplineSet
EndChar

StartChar: uni026D
Encoding: 621 621 525
Width: 1233
Flags: W
LayerCount: 2
Fore
SplineSet
544 -20 m 2,0,1
 520 -144 520 -144 553 -207 c 128,-1,2
 586 -270 586 -270 675 -270 c 2,3,-1
 890 -270 l 1,4,-1
 860 -426 l 1,5,-1
 627 -426 l 2,6,7
 468 -426 468 -426 392 -320 c 0,8,9
 321 -220 321 -220 360 -20 c 2,10,-1
 640 1423 l 1,11,-1
 345 1423 l 1,12,-1
 373 1567 l 1,13,-1
 852 1567 l 1,14,-1
 544 -20 l 2,0,1
EndSplineSet
EndChar

StartChar: uni026E
Encoding: 622 622 526
Width: 1233
Flags: W
LayerCount: 2
Fore
SplineSet
393 406 m 2,0,1
 369 282 369 282 393 219 c 128,-1,2
 417 156 417 156 488 156 c 2,3,-1
 660 156 l 1,4,-1
 630 0 l 1,5,-1
 443 0 l 2,6,7
 311 0 311 0 259.5 106 c 128,-1,8
 208 212 208 212 245 406 c 2,9,-1
 443 1423 l 1,10,-1
 207 1423 l 1,11,-1
 235 1567 l 1,12,-1
 618 1567 l 1,13,-1
 531 1120 l 1,14,-1
 1230 1120 l 1,15,-1
 1197 952 l 1,16,-1
 776 476 l 1,17,18
 860 476 860 476 952 420 c 0,19,20
 1023 377 1023 377 1070 269 c 0,21,22
 1115 165 1115 165 1088 27 c 0,23,24
 1045 -194 1045 -194 900 -315 c 128,-1,25
 755 -436 755 -436 531 -436 c 0,26,27
 455 -436 455 -436 380 -418 c 0,28,29
 303 -399 303 -399 226 -362 c 1,30,-1
 264 -167 l 1,31,32
 321 -216 321 -216 396.5 -241 c 128,-1,33
 472 -266 472 -266 559 -266 c 0,34,35
 710 -266 710 -266 805 -191 c 0,36,37
 899 -116 899 -116 927 27 c 0,38,39
 953 159 953 159 894 234 c 0,40,41
 834 308 834 308 702 308 c 2,42,-1
 562 308 l 1,43,-1
 595 474 l 1,44,-1
 1036 973 l 1,45,-1
 503 973 l 1,46,-1
 393 406 l 2,0,1
EndSplineSet
EndChar

StartChar: uni026F
Encoding: 623 623 527
Width: 1233
Flags: W
LayerCount: 2
Fore
SplineSet
478 141 m 1,0,1
 430 69 430 69 371 34.5 c 128,-1,2
 312 0 312 0 238 0 c 0,3,4
 103 0 103 0 68 104.5 c 128,-1,5
 33 209 33 209 89 498 c 2,6,-1
 215 1147 l 1,7,-1
 383 1147 l 1,8,-1
 258 506 l 2,9,10
 212 269 212 269 227.5 211.5 c 128,-1,11
 243 154 243 154 313 154 c 0,12,13
 393 154 393 154 434.5 215.5 c 128,-1,14
 476 277 476 277 520 506 c 2,15,-1
 645 1147 l 1,16,-1
 813 1147 l 1,17,-1
 688 506 l 2,18,19
 642 266 642 266 659.5 210 c 128,-1,20
 677 154 677 154 751 154 c 0,21,22
 824 154 824 154 864.5 215.5 c 128,-1,23
 905 277 905 277 949 506 c 2,24,-1
 1074 1147 l 1,25,-1
 1241 1147 l 1,26,-1
 1023 27 l 1,27,-1
 856 27 l 1,28,-1
 875 123 l 1,29,30
 830 63 830 63 774.5 31.5 c 128,-1,31
 719 0 719 0 656 0 c 0,32,33
 580 0 580 0 536.5 35 c 128,-1,34
 493 70 493 70 478 141 c 1,0,1
EndSplineSet
EndChar

